<svg xmlns="http://www.w3.org/2000/svg" xmlns:xlink="http://www.w3.org/1999/xlink" viewBox="0 0 2813.87 2970.28"><defs><style>.cls-1{fill:url(#linear-gradient);}.cls-2{fill:url(#linear-gradient-2);}.cls-3{isolation:isolate;}.cls-4{fill:#f4f7fa;}.cls-5{clip-path:url(#clip-path);}.cls-6{opacity:0.5;}.cls-24,.cls-6,.cls-9{mix-blend-mode:soft-light;}.cls-24,.cls-7{fill:#fff;}.cls-8{clip-path:url(#clip-path-2);}.cls-10{fill:#fcfdfe;}.cls-11{fill:url(#linear-gradient-5);}.cls-12{fill:url(#linear-gradient-6);}.cls-13,.cls-15,.cls-40{opacity:0.3;}.cls-13,.cls-15,.cls-29,.cls-33,.cls-40{mix-blend-mode:multiply;}.cls-13{fill:url(#linear-gradient-7);}.cls-14{fill:url(#linear-gradient-8);}.cls-16{fill:url(#linear-gradient-9);}.cls-17{fill:url(#linear-gradient-10);}.cls-18{fill:url(#linear-gradient-11);}.cls-19{fill:url(#linear-gradient-12);}.cls-20{fill:#d8dee8;}.cls-21{fill:#26264f;}.cls-22{fill:url(#linear-gradient-13);}.cls-23{fill:url(#linear-gradient-14);}.cls-25{opacity:0.71;}.cls-26{fill:url(#linear-gradient-15);}.cls-27{fill:url(#linear-gradient-16);}.cls-28,.cls-29{fill:url(#linear-gradient-17);}.cls-29,.cls-33{opacity:0.25;}.cls-30{fill:url(#linear-gradient-19);}.cls-31{fill:url(#linear-gradient-20);}.cls-32{fill:url(#linear-gradient-21);}.cls-33{fill:url(#linear-gradient-22);}.cls-34{fill:url(#linear-gradient-23);}.cls-35{fill:url(#linear-gradient-24);}.cls-36{fill:url(#linear-gradient-25);}.cls-37{fill:url(#linear-gradient-26);}.cls-38{fill:url(#linear-gradient-27);}.cls-39{fill:url(#linear-gradient-28);}.cls-40{fill:url(#linear-gradient-29);}.cls-41{fill:url(#linear-gradient-30);}.cls-42{fill:url(#linear-gradient-31);}.cls-43{fill:url(#linear-gradient-32);}.cls-44{fill:url(#linear-gradient-33);}.cls-45{fill:#c2c2c2;}.cls-46{fill:url(#linear-gradient-34);}.cls-47{fill:url(#linear-gradient-35);}.cls-48{fill:url(#linear-gradient-36);}.cls-49{fill:url(#linear-gradient-37);}.cls-50{fill:url(#linear-gradient-38);}.cls-51{fill:url(#linear-gradient-39);}.cls-52{fill:url(#linear-gradient-40);}.cls-53{fill:#d5dbe2;}.cls-54{fill:url(#linear-gradient-41);}.cls-55{fill:url(#linear-gradient-42);}.cls-56{fill:url(#linear-gradient-43);}.cls-57{fill:url(#linear-gradient-44);}</style><linearGradient id="linear-gradient" x1="2621.68" y1="680.9" x2="1951.04" y2="2414.83" gradientUnits="userSpaceOnUse"><stop offset="0" stop-color="#aa80f9"/><stop offset="1" stop-color="#6165d7"/></linearGradient><linearGradient id="linear-gradient-2" x1="2723.86" y1="1679.35" x2="2049.74" y2="2433.38" gradientUnits="userSpaceOnUse"><stop offset="0" stop-color="#e38ddd"/><stop offset="1" stop-color="#9571f6"/></linearGradient><clipPath id="clip-path" transform="translate(-483.18 -284.72)"><path class="cls-1" d="M1864.67,2347.62c-144.74-24-289.81-656.1-31.62-917.64,107.74-109.13,231.26-98.59,318-248.82,77.39-134.05,13.25-201.68,72.77-356.93,83.69-218.31,338.47-418.37,518.67-358.48,90.41,30.05,176.68,130.41,182.09,246.86,4.34,93.26-88.31,166.48-66.59,190,17.84,19.33,73.95-30.7,109.14-11.19,51.9,28.77,52.7,205.67-29,335.67-139.89,222.57-432.62,166.15-483.36,337.72-32.35,109.36,75.51,169.74,31,279.9-39.2,96.92-140.58,94.4-292.65,191.29C1954.84,2187.79,1942.26,2360.48,1864.67,2347.62Z"/></clipPath><clipPath id="clip-path-2" transform="translate(-483.18 -284.72)"><path class="cls-2" d="M1888.3,2495.1c5.08-294,61.71-510.11,110.23-648.5,38.08-108.64,102.24-258,186-259.93,40.13-.91,55.4,32.72,97.7,29.94,79.88-5.26,105.77-130.44,173.33-210.63,115.56-137.17,403.75-202.89,569.87-69.49,200,160.63,139.8,543.13-7,632.41-87,52.9-211.2,7.07-229.34,55.6-18.25,48.84,104,104.8,95,187.62-9.35,85.74-152.13,133.49-160.77,136.28-172.55,55.66-271.87-63.87-448.51-59.82C2179,2290.78,2046.13,2329.68,1888.3,2495.1Z"/></clipPath><linearGradient id="linear-gradient-5" x1="860.8" y1="927.71" x2="1520.76" y2="899.02" gradientUnits="userSpaceOnUse"><stop offset="0" stop-color="#ab316d"/><stop offset="1" stop-color="#792d3d"/></linearGradient><linearGradient id="linear-gradient-6" x1="791.82" y1="2002.44" x2="1409.06" y2="2002.44" gradientUnits="userSpaceOnUse"><stop offset="0" stop-color="#ff9085"/><stop offset="1" stop-color="#fb6fbb"/></linearGradient><linearGradient id="linear-gradient-7" x1="958.46" y1="2002.44" x2="1409.06" y2="2002.44" xlink:href="#linear-gradient-6"/><linearGradient id="linear-gradient-8" x1="1231.59" y1="1613.36" x2="2309.49" y2="3429.45" xlink:href="#linear-gradient-6"/><linearGradient id="linear-gradient-9" x1="1711.63" y1="1736.9" x2="2584.24" y2="3786.22" xlink:href="#linear-gradient-6"/><linearGradient id="linear-gradient-10" x1="1872.61" y1="329.58" x2="1585.68" y2="2778.71" xlink:href="#linear-gradient-5"/><linearGradient id="linear-gradient-11" x1="1540.46" y1="-51" x2="710.28" y2="1528.37" xlink:href="#linear-gradient-5"/><linearGradient id="linear-gradient-12" x1="2063.57" y1="244.85" x2="1233.39" y2="1824.21" xlink:href="#linear-gradient-5"/><linearGradient id="linear-gradient-13" x1="4629.15" y1="2180.15" x2="4126.35" y2="3029.33" gradientTransform="matrix(-1, 0, 0, 1, 6283.84, -284.72)" gradientUnits="userSpaceOnUse"><stop offset="0" stop-color="#ffc444"/><stop offset="0.31" stop-color="#fba94a"/><stop offset="1" stop-color="#f36f56"/></linearGradient><linearGradient id="linear-gradient-14" x1="4193.5" y1="2189.02" x2="3735.57" y2="2962.42" xlink:href="#linear-gradient-13"/><linearGradient id="linear-gradient-15" x1="2567.04" y1="1482.41" x2="2729.78" y2="1482.41" gradientTransform="matrix(-1, 0, 0, 1, 3682.38, 0)" gradientUnits="userSpaceOnUse"><stop offset="0" stop-color="#311944"/><stop offset="1" stop-color="#6b3976"/></linearGradient><linearGradient id="linear-gradient-16" x1="2652.94" y1="2809" x2="2928.08" y2="3068.74" gradientTransform="matrix(-0.99, -0.16, -0.16, 0.99, 3913.1, 205.62)" xlink:href="#linear-gradient-5"/><linearGradient id="linear-gradient-17" x1="2546.66" y1="2489.38" x2="2819.19" y2="2383.1" gradientTransform="matrix(-1, 0, 0, 1, 3682.38, 0)" gradientUnits="userSpaceOnUse"><stop offset="0" stop-color="#40447e"/><stop offset="1" stop-color="#3c3b6b"/></linearGradient><linearGradient id="linear-gradient-19" x1="2381.87" y1="1695.62" x2="2609.11" y2="1911.61" gradientTransform="matrix(-1, 0, 0, 1, 3682.38, 0)" xlink:href="#linear-gradient"/><linearGradient id="linear-gradient-20" x1="2233.79" y1="3167.72" x2="2226.47" y2="3529.27" gradientTransform="matrix(-0.98, -0.18, -0.18, 0.98, 3749, 160.68)" xlink:href="#linear-gradient-5"/><linearGradient id="linear-gradient-21" x1="2315.93" y1="2565.86" x2="2426.8" y2="2941.58" gradientTransform="matrix(-0.98, -0.18, -0.18, 0.98, 3749, 160.68)" xlink:href="#linear-gradient-17"/><linearGradient id="linear-gradient-22" x1="2758.84" y1="2197.3" x2="2872.34" y2="2581.95" xlink:href="#linear-gradient-17"/><linearGradient id="linear-gradient-23" x1="2821.22" y1="1800.41" x2="3446.48" y2="2196.61" gradientTransform="matrix(-1, -0.03, -0.03, 1, 3917.72, 118.86)" xlink:href="#linear-gradient"/><linearGradient id="linear-gradient-24" x1="-196.7" y1="-189.58" x2="-231.28" y2="-148.76" gradientTransform="translate(1272.57 1681.96) rotate(-69.82)" gradientUnits="userSpaceOnUse"><stop offset="0" stop-color="#ffc444"/><stop offset="1" stop-color="#f36f56"/></linearGradient><linearGradient id="linear-gradient-25" x1="-312.5" y1="-123.59" x2="-122.55" y2="-123.59" xlink:href="#linear-gradient-24"/><linearGradient id="linear-gradient-26" x1="-607.05" y1="-48.51" x2="-486.73" y2="-48.51" gradientTransform="matrix(-0.83, 0.56, 0.56, 0.83, 560.29, 2252.58)" gradientUnits="userSpaceOnUse"><stop offset="0" stop-color="#311944"/><stop offset="1" stop-color="#a03976"/></linearGradient><linearGradient id="linear-gradient-27" x1="-549.71" y1="2411.41" x2="-538.19" y2="2104.66" gradientTransform="translate(2366.81 -288.25) rotate(22.17)" gradientUnits="userSpaceOnUse"><stop offset="0" stop-color="#311944"/><stop offset="1" stop-color="#893976"/></linearGradient><linearGradient id="linear-gradient-28" x1="-43.46" y1="1991.47" x2="-49.63" y2="1815.77" gradientTransform="translate(1441.8 -233.11) rotate(11.89)" xlink:href="#linear-gradient-26"/><linearGradient id="linear-gradient-29" x1="2806.98" y1="1796.9" x2="3448.95" y2="2203.69" gradientTransform="matrix(-1, -0.03, -0.03, 1, 3917.72, 118.86)" xlink:href="#linear-gradient"/><linearGradient id="linear-gradient-30" x1="2798.02" y1="1761.64" x2="3128.73" y2="1971.19" gradientTransform="matrix(-1, 0, 0, 1, 3682.38, 0)" xlink:href="#linear-gradient"/><linearGradient id="linear-gradient-31" x1="1361.68" y1="3029.45" x2="1382.61" y2="3047.06" gradientTransform="matrix(-1, 0, 0, 1, 3682.38, 0)" xlink:href="#linear-gradient"/><linearGradient id="linear-gradient-32" x1="1375.25" y1="3069.45" x2="1450.94" y2="3069.45" gradientTransform="matrix(-1, 0, 0, 1, 3682.38, 0)" xlink:href="#linear-gradient"/><linearGradient id="linear-gradient-33" x1="1397.24" y1="3070.45" x2="1428.95" y2="3070.45" xlink:href="#linear-gradient-17"/><linearGradient id="linear-gradient-34" x1="1766.84" y1="2985.8" x2="1787.77" y2="3003.4" gradientTransform="matrix(-1, 0, 0, 1, 3682.38, 0)" xlink:href="#linear-gradient"/><linearGradient id="linear-gradient-35" x1="1780.42" y1="3025.8" x2="1856.1" y2="3025.8" gradientTransform="matrix(-1, 0, 0, 1, 3682.38, 0)" xlink:href="#linear-gradient"/><linearGradient id="linear-gradient-36" x1="1802.4" y1="3026.8" x2="1834.11" y2="3026.8" xlink:href="#linear-gradient-17"/><linearGradient id="linear-gradient-37" x1="2359.19" y1="2085.48" x2="2725.42" y2="2085.48" xlink:href="#linear-gradient-17"/><linearGradient id="linear-gradient-38" x1="1717.15" y1="3165.22" x2="1738.08" y2="3182.83" gradientTransform="matrix(-1, 0, 0, 1, 3682.38, 0)" xlink:href="#linear-gradient"/><linearGradient id="linear-gradient-39" x1="1730.72" y1="3205.22" x2="1806.41" y2="3205.22" gradientTransform="matrix(-1, 0, 0, 1, 3682.38, 0)" xlink:href="#linear-gradient"/><linearGradient id="linear-gradient-40" x1="1752.71" y1="3206.22" x2="1784.42" y2="3206.22" xlink:href="#linear-gradient-17"/><linearGradient id="linear-gradient-41" x1="2067.93" y1="3130.1" x2="2088.87" y2="3147.71" gradientTransform="matrix(-1, 0, 0, 1, 3682.38, 0)" xlink:href="#linear-gradient"/><linearGradient id="linear-gradient-42" x1="2081.51" y1="3170.1" x2="2157.19" y2="3170.1" gradientTransform="matrix(-1, 0, 0, 1, 3682.38, 0)" xlink:href="#linear-gradient"/><linearGradient id="linear-gradient-43" x1="2103.49" y1="3171.1" x2="2135.2" y2="3171.1" xlink:href="#linear-gradient-17"/><linearGradient id="linear-gradient-44" x1="2470.96" y1="2007.43" x2="2431.62" y2="2068.24" gradientTransform="matrix(-1, 0, 0, 1, 3682.38, 0)" xlink:href="#linear-gradient-26"/></defs><title>cart-empty</title><g class="cls-3"><g id="Illustration"><path class="cls-4" d="M1166.43,617.39c-95.66,133.93,12.54,353.83-128.37,453.83-137.17,97.34-302.7-66.33-431.88,17.35-191.65,124.12-163,701.63,111.52,1063.14,82.54,108.72,152,151.42,181.7,273.7,63.74,262.58-171.59,415.91-128.48,545.9C868,3264,2405.41,3524.92,3032.55,2655c292.9-406.31,342.3-997,89.18-1448.61C2664.33,390.21,1381.09,316.88,1166.43,617.39Z" transform="translate(-483.18 -284.72)"/><path class="cls-1" d="M1864.67,2347.62c-144.74-24-289.81-656.1-31.62-917.64,107.74-109.13,231.26-98.59,318-248.82,77.39-134.05,13.25-201.68,72.77-356.93,83.69-218.31,338.47-418.37,518.67-358.48,90.41,30.05,176.68,130.41,182.09,246.86,4.34,93.26-88.31,166.48-66.59,190,17.84,19.33,73.95-30.7,109.14-11.19,51.9,28.77,52.7,205.67-29,335.67-139.89,222.57-432.62,166.15-483.36,337.72-32.35,109.36,75.51,169.74,31,279.9-39.2,96.92-140.58,94.4-292.65,191.29C1954.84,2187.79,1942.26,2360.48,1864.67,2347.62Z" transform="translate(-483.18 -284.72)"/><g class="cls-5"><g class="cls-6"><path class="cls-7" d="M1872.87,2481.28a7.33,7.33,0,0,1-6-12.1c1-4.31,1.25-18.95,1.55-35.74,1.62-94.47,5.95-345.43,140-716.39C2177,1250.5,2485.49,769.4,2925.31,287.11a7.33,7.33,0,0,1,10.83,9.87C2463.6,815.15,1897.32,1606.46,1883.05,2433.69c-.64,37.43-.76,44.17-7.89,47.07A7.45,7.45,0,0,1,1872.87,2481.28Z" transform="translate(-483.18 -284.72)"/><path class="cls-7" d="M2252.71,1237.15a7.33,7.33,0,0,1-1.32-14.59c330.87-38.88,537.41-108.21,652.41-159.52,124.53-55.57,171.46-102.54,171.92-103a7.33,7.33,0,0,1,10.48,10.24c-1.92,2-48.57,48.9-175,105.53-116,52-324.39,122.1-658.05,161.3Z" transform="translate(-483.18 -284.72)"/><path class="cls-7" d="M2441.05,916.86a7.27,7.27,0,0,1-4.42-1.15c-76.71-49.21-111.2-165.61-102.51-346,6.4-132.94,35.2-253.36,35.5-254.56a7.32,7.32,0,1,1,14.24,3.44c-1.14,4.73-112.15,473.88,60.68,584.75a7.32,7.32,0,0,1-3.49,13.48Z" transform="translate(-483.18 -284.72)"/><path class="cls-7" d="M1987.17,1810.13a7.36,7.36,0,0,1-5.86-2.35c-97.73-105.85-122.4-258.23-125.88-367.41-3.76-117.82,15.68-212.2,15.87-213.14a7.33,7.33,0,1,1,14.35,3c-.19.92-19.31,93.86-15.56,210,3.44,106.59,27.4,255.15,122,357.61a7.33,7.33,0,0,1-4.91,12.29Z" transform="translate(-483.18 -284.72)"/></g></g><path class="cls-2" d="M1888.3,2495.1c5.08-294,61.71-510.11,110.23-648.5,38.08-108.64,102.24-258,186-259.93,40.13-.91,55.4,32.72,97.7,29.94,79.88-5.26,105.77-130.44,173.33-210.63,115.56-137.17,403.75-202.89,569.87-69.49,200,160.63,139.8,543.13-7,632.41-87,52.9-211.2,7.07-229.34,55.6-18.25,48.84,104,104.8,95,187.62-9.35,85.74-152.13,133.49-160.77,136.28-172.55,55.66-271.87-63.87-448.51-59.82C2179,2290.78,2046.13,2329.68,1888.3,2495.1Z" transform="translate(-483.18 -284.72)"/><g class="cls-8"><g class="cls-9"><path class="cls-10" d="M1806.06,2715.48l4.33,1.14C1985.46,2049.36,2537.44,1558.28,3286.94,1403l-.91-4.39c-355.21,73.61-678.19,228.92-934,449.15C2083,2079.26,1894.25,2379.32,1806.06,2715.48Z" transform="translate(-483.18 -284.72)"/><path class="cls-10" d="M1817.6,1693.55c92.75,164.31,153,458.07,134.26,654.84l4.45.42c18.8-197.54-41.68-492.47-134.81-657.46Z" transform="translate(-483.18 -284.72)"/><path class="cls-10" d="M1841.92,2584.89l3.85,2.29c52.6-88.26,147.79-146.54,282.93-173.22,99.1-19.56,217-22,350.34-7.23l.49-4.46c-133.82-14.81-252.15-12.36-351.69,7.3C1991.39,2436.5,1895.2,2495.49,1841.92,2584.89Z" transform="translate(-483.18 -284.72)"/><path class="cls-10" d="M2389.53,1817.88l3.72,2.49c107.7-161.26,104.44-365.16,82.75-507.8l-4.44.67C2493.14,1455.11,2496.42,1657.81,2389.53,1817.88Z" transform="translate(-483.18 -284.72)"/><path class="cls-10" d="M2762.27,1576.82l1.19,4.32c210.59-58.11,423.41,27.28,531.52,83.35l2.06-4C3188.35,1604.14,2974.33,1518.3,2762.27,1576.82Z" transform="translate(-483.18 -284.72)"/></g></g><path class="cls-11" d="M1971,1259.17c-9.52,0-17.66-7.78-18.59-18.17C1936,1056.52,1880,881.24,1794.69,747.44,1719.11,628.91,1629.13,558.17,1554,558.17h-.25c-273.83.58-331.11,675.82-331.65,682.65-.89,11-9.9,19.23-20.23,18.28s-17.91-10.68-17-21.72c2.34-29.35,61-718.72,368.83-719.36h.32c88.83,0,187.8,75.32,271.59,206.73,88.83,139.32,147.09,321.3,164,512.44,1,11-6.56,20.84-16.83,21.9C1972.15,1259.15,1971.55,1259.17,1971,1259.17Z" transform="translate(-483.18 -284.72)"/><path class="cls-12" d="M830.19,2648.89l360.47,196,218.4-719.85L1049.19,1160l-102,26.87-154.83,1386C788.81,2604.24,804,2634.62,830.19,2648.89Z" transform="translate(-483.18 -284.72)"/><path class="cls-13" d="M1409.06,2125.05,1049.19,1160,989,1175.84A2258.47,2258.47,0,0,0,990,1488c24.13,328.57,104.25,420,65.43,649.23-32.27,190.59-102.75,216.46-96.59,344.69,6.72,139.65,97.4,256.6,205.23,348.57l26.6,14.46Z" transform="translate(-483.18 -284.72)"/><polygon class="cls-14" points="566.01 875.27 1923.45 949.17 2354.84 2417.61 707.48 2560.18 566.01 875.27"/><g class="cls-15"><path class="cls-16" d="M2406.63,1233.89l-707.91-38.54c-12,18.78-27.77,49.38-30.72,88.41-17.43,230.87,459,305.61,501.64,589,32.49,215.75-167.45,464.7-345.85,575.61-188,116.85-315.32,57.67-442.44,187.4-55.85,57-89.86,128.28-110.09,202.16L2838,2702.33Z" transform="translate(-483.18 -284.72)"/></g><path class="cls-17" d="M1465.55,1292.18c-8.49,0-16.17-6.24-18.19-15.5-3.82-17.49-92.12-430.77,32.39-633.59,35.69-58.13,85.54-93.62,148.19-105.49,321.86-60.91,520,681.6,528.31,713.24,2.79,10.67-3,21.76-12.94,24.76s-20.26-3.23-23.06-13.9c-1.94-7.39-197-739.32-485.82-684.55-52.86,10-93.24,38.82-123.47,88.05-115.74,188.53-28.09,598.2-27.2,602.31,2.36,10.8-3.88,21.6-13.93,24.14A17.54,17.54,0,0,1,1465.55,1292.18Z" transform="translate(-483.18 -284.72)"/><ellipse class="cls-18" cx="982.5" cy="1010.49" rx="52.25" ry="56.12"/><ellipse class="cls-19" cx="1663.85" cy="1005.28" rx="52.25" ry="56.12"/><path class="cls-20" d="M2510.51,1940.49l-421.44-410.95a29.56,29.56,0,0,0-32.72-6.23l-224.91,98.19c-19,8.27-25.48,33.57-13.2,51.15l367.06,525.54c10.14,14.53,29.21,17.73,43,7.23l279.29-212.79C2523.85,1980.24,2525.27,1954.88,2510.51,1940.49ZM2028.59,1674c-14.2,10.26-36.58,1.21-50-20.21s-12.76-47.1,1.44-57.35,36.58-1.2,50,20.21S2042.79,1663.75,2028.59,1674Z" transform="translate(-483.18 -284.72)"/><path class="cls-4" d="M2510.51,1934.88l-421.44-410.95a29.56,29.56,0,0,0-32.72-6.23l-224.91,98.19c-19,8.27-25.48,33.57-13.2,51.15l367.06,525.54c10.14,14.53,29.21,17.73,43,7.23L2507.59,1987C2523.85,1974.63,2525.27,1949.27,2510.51,1934.88ZM2028.59,1668.4c-14.2,10.25-36.58,1.2-50-20.22s-12.76-47.1,1.44-57.35,36.58-1.2,50,20.22S2042.79,1658.14,2028.59,1668.4Z" transform="translate(-483.18 -284.72)"/><path class="cls-21" d="M1941,1567.47a3.46,3.46,0,0,1-3.18-2.1c-14.6-34.42-34.29-64.15-58.53-88.37-66.41-66.35-152.17-76.78-235.1-86.87-82.53-10-160.48-19.52-207-85.19-11.79-16.63-30.1-46.67-20.28-61.13,4-5.8,11.81-8.47,23.37-7.92a3.46,3.46,0,0,1-.33,6.91c-6.19-.29-14.21.32-17.32,4.89-5.21,7.69,2.71,28.58,20.2,53.25,44.79,63.17,121.27,72.48,202.23,82.33,84.1,10.23,171.06,20.81,239.16,88.84,24.87,24.85,45.06,55.32,60,90.56a3.45,3.45,0,0,1-1.83,4.53A3.39,3.39,0,0,1,1941,1567.47Z" transform="translate(-483.18 -284.72)"/><path class="cls-21" d="M1977,1637a3.46,3.46,0,0,1-2.44-5.91c.29-.29,29.15-29.49,29-68.44-.09-23.93-11-46.7-32.35-67.7-45.34-44.52-165.63-96.08-271.76-141.58-64.78-27.76-126-54-166.15-76.61-9.11-5.13-18.75-10-28.65-14.47a3.46,3.46,0,0,1,2.85-6.3c10.08,4.56,19.9,9.52,29.19,14.75,39.86,22.43,100.88,48.59,165.48,76.28,106.69,45.73,227.62,97.57,273.88,143,22.77,22.36,34.35,46.81,34.42,72.67.12,41.87-29.77,72-31,73.3A3.47,3.47,0,0,1,1977,1637Z" transform="translate(-483.18 -284.72)"/><path class="cls-7" d="M2510.51,1934.88l-421.44-410.95a29.56,29.56,0,0,0-32.72-6.23l-20,8.74a291.38,291.38,0,0,0,25,62.53c62.25,114.16,164.38,109.23,188,188.45,20.91,70.21-49.24,107.88-58.48,206.4-4.62,49.22,5.92,114.7,62.41,197L2507.59,1987C2523.85,1974.63,2525.27,1949.27,2510.51,1934.88Z" transform="translate(-483.18 -284.72)"/><path class="cls-20" d="M2188.82,2085.46a16.51,16.51,0,0,1-14.3-8.64c-4.78-8.47-2.27-19.51,5.62-24.66l203-132.32c7.89-5.14,18.17-2.44,23,6s2.27,19.51-5.62,24.65l-202.95,132.33A15.76,15.76,0,0,1,2188.82,2085.46Z" transform="translate(-483.18 -284.72)"/><polygon class="cls-22" points="1581.93 2574.78 2102.33 2611.38 2102.33 1849.19 1581.93 1885.79 1581.93 2574.78"/><polygon class="cls-23" points="2102.33 2611.38 2493.2 2559.22 2493.2 1897.85 2102.33 1849.19 2102.33 2611.38"/><polygon class="cls-24" points="1918.11 1862.14 1918.11 2171.41 1743.74 2171.41 1743.74 1874.41 1918.11 1862.14"/><g class="cls-25"><path class="cls-24" d="M2804.23,2528.57c-17.72-94.62-84.95-142.24-97.56-266.83a394.34,394.34,0,0,1,5-112.13l264.71,32.95v661.38l-323.58,43.18C2796.81,2727.26,2819.72,2611.3,2804.23,2528.57Z" transform="translate(-483.18 -284.72)"/></g><path class="cls-26" d="M998.74,1535.85a84.72,84.72,0,0,1-29.64-24.53c-10.75-14.31-22.24-39.57-13.29-50.08,4.3-5,10.16-3,22.49-5.11,25.65-4.37,32.56-18.66,49-24.52,36.24-12.89,90.69,24.82,87.9,43.94-1.17,8-12.26,12.71-32.71,21.46-21,9-29.4,7.86-47,15.33A135.11,135.11,0,0,0,998.74,1535.85Z" transform="translate(-483.18 -284.72)"/><path class="cls-27" d="M658.79,2666.68l-3.52-6.11s-6.33-3.79-9.32,4-20,48.78-20.87,67.35c4.46,11.11,17.06,1.7,19.66-5.86s11.6-35.56,11.6-35.56Z" transform="translate(-483.18 -284.72)"/><path class="cls-28" d="M698.86,2695.9c-5.26-.07-10.49,0-15.79-.27q-14.49-.65-29.11-2.1l4.89-30.41q7.46-2.85,14.57-5.71c2.43-1,4.75-2,7.12-2.94s4.52-1.84,6.7-2.77c3.22-1.36,6.32-2.73,9.43-4.1l3.74-1.63c3.64-1.63,7.19-3.27,10.69-4.9l1.79-.83c3.79-1.79,7.48-3.58,11.1-5.37l.8-.39c3.82-1.89,7.53-3.79,11.16-5.69l.15-.08q11.08-5.8,21-11.64h0c82.38-48.14,109.63-97,118-135.46,23.62-108.15-92-177.6-62.15-294.88,22.51-88.37,117.51-164,176-146.4,66.07,19.93,76.42,148,82.79,226.79,7.18,88.74,15.17,187.59-41.58,276.13-53.74,83.85-150.82,135.45-262.53,149.18v0c-2.65.32-5.37.47-8.05.75-6.47.69-12.94,1.41-19.51,1.84-3,.2-6.06.21-9.08.36-6.4.3-12.78.66-19.25.72C707.52,2696.17,703.18,2696,698.86,2695.9Z" transform="translate(-483.18 -284.72)"/><path class="cls-29" d="M698.86,2695.9c-5.26-.07-10.49,0-15.79-.27q-14.49-.65-29.11-2.1l4.89-30.41q7.46-2.85,14.57-5.71c2.43-1,4.75-2,7.12-2.94s4.52-1.84,6.7-2.77c3.22-1.36,6.32-2.73,9.43-4.1l3.74-1.63c3.64-1.63,7.19-3.27,10.69-4.9l1.79-.83c3.79-1.79,7.48-3.58,11.1-5.37l.8-.39c3.82-1.89,7.53-3.79,11.16-5.69l.15-.08q11.08-5.8,21-11.64h0c82.38-48.14,109.63-97,118-135.46,23.62-108.15-92-177.6-62.15-294.88,22.51-88.37,117.51-164,176-146.4,66.07,19.93,76.42,148,82.79,226.79,7.18,88.74,15.17,187.59-41.58,276.13-53.74,83.85-150.82,135.45-262.53,149.18v0c-2.65.32-5.37.47-8.05.75-6.47.69-12.94,1.41-19.51,1.84-3,.2-6.06.21-9.08.36-6.4.3-12.78.66-19.25.72C707.52,2696.17,703.18,2696,698.86,2695.9Z" transform="translate(-483.18 -284.72)"/><path class="cls-30" d="M1236.86,2067.28c12.63-20-46.26-49.6-65.4-131.83-16.17-69.43,16.81-87-1.18-180-10-51.77-27.13-81.83-47.07-103.66-16.43-18-37.78-41.35-57-38.3-60.34,9.58-131.81,284-11.24,403.69C1116.9,2078.7,1221.63,2091.45,1236.86,2067.28Z" transform="translate(-483.18 -284.72)"/><path class="cls-31" d="M920.16,2936.22c2.74-6.33,17.84,9.58,31.91,26.37l-5.43,72.53c5-3.18,11.29-6.65,18.39-8.29,8.54-2,23.3,1.11,24.43,5.19,7,25.19-55.82,30.69-62.7,22.78a22.41,22.41,0,0,1-5.31-17.18c6.37-36.31,5.53-60.89,2.5-77.87C921.83,2947.83,918.64,2939.72,920.16,2936.22Z" transform="translate(-483.18 -284.72)"/><path class="cls-32" d="M759.21,2125.46c35.85-52.85,70.8-106.32,105.83-159.72,6.88-10.49,10.87-22.66,12.79-35.44A245.09,245.09,0,0,1,917.34,1970c9.87,49.46,25.1,123.81,45.2,213.93,51.08,229,72.58,286.34,83.41,358.37,16.67,110.83,10.76,274.12-99.31,492.8l-25.19,2.5c-17.7-187-38-355.87-48.23-442.62-3.48-29.44-13.73-117.74-61-188.87-.76-1.15-70.72-96.81-94.86-135-8-12.73-18.09-29.23-29.51-51.31C714.94,2191.31,736.66,2158.71,759.21,2125.46Z" transform="translate(-483.18 -284.72)"/><path class="cls-33" d="M759.21,2125.46c35.85-52.85,70.8-106.32,105.83-159.72,6.88-10.49,10.87-22.66,12.79-35.44A245.09,245.09,0,0,1,917.34,1970c15.64,60.47,26.79,112.2,34.59,151.75,21.64,109.71,20.41,140.05,4.91,167.29-21.32,37.44-45.86,27.31-61.44,59.9-27.31,57.14,45.81,96.18,45.14,206.37-.37,61.1-22.22,76.43-12.27,132.51,2.57,14.48,9.84,46.28,6.63,90-1.41,19.18-3,15-4.14,32.35-3.34,49.39,8.44,94.8,3.33,125.64a72.73,72.73,0,0,1-7.07,21.64,70.06,70.06,0,0,1-11.78,16.32c-16-161-33-302-42-378.77-3.48-29.44-13.73-117.74-61-188.87-.76-1.15-70.72-96.81-94.86-135-8-12.73-18.09-29.23-29.51-51.31C714.94,2191.31,736.66,2158.71,759.21,2125.46Z" transform="translate(-483.18 -284.72)"/><path class="cls-34" d="M1130.19,1663.28c22.53,41.33,20,82.48,17.5,100.5-7.42,54.18-39.08,90.29-49.7,103.94-35.64,45.78-63.43,136.32-19.19,334.81-24.82-4-65.66-7.81-113.25,2.11-121,25.23-169.35,115.11-227.42,98.72-21.44-6-50.55-28.37-70.86-111.73-17.74-43.35-73-193.76-16.35-370.64,40.54-126.52,118.53-204.66,157.16-238.65,33.22-11.19,136.92-41.42,235.59,6.36C1068.25,1600.6,1106.45,1619.75,1130.19,1663.28Z" transform="translate(-483.18 -284.72)"/><path class="cls-35" d="M1016.88,1919.59l92.57-32.69a5.85,5.85,0,0,0,3.69-3.54l15.35-41.77a5.83,5.83,0,0,0-6.7-7.71l-87,18.81c-2,.43-6.42,1.72-7.78,5.42l-17.22,50.94C1008.24,1913.59,1012.3,1921.06,1016.88,1919.59Z" transform="translate(-483.18 -284.72)"/><path class="cls-36" d="M1018.3,1920.12l89.45-28.61a5.84,5.84,0,0,0,3.7-3.54l15.35-41.77a5.83,5.83,0,0,0-6.71-7.71l-87,18.81a5.81,5.81,0,0,0-4.27,3.79L1011,1912.67A5.83,5.83,0,0,0,1018.3,1920.12Z" transform="translate(-483.18 -284.72)"/><path class="cls-37" d="M977.74,1892.18l10-4.76s15.73-11.52,26.31-16.16,19.13-3.54,25.68,6.24-4.57,19-14.12,27.06c-5.81,4.92-17.92,5.36-27.73,4.83-6.89-.36-20.68,4.41-20.68,4.41Z" transform="translate(-483.18 -284.72)"/><path class="cls-38" d="M996.66,1499.54c0,8.73-.3,55.49-21.08,63.17-4.54,1.67-8.18.6-28.33,1.13-11.48.3-20.82.91-26.84,1.38a147.48,147.48,0,0,0,7.3,30.66c25.85,72.74,109.52,123.28,137.87,105.07,14.76-9.48,15.9-37.91,16.37-49.71a99.14,99.14,0,0,0-6.68-39.8q-15.57-11.31-31.86-22.66-10.64-7.41-21.16-14.52.71-13.42,1.42-26.84Q1010.17,1523.48,996.66,1499.54Z" transform="translate(-483.18 -284.72)"/><path class="cls-39" d="M987.6,1516.79s-.1,38.48,30.62,51c27.51,11.21,63.59-53.37,52.72-74.33-3.63-7-14.49-15.2-25-17.1-7.4-1.34-38.08-1.52-46.77,22.59-2.59-7.62-7.74-12.56-13-12.62a10.13,10.13,0,0,0-5.24,1.74C973.84,1493.08,975.85,1504.83,987.6,1516.79Z" transform="translate(-483.18 -284.72)"/><path class="cls-40" d="M650.92,1821c31.72-99,86.29-168.23,127.08-210,46.75,30.9,94.31,72.77,90.34,117.67-4.52,51.1-72.77,72.21-66.4,104.52,9.24,46.83,157.92,29.09,175.27,80.63,20.45,60.73-155.85,175-146.42,187.89,6.75,9.25,87.83-56.11,179.87-40.88,17.86,3,33.86,9.92,48.11,19.09,3.28,35.5,9.65,76.06,20,122.63-24.82-4-65.66-7.81-113.25,2.11-121,25.23-169.35,115.11-227.42,98.72-21.44-6-50.55-28.37-70.86-111.73C649.53,2148.28,594.24,1997.87,650.92,1821Z" transform="translate(-483.18 -284.72)"/><path class="cls-41" d="M873.9,1585.83c-28.1-7-28.24-16.14-65.82-3.49-107.91,36.32-222.14,199.17-163.1,314.17,32.83,64,111.52,121.64,198.26,108.33,70.62-10.83,112.1-63.41,122.64-77.67q6.14-24.53,12.26-49.05c-46,26.08-78.43,26.08-100.15,20.44-37-9.6-45.19-36.1-106.29-59.28-23.8-9-38.1-10.91-38.83-18.4-1.51-15.48,58.33-20.65,96.06-53.14C856.44,1744.06,883.88,1695.78,873.9,1585.83Z" transform="translate(-483.18 -284.72)"/><path class="cls-42" d="M2242,3063.83c0,27.49,16.95,49.78,37.85,49.78s37.84-22.29,37.84-49.78-16.94-49.78-37.84-49.78S2242,3036.33,2242,3063.83Z" transform="translate(-483.18 -284.72)"/><path class="cls-43" d="M2231.44,3069.45c0,27.49,16.95,49.78,37.85,49.78s37.84-22.29,37.84-49.78-16.94-49.78-37.84-49.78S2231.44,3042,2231.44,3069.45Z" transform="translate(-483.18 -284.72)"/><path class="cls-44" d="M2253.43,3070.45c0,11.52,7.1,20.86,15.86,20.86s15.86-9.34,15.86-20.86-7.1-20.86-15.86-20.86S2253.43,3058.93,2253.43,3070.45Z" transform="translate(-483.18 -284.72)"/><path class="cls-45" d="M2279.83,3008.68v54.67a14.54,14.54,0,0,1-14.53,14.53h0a14.56,14.56,0,0,1-11.74-6l-49.16-67.32Z" transform="translate(-483.18 -284.72)"/><path class="cls-46" d="M1836.82,3020.17c0,27.5,17,49.79,37.85,49.79s37.84-22.29,37.84-49.79-16.94-49.78-37.84-49.78S1836.82,2992.68,1836.82,3020.17Z" transform="translate(-483.18 -284.72)"/><path class="cls-47" d="M1826.28,3025.79c0,27.5,16.94,49.79,37.84,49.79s37.85-22.29,37.85-49.79S1885,2976,1864.12,2976,1826.28,2998.3,1826.28,3025.79Z" transform="translate(-483.18 -284.72)"/><path class="cls-48" d="M1848.27,3026.8c0,11.52,7.1,20.86,15.86,20.86s15.86-9.34,15.86-20.86-7.1-20.86-15.86-20.86S1848.27,3015.28,1848.27,3026.8Z" transform="translate(-483.18 -284.72)"/><path class="cls-45" d="M1874.67,2965v54.67a14.54,14.54,0,0,1-14.53,14.53h0a14.56,14.56,0,0,1-11.74-6L1799.24,2961Z" transform="translate(-483.18 -284.72)"/><path class="cls-7" d="M2285.48,3017.18a9.93,9.93,0,0,0,1.1-19.79l-479.81-54.06c-26.12-4.5-47.89-24.34-54.92-50.49l-201-748.3a96.69,96.69,0,0,0-86.7-71.35l-146-8.7a9.92,9.92,0,0,0-1.18,19.81l145.85,8.7a76.79,76.79,0,0,1,68.81,56.69l201,748.3a89.76,89.76,0,0,0,71.3,65l480.38,54.15A10.51,10.51,0,0,0,2285.48,3017.18Z" transform="translate(-483.18 -284.72)"/><path class="cls-7" d="M1951.67,2722.61a9.92,9.92,0,0,0,9.53-7.2l113-395.36a9.92,9.92,0,0,0-19.08-5.46l-113,395.36a9.92,9.92,0,0,0,6.81,12.27A10,10,0,0,0,1951.67,2722.61Z" transform="translate(-483.18 -284.72)"/><path class="cls-7" d="M1836.08,2706.08a9.93,9.93,0,0,0,9.76-8.19l69.69-391.63a9.92,9.92,0,1,0-19.54-3.48l-69.69,391.63a9.93,9.93,0,0,0,8,11.51A9.5,9.5,0,0,0,1836.08,2706.08Z" transform="translate(-483.18 -284.72)"/><path class="cls-7" d="M1764.26,2693.24h.42a9.93,9.93,0,0,0,9.5-10.33l-16.08-387.48a9.73,9.73,0,0,0-10.33-9.51,9.92,9.92,0,0,0-9.5,10.33l16.08,387.49A9.93,9.93,0,0,0,1764.26,2693.24Z" transform="translate(-483.18 -284.72)"/><path class="cls-7" d="M2109.33,2737.07a10,10,0,0,0,9.41-6.77l132.66-395.53a9.92,9.92,0,1,0-18.82-6.31L2099.92,2724a9.93,9.93,0,0,0,6.25,12.57A10.24,10.24,0,0,0,2109.33,2737.07Z" transform="translate(-483.18 -284.72)"/><path class="cls-49" d="M976.79,2118.76c.55,0,1.09,0,1.65-.07L1305,2091.84a19.85,19.85,0,0,0-3.25-39.56l-326.53,26.85a19.85,19.85,0,0,0,1.6,39.63Z" transform="translate(-483.18 -284.72)"/><path class="cls-50" d="M1886.52,3199.6c0,27.49,16.94,49.78,37.84,49.78s37.84-22.29,37.84-49.78-16.94-49.78-37.84-49.78S1886.52,3172.1,1886.52,3199.6Z" transform="translate(-483.18 -284.72)"/><path class="cls-51" d="M1876,3205.22c0,27.49,17,49.78,37.85,49.78s37.84-22.29,37.84-49.78-16.94-49.78-37.84-49.78S1876,3177.72,1876,3205.22Z" transform="translate(-483.18 -284.72)"/><path class="cls-52" d="M1898,3206.22c0,11.52,7.1,20.86,15.86,20.86s15.86-9.34,15.86-20.86-7.1-20.86-15.86-20.86S1898,3194.7,1898,3206.22Z" transform="translate(-483.18 -284.72)"/><path class="cls-53" d="M1924.36,3144.45v54.67a14.54,14.54,0,0,1-14.53,14.53h0a14.56,14.56,0,0,1-11.74-6l-49.16-67.32Z" transform="translate(-483.18 -284.72)"/><path class="cls-54" d="M1535.73,3164.48c0,27.49,17,49.78,37.85,49.78s37.84-22.29,37.84-49.78-16.94-49.78-37.84-49.78S1535.73,3137,1535.73,3164.48Z" transform="translate(-483.18 -284.72)"/><path class="cls-55" d="M1525.19,3170.1c0,27.49,16.94,49.78,37.84,49.78s37.85-22.29,37.85-49.78-17-49.78-37.85-49.78S1525.19,3142.61,1525.19,3170.1Z" transform="translate(-483.18 -284.72)"/><path class="cls-56" d="M1547.18,3171.1c0,11.52,7.1,20.86,15.86,20.86s15.86-9.34,15.86-20.86-7.1-20.86-15.86-20.86S1547.18,3159.58,1547.18,3171.1Z" transform="translate(-483.18 -284.72)"/><path class="cls-53" d="M1573.58,3109.34V3164a14.53,14.53,0,0,1-14.54,14.53h0a14.5,14.5,0,0,1-11.73-6l-49.16-67.32Z" transform="translate(-483.18 -284.72)"/><path class="cls-7" d="M2434.76,2350.6a9.92,9.92,0,0,0,.7-19.82l-854.54-61.51a11.11,11.11,0,0,0-2.38.11l-353.77,60.26a9.93,9.93,0,0,0,3.34,19.57l352.58-60.06L2434,2350.58Z" transform="translate(-483.18 -284.72)"/><path class="cls-53" d="M2144.39,2438.76a10,10,0,0,0,2.88-.43l290.36-88.15a9.93,9.93,0,0,0-5.77-19l-288.47,87.59-916-89.22a9.92,9.92,0,0,0-1.93,19.75l918,89.41A8,8,0,0,0,2144.39,2438.76Z" transform="translate(-483.18 -284.72)"/><path class="cls-45" d="M1337,2750.67a9.83,9.83,0,0,0,1.52-.12l348.11-53.41,529.62,51a9.93,9.93,0,1,0,1.9-19.76l-530.85-51.1a10,10,0,0,0-2.45.08l-349.34,53.59a9.93,9.93,0,0,0,1.49,19.74Z" transform="translate(-483.18 -284.72)"/><path class="cls-53" d="M1968.18,2810.68a9.93,9.93,0,0,0,9-5.67l176.22-371.92a9.93,9.93,0,0,0-17.94-8.5l-173.24,365.63-624.26-59.36a9.92,9.92,0,0,0-1.88,19.76l631.19,60C1967.55,2810.67,1967.86,2810.68,1968.18,2810.68Z" transform="translate(-483.18 -284.72)"/><path class="cls-53" d="M1968.16,2810.68a10.17,10.17,0,0,0,2.43-.3l249-62.52a9.91,9.91,0,0,0,6.29-4.86l217.57-397.56a9.92,9.92,0,1,0-17.41-9.52l-215.49,393.75-244.8,61.46a9.93,9.93,0,0,0,2.41,19.55Z" transform="translate(-483.18 -284.72)"/><path class="cls-53" d="M2080.3,2574a9.81,9.81,0,0,0,2.79-.41l273.46-80.15a9.92,9.92,0,1,0-5.59-19l-271.66,79.62-807.5-70.42a9.81,9.81,0,0,0-10.74,9,9.92,9.92,0,0,0,9,10.75L2079.43,2574C2079.72,2574,2080,2574,2080.3,2574Z" transform="translate(-483.18 -284.72)"/><path class="cls-53" d="M2013.48,2715a9.74,9.74,0,0,0,2.68-.37l262-73.39a9.92,9.92,0,1,0-5.35-19.11l-260.24,72.9-701.2-61.34a9.92,9.92,0,0,0-1.72,19.77l703,61.5A8.38,8.38,0,0,0,2013.48,2715Z" transform="translate(-483.18 -284.72)"/><path class="cls-53" d="M1839.29,2798.43a9.93,9.93,0,0,0,9.5-7.09l112.38-377a9.92,9.92,0,0,0-19-5.67l-112.38,377a9.95,9.95,0,0,0,9.52,12.76Z" transform="translate(-483.18 -284.72)"/><path class="cls-53" d="M1715,2786.61a9.94,9.94,0,0,0,9.77-8.2l67.4-382a9.93,9.93,0,0,0-19.55-3.45l-67.4,382a9.93,9.93,0,0,0,8,11.5A10.2,10.2,0,0,0,1715,2786.61Z" transform="translate(-483.18 -284.72)"/><path class="cls-53" d="M1574.77,2770.65a9.92,9.92,0,0,0,9.9-9.37L1605.91,2382a9.93,9.93,0,1,0-19.82-1.12l-21.24,379.29a9.94,9.94,0,0,0,9.35,10.47Z" transform="translate(-483.18 -284.72)"/><path class="cls-53" d="M1441.92,2755.78l.53,0a9.91,9.91,0,0,0,9.39-10.42L1431.63,2360a9.92,9.92,0,1,0-19.82,1L1432,2746.37A9.93,9.93,0,0,0,1441.92,2755.78Z" transform="translate(-483.18 -284.72)"/><path class="cls-53" d="M2043.47,2791.77a9.92,9.92,0,0,0,9-5.62l181.63-377.52a9.92,9.92,0,0,0-17.88-8.61l-181.63,377.53a9.91,9.91,0,0,0,8.93,14.22Z" transform="translate(-483.18 -284.72)"/><path class="cls-53" d="M2144.38,2766.43a9.93,9.93,0,0,0,8.89-5.49l192.8-386.21a9.92,9.92,0,1,0-17.75-8.87l-192.81,386.22a9.92,9.92,0,0,0,8.87,14.35Z" transform="translate(-483.18 -284.72)"/><path class="cls-53" d="M1926.26,3159.74a10,10,0,0,0,3.66-.7l359.2-142.56a9.92,9.92,0,0,0-7.31-18.45L1925,3139.66l-433.31-52.94a76.12,76.12,0,0,1-64.36-55.51l-237.53-862.33a96.81,96.81,0,0,0-86.19-70.73l-126-9.14a9.93,9.93,0,1,0-1.43,19.8l126,9.14a76.92,76.92,0,0,1,68.49,56.2l237.53,862.33a95.91,95.91,0,0,0,81.09,69.95l435.82,53.24C1925.46,3159.71,1925.86,3159.74,1926.26,3159.74Z" transform="translate(-483.18 -284.72)"/><path class="cls-57" d="M1206.71,2064.22c3.14-.11,46.85-1.34,51,11.6a13.75,13.75,0,0,1,.09,7.31c-2.29,7.71-11.89,10.36-13.28,10.73,14.7,9.4,32.42,6.88,40.88-3.58,5.92-7.32,7.63-18.94,2.93-27.87-4.34-8.27-12.57-11.48-17.24-13C1238.4,2038.67,1206.71,2064.22,1206.71,2064.22Z" transform="translate(-483.18 -284.72)"/></g></g></svg>