<svg xmlns="http://www.w3.org/2000/svg" xmlns:xlink="http://www.w3.org/1999/xlink" viewBox="0 0 2931.22 2857.28"><defs><style>.cls-1{fill:url(#linear-gradient);}.cls-2{fill:url(#linear-gradient-2);}.cls-3{fill:none;}.cls-4{isolation:isolate;}.cls-5{fill:#f4f7fa;}.cls-6{clip-path:url(#clip-path);}.cls-7{opacity:0.7;mix-blend-mode:soft-light;}.cls-8{fill:#fff;}.cls-9{fill:url(#linear-gradient-4);}.cls-10{clip-path:url(#clip-path-2);}.cls-11{fill:url(#linear-gradient-6);}.cls-12{fill:url(#linear-gradient-7);}.cls-13{opacity:0.4;fill:url(#linear-gradient-8);}.cls-13,.cls-16,.cls-18,.cls-32,.cls-41{mix-blend-mode:multiply;}.cls-14{fill:url(#linear-gradient-9);}.cls-15{fill:url(#linear-gradient-10);}.cls-16,.cls-18,.cls-41{opacity:0.3;}.cls-16{fill:url(#linear-gradient-11);}.cls-17{fill:url(#linear-gradient-12);}.cls-19{fill:url(#linear-gradient-13);}.cls-20{fill:url(#linear-gradient-14);}.cls-21{fill:url(#linear-gradient-15);}.cls-22{fill:url(#linear-gradient-16);}.cls-23{fill:#d8dee8;}.cls-24{fill:#26264f;}.cls-25{clip-path:url(#clip-path-3);}.cls-26{fill:url(#linear-gradient-19);}.cls-27{fill:url(#linear-gradient-20);}.cls-28{fill:url(#linear-gradient-21);}.cls-29{fill:url(#linear-gradient-22);}.cls-30{fill:url(#linear-gradient-23);}.cls-31{fill:url(#linear-gradient-24);}.cls-32{opacity:0.25;fill:url(#linear-gradient-25);}.cls-33{fill:#444b8c;}.cls-34{fill:url(#linear-gradient-26);}.cls-35{fill:url(#linear-gradient-27);}.cls-36{fill:url(#linear-gradient-28);}.cls-37{fill:url(#linear-gradient-29);}.cls-38{fill:url(#linear-gradient-30);}.cls-39{fill:url(#linear-gradient-31);}.cls-40{fill:url(#linear-gradient-32);}.cls-41{fill:url(#linear-gradient-33);}</style><linearGradient id="linear-gradient" x1="3087.13" y1="1287.21" x2="2671.15" y2="2528.33" gradientUnits="userSpaceOnUse"><stop offset="0" stop-color="#ff9085"/><stop offset="1" stop-color="#fb6fbb"/></linearGradient><linearGradient id="linear-gradient-2" x1="1231.84" y1="1934.98" x2="962.67" y2="2738.06" xlink:href="#linear-gradient"/><clipPath id="clip-path" transform="translate(-462.2 -484.18)"><path class="cls-1" d="M2522.13,2575.1c-44.2-67.77-101.3-178.84-86.67-307C2461,2044.38,2676.08,2020.31,2773.3,1750c78.4-218-20.18-317.4,96.69-490.77,19.56-29,121.28-186.1,252.63-176.14,74,5.61,124.59,61.69,134.09,72.22,143.48,159.1,81.94,534-106.66,776-108.36,139-165.19,134.14-375.86,333.33A1536.27,1536.27,0,0,0,2522.13,2575.1Z"/></clipPath><linearGradient id="linear-gradient-4" x1="895.62" y1="2283.97" x2="-272.12" y2="3243.19" gradientTransform="matrix(1, -0.08, 0.08, 1, 2193.16, -361.61)" gradientUnits="userSpaceOnUse"><stop offset="0" stop-color="#e38ddd"/><stop offset="1" stop-color="#9571f6"/></linearGradient><clipPath id="clip-path-2" transform="translate(-462.2 -484.18)"><path class="cls-2" d="M1572.78,3005.12c31.29-74.25,67.56-193.24,30.49-316.3-64.68-214.69-279.77-200.13-423-447.84-115.52-199.79-36.53-314.65-181.82-463.84-24.31-25-151.86-160.88-278.83-127.82-71.55,18.62-111.17,82.55-118.6,94.55-112.41,181.39,14.39,537.88,242.15,741.59,130.86,117,185.69,102.16,427.49,260A1530.54,1530.54,0,0,1,1572.78,3005.12Z"/></clipPath><linearGradient id="linear-gradient-6" x1="1924.78" y1="-441.57" x2="2885.19" y2="-1496.83" gradientTransform="matrix(-0.95, 0.32, 0.32, 0.95, -1237.42, 79.64)" xlink:href="#linear-gradient-4"/><linearGradient id="linear-gradient-7" x1="1088.33" y1="2282.6" x2="2198.7" y2="760.83" gradientUnits="userSpaceOnUse"><stop offset="0" stop-color="#6165d7"/><stop offset="1" stop-color="#aa80f9"/></linearGradient><linearGradient id="linear-gradient-8" x1="1984.6" y1="1534.48" x2="2386.13" y2="984.18" xlink:href="#linear-gradient-7"/><linearGradient id="linear-gradient-9" x1="1117.3" y1="1013.61" x2="1839.57" y2="982.21" gradientUnits="userSpaceOnUse"><stop offset="0" stop-color="#ab316d"/><stop offset="1" stop-color="#792d3d"/></linearGradient><linearGradient id="linear-gradient-10" x1="1041.8" y1="2189.82" x2="1717.32" y2="2189.82" gradientUnits="userSpaceOnUse"><stop offset="0" stop-color="#ffc444"/><stop offset="1" stop-color="#f36f56"/></linearGradient><linearGradient id="linear-gradient-11" x1="1224.18" y1="2189.82" x2="1717.32" y2="2189.82" xlink:href="#linear-gradient-10"/><linearGradient id="linear-gradient-12" x1="1589.7" y1="1591.41" x2="2769.36" y2="3578.97" xlink:href="#linear-gradient-10"/><linearGradient id="linear-gradient-13" x1="2048.46" y1="1899.21" x2="3003.46" y2="4142.01" xlink:href="#linear-gradient-10"/><linearGradient id="linear-gradient-14" x1="2224.64" y1="359.01" x2="1910.62" y2="3039.37" xlink:href="#linear-gradient-9"/><linearGradient id="linear-gradient-15" x1="1927.73" y1="-230.08" x2="1019.17" y2="1498.39" xlink:href="#linear-gradient-9"/><linearGradient id="linear-gradient-16" x1="2500.22" y1="93.69" x2="1591.66" y2="1822.17" xlink:href="#linear-gradient-9"/><clipPath id="clip-path-3" transform="translate(-462.2 -484.18)"><rect class="cls-3" x="443.11" y="1221.61" width="1229.54" height="1112.95"/></clipPath><linearGradient id="linear-gradient-19" x1="2512.54" y1="1945.39" x2="2481.78" y2="1995.14" xlink:href="#linear-gradient-10"/><linearGradient id="linear-gradient-20" x1="2488.45" y1="2050.1" x2="2500.87" y2="2075.64" xlink:href="#linear-gradient-10"/><linearGradient id="linear-gradient-21" x1="1669.47" y1="3184.69" x2="1669.47" y2="3104.56" gradientTransform="translate(1249.56)" xlink:href="#linear-gradient-10"/><linearGradient id="linear-gradient-22" x1="1425.24" y1="3207.52" x2="1425.24" y2="3110.96" gradientTransform="translate(1249.56)" xlink:href="#linear-gradient-10"/><linearGradient id="linear-gradient-23" x1="1371.22" y1="2828.2" x2="1687.15" y2="2828.2" gradientTransform="translate(1249.56)" gradientUnits="userSpaceOnUse"><stop offset="0" stop-color="#311944"/><stop offset="1" stop-color="#893976"/></linearGradient><linearGradient id="linear-gradient-24" x1="1361.18" y1="2592.7" x2="1588.79" y2="2974.99" xlink:href="#linear-gradient-23"/><linearGradient id="linear-gradient-25" x1="1450.78" y1="2539.35" x2="1678.39" y2="2921.64" xlink:href="#linear-gradient-23"/><linearGradient id="linear-gradient-26" x1="-572.09" y1="-3528.32" x2="-331.04" y2="-3032.65" gradientTransform="translate(2791.32 -1269.08) rotate(-172.14)" xlink:href="#linear-gradient-4"/><linearGradient id="linear-gradient-27" x1="2652.54" y1="2182.07" x2="2896.67" y2="2684.08" gradientTransform="matrix(1, 0, 0, 1, 0, 0)" xlink:href="#linear-gradient-4"/><linearGradient id="linear-gradient-28" x1="1509.3" y1="2119.25" x2="1555.95" y2="2193.41" gradientTransform="translate(1249.56)" xlink:href="#linear-gradient-4"/><linearGradient id="linear-gradient-29" x1="1565.62" y1="2107.88" x2="1514.35" y2="2190.82" gradientTransform="translate(1249.56)" xlink:href="#linear-gradient-10"/><linearGradient id="linear-gradient-30" x1="882.57" y1="1713.02" x2="832.95" y2="1793.29" gradientTransform="translate(1534.77 640.48) rotate(-13.66)" xlink:href="#linear-gradient-10"/><linearGradient id="linear-gradient-31" x1="2781.79" y1="1753.62" x2="3211.5" y2="2436.6" gradientUnits="userSpaceOnUse"><stop offset="0" stop-color="#444b8c"/><stop offset="1" stop-color="#26264f"/></linearGradient><linearGradient id="linear-gradient-32" x1="2625.37" y1="2193.77" x2="2865.48" y2="2687.51" gradientTransform="matrix(1, 0, 0, 1, 0, 0)" xlink:href="#linear-gradient-4"/><linearGradient id="linear-gradient-33" x1="2617.28" y1="2199.21" x2="2861.41" y2="2701.22" gradientTransform="matrix(1, 0, 0, 1, 0, 0)" xlink:href="#linear-gradient-4"/></defs><title>cart</title><g class="cls-4"><g id="Illustration"><path class="cls-5" d="M1282.05,664s-995.37,367.39-683,1535.76c75.47,282.24,182.74,584.62,433.8,759.57,192.39,134.06,406.71,151.84,641.44,136.75q55-3.54,110.26-9.3c203.42-21.33,407.54-66.18,596.94-141.37,167.87-66.64,352.48-159.68,455.62-311.65,49.16-72.42,97.76-189.65,93-277.58,0,0-25.21-462.88,171.52-627.72S2949.36-45.79,1282.05,664Z" transform="translate(-462.2 -484.18)"/><path class="cls-1" d="M2522.13,2575.1c-44.2-67.77-101.3-178.84-86.67-307C2461,2044.38,2676.08,2020.31,2773.3,1750c78.4-218-20.18-317.4,96.69-490.77,19.56-29,121.28-186.1,252.63-176.14,74,5.61,124.59,61.69,134.09,72.22,143.48,159.1,81.94,534-106.66,776-108.36,139-165.19,134.14-375.86,333.33A1536.27,1536.27,0,0,0,2522.13,2575.1Z" transform="translate(-462.2 -484.18)"/><g class="cls-6"><g class="cls-7"><path class="cls-8" d="M2536.25,2673.05c-40.42-190.74-23-338.5,51.76-439.15,36.62-49.29,73.55-70.77,112.66-93.52,42-24.43,85.44-49.69,129.72-112.67,43-61.2,49.05-104.58,56.67-159.49,6.86-49.45,15.39-111,54-204.92,33.82-82.33,64.91-127.57,92.34-167.48,29.68-43.2,53.13-77.31,69-142.58,25.84-106.63,12.69-223-39.1-345.92l3.26-1.37c52.08,123.62,65.3,240.74,39.27,348.12-16,65.9-39.58,100.26-69.47,143.75-27.33,39.77-58.3,84.84-92,166.82-38.41,93.52-46.91,154.81-53.74,204.06-7.68,55.39-13.75,99.14-57.28,161-44.73,63.62-88.5,89.08-130.83,113.7-38.79,22.55-75.42,43.86-111.6,92.57-74.14,99.8-91.34,246.6-51.14,436.31Z" transform="translate(-462.2 -484.18)"/><path class="cls-8" d="M3021.39,1516.76l-.22-2.35c-.27-2.79-28.4-279.53-161.6-340.42l1.47-3.21c128.42,58.7,160.33,313.65,163.39,340.94,134.09-54.79,210.64-148.29,251.28-217.26,44.31-75.19,56.73-138.27,56.85-138.9l3.47.66c-.12.63-12.62,64.21-57.2,139.91-41.15,69.86-118.83,164.69-255.25,219.75Z" transform="translate(-462.2 -484.18)"/><path class="cls-8" d="M2908.62,1765.77H2907l-.21-1.5c-10.78-74-46-154.22-73.58-208.49-29.95-58.86-57.71-100.73-58-101.15l2.93-1.95c.28.41,28.14,42.42,58.18,101.46,27.56,54.14,62.61,134,73.72,208.09,11.08-.16,81.57-2.41,170.39-31.68s214.82-92.4,310.07-226.76l2.88,2c-95.84,135.2-222.55,198.68-312,228.12C2985.91,1765.4,2911.39,1765.77,2908.62,1765.77Z" transform="translate(-462.2 -484.18)"/><path class="cls-8" d="M2829.39,2128.36c-56.71,0-90.38-7.36-90.78-7.44l-1.82-.41.5-1.79c44.46-159.22-77.94-336.26-79.18-338l2.89-2c1.25,1.78,123.66,178.84,80.2,339.17,20,3.84,201.55,34.19,434.94-74.45l1.49,3.2c-129.29,60.18-241.72,77.2-313.27,80.87C2851.91,2128.09,2840.23,2128.36,2829.39,2128.36Z" transform="translate(-462.2 -484.18)"/></g></g><path class="cls-9" d="M2492.31,2514.14a861.66,861.66,0,0,1,151.27-189.62c134.35-126.37,221.92-125.13,259.72-222,39.13-100.29-36.19-149,13.12-263.5,4.15-9.62,58-130.37,152.46-135.73,66-3.74,116.47,51,140.13,76.68,91.81,99.69,147,288.8,60.57,432-81.95,135.81-249.76,162-303.19,170-93.73,14-127.91-9.91-222.08,6.86C2629.79,2409.22,2544.93,2468.69,2492.31,2514.14Z" transform="translate(-462.2 -484.18)"/><path class="cls-2" d="M1572.78,3005.12c31.29-74.25,67.56-193.24,30.49-316.3-64.68-214.69-279.77-200.13-423-447.84-115.52-199.79-36.53-314.65-181.82-463.84-24.31-25-151.86-160.88-278.83-127.82-71.55,18.62-111.17,82.55-118.6,94.55-112.41,181.39,14.39,537.88,242.15,741.59,130.86,117,185.69,102.16,427.49,260A1530.54,1530.54,0,0,1,1572.78,3005.12Z" transform="translate(-462.2 -484.18)"/><g class="cls-10"><g class="cls-7"><path class="cls-8" d="M1576.32,3103.62l-3.54-.1c5.76-193.06-37.14-333.87-127.5-418.54-44.09-41.32-83.77-55.7-125.79-70.93-45.85-16.63-93.27-33.81-148.39-88.23-53.64-53-67.34-94.75-84.7-147.67-15.43-47.06-34.63-105.62-88.86-190.46-47.54-74.38-85.9-113.06-119.73-147.19-37-37.32-66.25-66.81-93.59-128.56-44.55-100.62-52.37-217.76-23.25-348.16l3.45.77c-28.95,129.65-21.2,246,23,346,27.08,61.16,56.11,90.44,92.86,127.5,34,34.26,72.46,73.08,120.21,147.77,54.47,85.22,73.75,144,89.24,191.27,17.2,52.47,30.79,93.91,83.82,146.26,54.58,53.87,101.62,70.92,147.12,87.42,42.36,15.35,82.38,29.86,127,71.67C1538.83,2767.79,1582.1,2909.51,1576.32,3103.62Z" transform="translate(-462.2 -484.18)"/><path class="cls-8" d="M895.77,2056.43l-2.31-.48C750,2026.18,657,1947,604.32,1885.85c-57.12-66.29-80.64-126.38-80.88-127l3.3-1.27c.23.6,23.59,60.21,80.35,126.05C659.16,1944,750.75,2022.09,891.88,2052c-1.85-27.35-15.76-282.82,99.67-363.12l2,2.9c-119.75,83.31-98.23,359.5-98,362.28Z" transform="translate(-462.2 -484.18)"/><path class="cls-8" d="M967.75,2286.36a668.31,668.31,0,0,1-92.33-6.43c-92.86-13-228.31-52.74-346.21-168.24l2.47-2.53c117.18,114.8,251.8,154.31,344.1,167.25s161.7,2.63,172.61.83c-4.32-143.08,73.57-324.95,74.36-326.77l3.24,1.4c-.79,1.82-78.93,184.28-74,326.79l0,1.52-1.49.28C1050.05,2280.55,1018.09,2286.36,967.75,2286.36Z" transform="translate(-462.2 -484.18)"/><path class="cls-8" d="M1059.92,2633c-63.81,0-139.26-7.52-223.32-29.58l.9-3.42c248,65.07,420.5,3.16,439.46-4.16-71-149.44,17.55-344.68,18.46-346.64l3.2,1.48c-.9,2-89.44,197.2-17.65,345.33l.81,1.67-1.72.73C1278.86,2598.9,1195.74,2633,1059.92,2633Z" transform="translate(-462.2 -484.18)"/></g></g><path class="cls-11" d="M1629.58,2734.49a987,987,0,0,0-245.1-130.69c-198.59-71.86-290.08-30.82-373.8-115.52-86.65-87.67-29.6-173.1-133.39-271.05-8.73-8.24-120.19-110.71-221.88-73.48-71.14,26-99.29,106.47-112.5,144.21-51.27,146.46-23.47,370.32,132.41,481.67,147.79,105.57,336.1,56.94,395.88,41.08,104.89-27.83,130-68.48,236.58-93.59C1437.43,2686.58,1553.62,2710.59,1629.58,2734.49Z" transform="translate(-462.2 -484.18)"/><path class="cls-12" d="M2714.57,1573.85v3.4c-29.77-40.67-73-24.52-104.89-57.24-.6-1.44-11.77-75.52-12.36-77a766.26,766.26,0,0,0-73.26-135.22c-31.18-46.33-70.81-91.93-117-133.91-5.53-5.45-11.92-10.25-17.83-15.4-3-2.51-6.07-5.11-9.14-7.62l-4.47-3.82c-1.58-1.28-3.2-2.43-4.78-3.66q-9.49-7.22-19.06-14.55l-4.76-3.66-5-3.4c-3.32-2.3-6.64-4.6-10-6.85-13.1-9.49-27.22-17.7-41-26.37-7-4.21-14.38-8.08-21.53-12.08-3.53-2-7.14-4-10.76-6s-7.44-3.7-11.1-5.53a694.45,694.45,0,0,0-189.51-63.25c-8.25-1.37-16.5-2.73-24.84-4.09-8.29-1.15-16.72-1.87-25-2.85l-12.5-1.4-12.55-.68-12.55-.77c-4.17-.21-8.3-.64-12.51-.55-8.34,0-16.67-.13-25-.17-2.05,0-4.26-.13-6.17,0l-5.57.3-11.15.59-11.06.55c-1,.05-1.66.05-2.93.13l-11.36.85-15.19,1.07-11.36.85-1.91.12-.68.05s-4,0,2.68.12l-24.55,3.62c-4,.64-8.12,1-12.16,1.91l-12,2.43-12,2.38-6,1.19c-2,.39-4,1-5.92,1.45-7.87,2-15.74,3.95-23.56,6-4,.85-7.79,2.21-11.62,3.36l-11.48,3.61-11.49,3.45-11.23,4.12c-7.48,2.81-15,5.28-22.24,8.26s-14.51,6.12-21.7,9.23A623.56,623.56,0,0,0,1520,1142.73l-8.25,6.89L1504,1157c-5.19,4.85-10.55,9.48-15.48,14.46-.22.17-.39.43-.6.6-9.61,10-19.35,19.31-28,29.6-2.3,2.51-4.55,5.06-6.76,7.62l-3.41,3.74-3.14,4c-4.21,5.19-8.38,10.42-12.55,15.57-1,1.27-2.13,2.51-3.15,3.83l-2.85,4c-2,2.68-3.87,5.36-5.78,8-3.75,5.36-7.83,10.29-11.19,15.82-28.42,42.54-50.07,85.08-64.79,125.66a574.71,574.71,0,0,0-28.71,112c-.55,4.21-1.11,8.34-1.66,12.42s-1.27,8-1.44,12q-1,11.87-1.92,22.63c-.43,7.31-.43,14.33-.72,20.93-.13,3.31-.34,6.55-.38,9.65.12,3.19.21,6.3.25,9.28.08,6,.17,11.65.25,16.93a22.05,22.05,0,0,0,.3,3.27c.13,1,.26,2,.39,2.89.17,1.87.42,1.62.59,3.32.13,1.45.3,2.13.43,2.13h280l-170.15,188.65L1028,2238.54,462.2,1617.28H759.67c.42,0,.89-5.11,1.36-9.1,1.15-8.64,2.38-17.06,3.74-27.31.77-5.11,1.45-9.87,2.26-15.36.42-2.68.81-5.23,1.23-8s.77-5.74,1.32-8.17c2.08-10.29,4.25-21.14,6.55-32.71,1.23-5.74,2.43-11.61,3.7-17.65s3-12.17,4.6-18.46c3.23-12.55,6.38-25.74,10.29-39.31q6.25-20.22,13-42c2.17-7.31,5-14.5,7.66-21.94l8.25-22.51a1074.78,1074.78,0,0,1,96.78-193c42-66.4,95.45-132.55,158.92-193.89,7.7-7.87,16.2-15.06,24.41-22.59,4.17-3.7,8.3-7.44,12.47-11.18l6.33-5.62,6.47-5.36c8.72-7.1,17.53-14.29,26.29-21.48l6.64-5.36,6.89-5.1c4.63-3.45,9.23-6.85,13.86-10.25,18.17-13.91,37.69-26.46,57.09-39.39,9.78-6.3,19.91-12.17,30-18.25,5-3,10-6,15.1-9l15.57-8.42a1007.08,1007.08,0,0,1,269.18-100.35c11.86-2.34,23.82-4.72,35.73-7.06s24-3.74,36-5.57l18-2.56,18.17-1.78,18.12-1.75c6-.55,12-1.23,18.12-1.44,12.08-.56,24.2-2,36.33-2.56,3-.12,6-1.27,9.06-1.27h9.1l18.08,1,18.08.59c6,0,12.08.81,18.08,1.11l35.94,2.17c8.17.13,2.81.21,4.89.26l.94.12,1.91.22,3.74.51,7.58.93,15,1.87,7.58.94,3.74.47,4.64.64,19,2.8,19.06,2.9,9.44,1.48c3.11.51,5.87,1.2,8.85,1.79,11.61,2.47,23.23,5,34.84,7.4,5.78,1.15,11.49,2.81,17.19,4.3l17.14,4.55,17,4.55,16.81,5.32c11.14,3.61,22.33,7,33.26,10.93,10.93,4.08,21.78,8.17,32.63,12.25,86.05,34.2,164.58,79.85,232.08,133,4.26,3.27,8.47,6.59,12.68,9.86s8.17,6.85,12.21,10.34c8.08,6.89,16.2,13.53,24,20.59,15.35,14.42,30.67,28.24,44.66,43.22,3.58,3.66,7.07,7.36,10.64,11l5.23,5.45,5,5.65q10,11.37,19.78,22.55l4.89,5.61,4.68,5.79c3,3.87,6.13,7.7,9.15,11.53,6,7.7,12.37,15,17.82,23a937,937,0,0,1,78.57,125.44c10.55,20.21,19.95,40.33,28.24,60.19a887.08,887.08,0,0,1,52.49,169.81c1.15,6.47,2.39,12.81,3.53,19.06s2.43,12.29,3.15,18.38c1.62,12.12,3.23,23.73,4.72,34.92,1.28,11.23,2,22,2.9,32.29.38,5.1.89,10.08,1.19,15s1.19,9.61,1.4,14.29C2713.09,1556.75,2714.57,1565.64,2714.57,1573.85Z" transform="translate(-462.2 -484.18)"/><path class="cls-13" d="M2714.57,1573.85v3.4c-29.77-40.67-73.09-19.67-105-52.38-.6-1.44-11-77.33-11.64-78.78-17.82-42.75-42.44-92.08-73.83-138.27-31.18-46.33-70.81-91.93-117-133.91-5.53-5.45-11.92-10.25-17.83-15.4-3-2.51-6.07-5.11-9.14-7.62l-4.47-3.82c-1.58-1.28-3.2-2.43-4.78-3.66q-9.49-7.22-19.06-14.55l-4.76-3.66-5-3.4c-3.32-2.3-6.64-4.6-10-6.85-13.1-9.49-27.22-17.7-41-26.37-7-4.21-14.38-8.08-21.53-12.08-3.53-2-7.14-4-10.76-6s-7.44-3.7-11.1-5.53a694.45,694.45,0,0,0-189.51-63.25c-8.25-1.37-16.5-2.73-24.84-4.09-8.29-1.15-16.72-1.87-25-2.85l-12.5-1.4-12.55-.68-12.55-.77c-4.17-.21-8.3-.64-12.51-.55-8.34,0-16.67-.13-25-.17-2.05,0-4.26-.13-6.17,0l-5.57.3-11.15.59-11.06.55c-1,.05-1.66.05-2.93.13l-11.36.85-15.19,1.07-11.36.85-1.91.12-.68.05s-4,0,2.68.12l-24.55,3.62c-4,.64-8.12,1-12.16,1.91l-12,2.43-12,2.38-6,1.19c-2,.39-4,1-5.92,1.45-7.87,2-15.74,3.95-23.56,6-4,.85-7.79,2.21-11.62,3.36l-11.48,3.61-11.49,3.45-11.23,4.12c-7.48,2.81-15,5.28-22.24,8.26s-14.51,6.12-21.7,9.23A623.56,623.56,0,0,0,1520,1142.73l-8.25,6.89L1504,1157c-5.19,4.85-10.55,9.48-15.48,14.46-.22.17-.39.43-.6.6,125.7-155.65,329.33-256.76,559.12-256.76,235.44,0,443.41,106.13,568.22,268.24,10.55,20.21,19.95,40.33,28.24,60.19a887.08,887.08,0,0,1,52.49,169.81c1.15,6.47,2.39,12.81,3.53,19.06s2.43,12.29,3.15,18.38c1.62,12.12,3.23,23.73,4.72,34.92,1.28,11.23,2,22,2.9,32.29.38,5.1.89,10.08,1.19,15s1.19,9.61,1.4,14.29C2713.09,1556.75,2714.57,1565.64,2714.57,1573.85Z" transform="translate(-462.2 -484.18)"/><path class="cls-14" d="M2332.28,1376.37c-10.43,0-19.34-8.51-20.35-19.89-17.91-201.9-79.2-393.73-172.57-540.16-82.71-129.72-181.19-207.13-263.47-207.13h-.27c-299.68.62-362.37,739.62-363,747.09-1,12.09-10.83,21-22.13,20s-19.6-11.68-18.63-23.77c2.56-32.12,66.73-786.58,403.65-787.28h.36c97.21,0,205.52,82.43,297.22,226.25,97.22,152.47,161,351.64,179.55,560.82,1.07,12.08-7.18,22.81-18.43,24A18.51,18.51,0,0,1,2332.28,1376.37Z" transform="translate(-462.2 -484.18)"/><path class="cls-15" d="M1083.8,2897.29l394.5,214.52,239-787.81L1323.48,1267.82l-111.68,29.41L1042.35,2814.09C1038.52,2848.43,1055.08,2881.67,1083.8,2897.29Z" transform="translate(-462.2 -484.18)"/><path class="cls-16" d="M1717.32,2324,1323.48,1267.82l-65.87,17.35a2470.54,2470.54,0,0,0,1.08,341.57c26.4,359.6,114.09,459.67,71.61,710.53-35.32,208.59-112.45,236.9-105.71,377.23,7.35,152.85,106.6,280.84,224.6,381.49l29.11,15.82Z" transform="translate(-462.2 -484.18)"/><polygon class="cls-17" points="861.28 783.63 2346.88 864.51 2819 2471.6 1016.1 2627.63 861.28 783.63"/><g class="cls-18"><path class="cls-19" d="M2809.08,1348.7l-774.75-42.18c-13.07,20.56-30.39,54-33.62,96.76-19.07,252.67,502.29,334.46,549,644.6,35.56,236.12-183.26,508.57-378.5,629.95-205.7,127.88-345.09,63.12-484.21,205.1-61.13,62.38-98.35,140.39-120.49,221.25l1714.69-148.4Z" transform="translate(-462.2 -484.18)"/></g><path class="cls-20" d="M1779.15,1412.49c-9.29,0-17.69-6.83-19.91-17-4.18-19.14-100.82-471.44,35.45-693.41,39-63.62,93.62-102.46,162.18-115.45C2309.12,520,2526,1332.62,2535.06,1367.25c3.05,11.68-3.29,23.81-14.16,27.09s-22.18-3.53-25.23-15.21C2493.54,1371,2280.06,570,1964,630c-57.84,10.95-102,42.47-135.12,96.35-126.67,206.34-30.75,654.68-29.77,659.19,2.58,11.81-4.24,23.64-15.24,26.41A19.06,19.06,0,0,1,1779.15,1412.49Z" transform="translate(-462.2 -484.18)"/><ellipse class="cls-21" cx="1317.09" cy="931.62" rx="57.18" ry="61.41"/><ellipse class="cls-22" cx="2062.76" cy="925.93" rx="57.18" ry="61.41"/><path class="cls-23" d="M2922.77,2122l-461.23-449.75a32.36,32.36,0,0,0-35.81-6.82L2179.59,1772.9c-20.74,9.06-27.89,36.75-14.46,56l401.72,575.17c11.1,15.89,32,19.4,47.07,7.9l305.66-232.88C2937.37,2165.52,2938.93,2137.76,2922.77,2122Zm-527.42-291.64c-15.54,11.22-40,1.31-54.71-22.13s-14-51.54,1.57-62.76,40-1.32,54.71,22.12S2410.89,1819.14,2395.35,1830.37Z" transform="translate(-462.2 -484.18)"/><path class="cls-5" d="M2922.77,2115.87l-461.23-449.75a32.36,32.36,0,0,0-35.81-6.82l-246.14,107.46c-20.74,9.06-27.89,36.75-14.46,56l401.72,575.16c11.1,15.89,32,19.4,47.07,7.9l305.66-232.87C2937.37,2159.38,2938.93,2131.62,2922.77,2115.87Zm-527.42-291.64c-15.54,11.22-40,1.32-54.71-22.13s-14-51.54,1.57-62.76,40-1.32,54.71,22.12S2410.89,1813,2395.35,1824.23Z" transform="translate(-462.2 -484.18)"/><path class="cls-24" d="M2299.49,1713.78a3.78,3.78,0,0,1-3.48-2.31c-16-37.67-37.53-70.2-64.06-96.7-72.68-72.62-166.53-84-257.3-95.08-90.32-11-175.63-21.36-226.58-93.24-12.9-18.19-32.94-51.07-22.19-66.9,4.31-6.34,12.92-9.26,25.57-8.66a3.79,3.79,0,0,1,3.6,4,3.75,3.75,0,0,1-4,3.6c-6.77-.32-15.55.35-18.95,5.36-5.71,8.4,3,31.28,22.1,58.27,49,69.14,132.72,79.32,221.33,90.1,92,11.2,187.2,22.77,261.73,97.23,27.22,27.2,49.31,60.54,65.67,99.11a3.78,3.78,0,0,1-2,5A3.88,3.88,0,0,1,2299.49,1713.78Z" transform="translate(-462.2 -484.18)"/><path class="cls-24" d="M2338.89,1789.89a3.73,3.73,0,0,1-2.68-1.12,3.78,3.78,0,0,1,0-5.35c.32-.31,31.9-32.27,31.74-74.9-.09-26.18-12-51.11-35.4-74.09-49.62-48.72-181.27-105.16-297.42-154.94-70.9-30.39-137.86-59.1-181.83-83.85-10-5.61-20.52-10.94-31.36-15.84a3.78,3.78,0,1,1,3.12-6.89c11,5,21.78,10.42,32,16.14,43.62,24.55,110.4,53.17,181.1,83.48,116.76,50,249.11,106.78,299.74,156.5,24.92,24.47,37.59,51.23,37.67,79.54.13,45.82-32.58,78.84-34,80.22A3.76,3.76,0,0,1,2338.89,1789.89Z" transform="translate(-462.2 -484.18)"/><path class="cls-8" d="M2922.77,2115.87l-461.23-449.75a32.36,32.36,0,0,0-35.81-6.82l-21.92,9.57a318.5,318.5,0,0,0,27.41,68.44c68.13,124.93,179.91,119.54,205.73,206.24,22.89,76.84-53.88,118.06-64,225.88-5.06,53.88,6.48,125.54,68.31,215.55l278.32-212C2937.37,2159.38,2938.93,2131.62,2922.77,2115.87Z" transform="translate(-462.2 -484.18)"/><path class="cls-23" d="M2508.9,1962.78c25.26,41.78,20,76.44-.09,90.48-21.2,14.79-51.65,3.71-74.32-33.77-21.55-35.63-22.69-73.28,1.08-89.86C2459.55,1912.9,2488.28,1928.68,2508.9,1962.78Zm-51,38.6c12.63,20.89,26.66,32.51,36.08,25.94,9.21-6.43,5.53-23.08-8-45.51-12.26-20.27-25.59-33.25-35.65-26.23C2440.71,1962.3,2445.88,1981.41,2458,2001.38Zm103.1,134.25-45-262.16,17.56-12.25,44.76,262.31Zm98.22-159.81c25.27,41.78,20,76.44-.09,90.49-21,14.63-51.43,3.55-74.31-33.78-21.55-35.64-22.69-73.28,1.07-89.86C2609.93,1925.94,2638.65,1941.72,2659.27,1975.82Zm-50.73,38.45c12.42,21,26.44,32.66,35.87,26.09,9.2-6.43,5.52-23.08-8-45.51-12.26-20.27-25.37-33.4-35.44-26.38C2591.09,1975.34,2596.46,1994.3,2608.54,2014.27Z" transform="translate(-462.2 -484.18)"/><path class="cls-23" d="M2570.71,2280.67a18,18,0,0,1-15.65-9.46c-5.24-9.27-2.49-21.35,6.14-27l222.12-144.82c8.63-5.62,19.88-2.67,25.12,6.6s2.49,21.35-6.14,27l-222.12,144.82A17.21,17.21,0,0,1,2570.71,2280.67Z" transform="translate(-462.2 -484.18)"/><g class="cls-25"><path class="cls-12" d="M2714.57,1573.85v3.4c-29.77-40.67-73-24.52-104.89-57.24-.6-1.44-11.77-75.52-12.36-77a766.26,766.26,0,0,0-73.26-135.22c-31.18-46.33-70.81-91.93-117-133.91-5.53-5.45-11.92-10.25-17.83-15.4-3-2.51-6.07-5.11-9.14-7.62l-4.47-3.82c-1.58-1.28-3.2-2.43-4.78-3.66q-9.49-7.22-19.06-14.55l-4.76-3.66-5-3.4c-3.32-2.3-6.64-4.6-10-6.85-13.1-9.49-27.22-17.7-41-26.37-7-4.21-14.38-8.08-21.53-12.08-3.53-2-7.14-4-10.76-6s-7.44-3.7-11.1-5.53a694.45,694.45,0,0,0-189.51-63.25c-8.25-1.37-16.5-2.73-24.84-4.09-8.29-1.15-16.72-1.87-25-2.85l-12.5-1.4-12.55-.68-12.55-.77c-4.17-.21-8.3-.64-12.51-.55-8.34,0-16.67-.13-25-.17-2.05,0-4.26-.13-6.17,0l-5.57.3-11.15.59-11.06.55c-1,.05-1.66.05-2.93.13l-11.36.85-15.19,1.07-11.36.85-1.91.12-.68.05s-4,0,2.68.12l-24.55,3.62c-4,.64-8.12,1-12.16,1.91l-12,2.43-12,2.38-6,1.19c-2,.39-4,1-5.92,1.45-7.87,2-15.74,3.95-23.56,6-4,.85-7.79,2.21-11.62,3.36l-11.48,3.61-11.49,3.45-11.23,4.12c-7.48,2.81-15,5.28-22.24,8.26s-14.51,6.12-21.7,9.23A623.56,623.56,0,0,0,1520,1142.73l-8.25,6.89L1504,1157c-5.19,4.85-10.55,9.48-15.48,14.46-.22.17-.39.43-.6.6-9.61,10-19.35,19.31-28,29.6-2.3,2.51-4.55,5.06-6.76,7.62l-3.41,3.74-3.14,4c-4.21,5.19-8.38,10.42-12.55,15.57-1,1.27-2.13,2.51-3.15,3.83l-2.85,4c-2,2.68-3.87,5.36-5.78,8-3.75,5.36-7.83,10.29-11.19,15.82-28.42,42.54-50.07,85.08-64.79,125.66a574.71,574.71,0,0,0-28.71,112c-.55,4.21-1.11,8.34-1.66,12.42s-1.27,8-1.44,12q-1,11.87-1.92,22.63c-.43,7.31-.43,14.33-.72,20.93-.13,3.31-.34,6.55-.38,9.65.12,3.19.21,6.3.25,9.28.08,6,.17,11.65.25,16.93a22.05,22.05,0,0,0,.3,3.27c.13,1,.26,2,.39,2.89.17,1.87.42,1.62.59,3.32.13,1.45.3,2.13.43,2.13h280l-170.15,188.65L1028,2238.54,462.2,1617.28H759.67c.42,0,.89-5.11,1.36-9.1,1.15-8.64,2.38-17.06,3.74-27.31.77-5.11,1.45-9.87,2.26-15.36.42-2.68.81-5.23,1.23-8s.77-5.74,1.32-8.17c2.08-10.29,4.25-21.14,6.55-32.71,1.23-5.74,2.43-11.61,3.7-17.65s3-12.17,4.6-18.46c3.23-12.55,6.38-25.74,10.29-39.31q6.25-20.22,13-42c2.17-7.31,5-14.5,7.66-21.94l8.25-22.51a1074.78,1074.78,0,0,1,96.78-193c42-66.4,95.45-132.55,158.92-193.89,7.7-7.87,16.2-15.06,24.41-22.59,4.17-3.7,8.3-7.44,12.47-11.18l6.33-5.62,6.47-5.36c8.72-7.1,17.53-14.29,26.29-21.48l6.64-5.36,6.89-5.1c4.63-3.45,9.23-6.85,13.86-10.25,18.17-13.91,37.69-26.46,57.09-39.39,9.78-6.3,19.91-12.17,30-18.25,5-3,10-6,15.1-9l15.57-8.42a1007.08,1007.08,0,0,1,269.18-100.35c11.86-2.34,23.82-4.72,35.73-7.06s24-3.74,36-5.57l18-2.56,18.17-1.78,18.12-1.75c6-.55,12-1.23,18.12-1.44,12.08-.56,24.2-2,36.33-2.56,3-.12,6-1.27,9.06-1.27h9.1l18.08,1,18.08.59c6,0,12.08.81,18.08,1.11l35.94,2.17c8.17.13,2.81.21,4.89.26l.94.12,1.91.22,3.74.51,7.58.93,15,1.87,7.58.94,3.74.47,4.64.64,19,2.8,19.06,2.9,9.44,1.48c3.11.51,5.87,1.2,8.85,1.79,11.61,2.47,23.23,5,34.84,7.4,5.78,1.15,11.49,2.81,17.19,4.3l17.14,4.55,17,4.55,16.81,5.32c11.14,3.61,22.33,7,33.26,10.93,10.93,4.08,21.78,8.17,32.63,12.25,86.05,34.2,164.58,79.85,232.08,133,4.26,3.27,8.47,6.59,12.68,9.86s8.17,6.85,12.21,10.34c8.08,6.89,16.2,13.53,24,20.59,15.35,14.42,30.67,28.24,44.66,43.22,3.58,3.66,7.07,7.36,10.64,11l5.23,5.45,5,5.65q10,11.37,19.78,22.55l4.89,5.61,4.68,5.79c3,3.87,6.13,7.7,9.15,11.53,6,7.7,12.37,15,17.82,23a937,937,0,0,1,78.57,125.44c10.55,20.21,19.95,40.33,28.24,60.19a887.08,887.08,0,0,1,52.49,169.81c1.15,6.47,2.39,12.81,3.53,19.06s2.43,12.29,3.15,18.38c1.62,12.12,3.23,23.73,4.72,34.92,1.28,11.23,2,22,2.9,32.29.38,5.1.89,10.08,1.19,15s1.19,9.61,1.4,14.29C2713.09,1556.75,2714.57,1565.64,2714.57,1573.85Z" transform="translate(-462.2 -484.18)"/><path class="cls-13" d="M2714.57,1573.85v3.4c-29.77-40.67-73.09-19.67-105-52.38-.6-1.44-11-77.33-11.64-78.78-17.82-42.75-42.44-92.08-73.83-138.27-31.18-46.33-70.81-91.93-117-133.91-5.53-5.45-11.92-10.25-17.83-15.4-3-2.51-6.07-5.11-9.14-7.62l-4.47-3.82c-1.58-1.28-3.2-2.43-4.78-3.66q-9.49-7.22-19.06-14.55l-4.76-3.66-5-3.4c-3.32-2.3-6.64-4.6-10-6.85-13.1-9.49-27.22-17.7-41-26.37-7-4.21-14.38-8.08-21.53-12.08-3.53-2-7.14-4-10.76-6s-7.44-3.7-11.1-5.53a694.45,694.45,0,0,0-189.51-63.25c-8.25-1.37-16.5-2.73-24.84-4.09-8.29-1.15-16.72-1.87-25-2.85l-12.5-1.4-12.55-.68-12.55-.77c-4.17-.21-8.3-.64-12.51-.55-8.34,0-16.67-.13-25-.17-2.05,0-4.26-.13-6.17,0l-5.57.3-11.15.59-11.06.55c-1,.05-1.66.05-2.93.13l-11.36.85-15.19,1.07-11.36.85-1.91.12-.68.05s-4,0,2.68.12l-24.55,3.62c-4,.64-8.12,1-12.16,1.91l-12,2.43-12,2.38-6,1.19c-2,.39-4,1-5.92,1.45-7.87,2-15.74,3.95-23.56,6-4,.85-7.79,2.21-11.62,3.36l-11.48,3.61-11.49,3.45-11.23,4.12c-7.48,2.81-15,5.28-22.24,8.26s-14.51,6.12-21.7,9.23A623.56,623.56,0,0,0,1520,1142.73l-8.25,6.89L1504,1157c-5.19,4.85-10.55,9.48-15.48,14.46-.22.17-.39.43-.6.6,125.7-155.65,329.33-256.76,559.12-256.76,235.44,0,443.41,106.13,568.22,268.24,10.55,20.21,19.95,40.33,28.24,60.19a887.08,887.08,0,0,1,52.49,169.81c1.15,6.47,2.39,12.81,3.53,19.06s2.43,12.29,3.15,18.38c1.62,12.12,3.23,23.73,4.72,34.92,1.28,11.23,2,22,2.9,32.29.38,5.1.89,10.08,1.19,15s1.19,9.61,1.4,14.29C2713.09,1556.75,2714.57,1565.64,2714.57,1573.85Z" transform="translate(-462.2 -484.18)"/></g><path class="cls-5" d="M2474.4,3204c136.07-16.54,164.16,15.44,302.6,9.17,136.17-6.18,145.52-38.77,256.76-32.1,100,6,228.78,40.52,229.24,77.94.51,41.2-154.29,99.11-302.6,77.95-82.53-11.78-76.84-35.74-155.89-45.85-143.22-18.32-185.32,57.32-330.11,41.26-83.78-9.29-171.24-45.87-169.64-73.36C2306.77,3224.36,2450.15,3206.93,2474.4,3204Z" transform="translate(-462.2 -484.18)"/><path class="cls-26" d="M2510.93,1996.16a56.55,56.55,0,0,0,9.18-29c.71-26.87-19.22-47.83-21.9-46.63-1.44.65.39,8.52,1.41,12,2.14,7.27,4.44,8,4.24,11.31-.39,6.87-10.31,7.13-15.54,16.25a24.58,24.58,0,0,0,0,23.32C2495.07,1995.72,2510.29,1996.15,2510.93,1996.16Z" transform="translate(-462.2 -484.18)"/><polygon class="cls-27" points="2474.51 2095.69 2466.85 2069.33 2498.83 2045.63 2518.77 2038.17 2506.96 2075.06 2474.51 2095.69"/><path class="cls-28" d="M2897.12,3110.85s17.49,44,12.89,63.53a196,196,0,0,0,30.93-2.77s-7.55-20.07-9-30c-2-13.44-1.84-35.17-1.84-35.17Z" transform="translate(-462.2 -484.18)"/><path class="cls-24" d="M2704.27,3213.78a13.79,13.79,0,0,1,3.3,8.09,12.92,12.92,0,0,1-1,5.42c-3,7.85-7.67,8.88-12.72,17.21-3.09,5.09-2.51,6.62-5.34,8.92-3.73,3-8.24,3.2-12.15,3.25a216.81,216.81,0,0,1-28.11-1.59q9.42-12.14,20.06-24.61,4.66-5.46,9.32-10.67l18.46-6.24Z" transform="translate(-462.2 -484.18)"/><path class="cls-29" d="M2688.92,3124.16s-10.56,55.06,2.87,70.47c11.44,15.42-5.52,4.42-5.52,4.42L2666,3216.73l-12.15,21s11.19-53.88,8.2-75.27-4.47-35.8-4.47-35.8Z" transform="translate(-462.2 -484.18)"/><path class="cls-30" d="M2649.13,2521.91s-28.35,25.37-28.35,129.8,13.43,331.21,13.43,331.21l21.49,162.36s22.28.79,37.2-3.68c13.42-61.17,35.3-164.65,24.86-251.18-4.48-94,37.3-211.85,37.3-211.85s35.8,119.35,61.17,179,73.65,246.63,78.12,260.06c29.68,2.69,42.36-5.16,42.36-5.16s-19-201.19-36.93-277.28-16.42-259.6-46.25-311.81C2786.39,2496.55,2649.13,2521.91,2649.13,2521.91Z" transform="translate(-462.2 -484.18)"/><path class="cls-31" d="M2649.13,2521.91s-28.35,25.37-28.35,129.8,13.43,331.21,13.43,331.21l21.49,162.36s22.28.79,37.2-3.68c13.42-61.17,35.3-164.65,24.86-251.18-4.47-94,37.3-211.85,37.3-211.85s35.8,119.35,61.17,179,73.65,246.63,78.12,260.06c29.68,2.69,42.36-5.16,42.36-5.16s-19-201.19-36.93-277.28-16.42-259.6-46.25-311.81C2786.39,2496.55,2649.13,2521.91,2649.13,2521.91Z" transform="translate(-462.2 -484.18)"/><path class="cls-32" d="M2796.39,2713.27c8.84,57.45,26.51,88.39,70.71,128.17,35.36,26.51,8.84,84,22.1,128.16,4.42,13.26,17.68,26.52,22.1,39.78,16.44,32.89,1.08,73.13,8.54,107.95,11.6-1.6,16.87-4.83,16.87-4.83s-19-201.19-36.93-277.28-16.42-259.6-46.25-311.81c-67.14-26.86-204.4-1.5-204.4-1.5s-28.35,25.37-28.35,129.8c0,8.48.09,17.77.26,27.66,29.43,26.05,89.61,31.83,126.73,3a17.51,17.51,0,0,1,7.1-3.21c.11-.33.19-.55.19-.55l.15.51C2772.11,2676,2792.55,2697.94,2796.39,2713.27Z" transform="translate(-462.2 -484.18)"/><path class="cls-24" d="M2905.4,3191.08s-4.36,0-4,5.63-2,25,20.2,25.91,25.58-1.57,26.31-1.57-5.82-18.53-5.82-18.53l-7.08-9.08-19.08-2Z" transform="translate(-462.2 -484.18)"/><path class="cls-33" d="M2954.55,3210.52c-.47-4.67-3.09-12-5.73-18-3.91-8.81-.7-12.1-4.44-20.12a24,24,0,0,0-5.28-8,22.89,22.89,0,0,0-15.65-6,15.78,15.78,0,0,0-7.37,1.73c-3.43,1.83-5.16,4.58-6.63,7-2.31,3.8-1.78,5-5.34,15.84a39.86,39.86,0,0,0-2,10.23c5.82,0,28.16.91,32.89,4.36s7.08,9.26,7.08,15.08,2.91,8.54,5.82,8.35C2950.51,3220.89,2955.67,3216.08,2954.55,3210.52Z" transform="translate(-462.2 -484.18)"/><path class="cls-33" d="M2686.08,3186.9c5,.08,8.66,4,11.42,13.62s16,18.05.55,16-26.7,19.88-32.22,28-20.36,15.3-20,7.38,6.91-11.62,8.75-19.72S2674.7,3186.72,2686.08,3186.9Z" transform="translate(-462.2 -484.18)"/><path class="cls-34" d="M2948.45,2534.52c3.67-10.21,26.58-77.24-10.45-138.38-30.31-50-82.76-66.38-90.24-68.59-45.53-13.44-68.34,3.83-82.71-12.06-24.37-27,3.24-118.86,56.65-137.27,60.2-20.75,132.42,59,161.69,111.42,38.39,68.75,28.94,137.07,26.72,151.14a235.73,235.73,0,0,1-29.14,81.58Z" transform="translate(-462.2 -484.18)"/><path class="cls-35" d="M2791.23,2165.25c-53.74-2.15-95.18-1.3-118.59,22.1-24.73,24.71.26,52.6-5.11,117.24-8.22,99-71.28,123.13-76,223.53a256.2,256.2,0,0,0,8.57,78.12,269.73,269.73,0,0,0,69.92,61.9c48.65,29.59,76.86,24.43,146.72,43.55,114.27,31.28,124.44,68.52,181.1,59,57.27-9.59,107.51-57.79,101.44-84.25-3.63-15.85-26.72-11.36-53.3-35.54-34.25-31.15-21-60.89-47.09-94.37-37.41-48.09-89.52-18.69-121.4-60.37-32.25-42.15-19.46-125.23,7.72-170.51,17.76-29.58,25.36-64.24,40.47-95.25a21.64,21.64,0,0,0,2.07-12.09c-2.45-20.19-36.12-31.15-61.62-39.19C2827.22,2166.9,2795.65,2165.42,2791.23,2165.25Z" transform="translate(-462.2 -484.18)"/><path class="cls-36" d="M2746,2163l10.6-3.27s2.77,14.35,36.85,16.15a50.92,50.92,0,0,0,31.14-10.6l7.24,5.28s-15.89,19.85-41.16,19.34C2758,2189.28,2746,2163,2746,2163Z" transform="translate(-462.2 -484.18)"/><path class="cls-37" d="M2767.55,2119.38c2-15.76,14.5-25.86,17.22-28,11.38-9.05,13.7-10,17.61-10.7l5.34-.81.58,0c3.12.19,12.49,3.85,14.19,5.05,5.44,3.82,1.44,30.92-15,64.62l-2,8.56c14.37,2.52,17.93,5.12,18.05,7.19.24,4.48-15.5,10.2-30.08,10.58-18.3.46-37.72-7.41-37.35-13.28.15-2.38,3.6-5.31,16.89-8.19l6.22-8.76C2777.34,2143.36,2766,2131,2767.55,2119.38Z" transform="translate(-462.2 -484.18)"/><path class="cls-38" d="M2790.16,2113.44c4.15-2.48,7.31,2.86,5.36,7.52s-8.52,7.59-12.51,4.81S2784.58,2116.78,2790.16,2113.44Z" transform="translate(-462.2 -484.18)"/><path class="cls-39" d="M3327.93,2113.36c-54.61-59.26-181.68-43-252.17,4.59-32.75,22.12-49.56,48.24-88.26,50.43-29.41,1.67-76.22-9.39-100.86-41.26-3.11-4-15.53-20.85-34.18-42.09-8.22-9.36-16.4-18.15-29.07-20.13-3.22-.51-13.93-2.25-21,4.67-5.74,5.6-7.15,15.35-5.45,22.37,1,4.2,2.33,4.65,2.14,7.4-.53,7.72-14.6,11.09-13.82,15,.56,2.78,7.89,1.76,9.15,5.25,1.38,3.83-6.66,7.12-10.12,16.73-6.47,4.34-10.56,15.12-12,29.56-2.08,21.21,0,38.45,4.07,51.43,19.36,62.52,33.2,107.23,66.71,132.2,44.36,33.05,84.31,2.53,197.15-2.3,154.52-6.6,193,45.77,248.58,9.94C3358.15,2312.39,3384.64,2174.89,3327.93,2113.36Z" transform="translate(-462.2 -484.18)"/><path class="cls-40" d="M2517.46,1992.4c-1.38,12.93-6,70.12,33.41,118.41,36.86,45.12,89.07,54.14,98.77,55.6,46.94,7.1,67.18-13.13,83.58.65,27.84,23.39,13.05,118.19-37.34,143.72-56.8,28.79-139.26-40.36-175.41-88.27-47.44-62.84-47.42-131.82-47.14-146.06a236,236,0,0,1,17.71-84.8,42,42,0,0,1,26.42.75Z" transform="translate(-462.2 -484.18)"/><path class="cls-41" d="M2999.54,2732.9c-13.74-14.09,1.38-42.5-18.91-63.62-18.84-19.6-40.17-3.76-70.5-20.63-38.89-21.63-28.17-61.23-65.33-82.53-26.72-15.31-39.28,1.15-80.81-6.87s-92-36.6-116.91-87.69a150.63,150.63,0,0,1-15-62.58c-18.65,33.32-38,65.25-40.54,119.14a256.2,256.2,0,0,0,8.57,78.12,269.73,269.73,0,0,0,69.92,61.9c48.65,29.59,76.86,24.43,146.72,43.55,114.27,31.28,124.44,68.52,181.1,59,36.6-6.13,70.25-28,88.25-49.94C3033.26,2744.3,3009.51,2743.12,2999.54,2732.9Z" transform="translate(-462.2 -484.18)"/></g></g></svg>