<svg id="Illustration" xmlns="http://www.w3.org/2000/svg" xmlns:xlink="http://www.w3.org/1999/xlink" viewBox="0 0 2263.88 1426.61"><defs><style>.cls-1{fill:none;}.cls-2{fill:url(#linear-gradient);}.cls-3{fill:#7d97f4;}.cls-4{fill:#91b3fa;}.cls-5{fill:url(#linear-gradient-2);}.cls-6{fill:url(#linear-gradient-3);}.cls-7{fill:url(#linear-gradient-4);}.cls-8{fill:url(#linear-gradient-5);}.cls-10,.cls-32,.cls-9{fill:#fff;}.cls-9{opacity:0.2;}.cls-10{opacity:0.53;}.cls-11{fill:#bdd0fb;}.cls-12{fill:#dce5fe;}.cls-13{fill:url(#linear-gradient-6);}.cls-14{fill:url(#linear-gradient-7);}.cls-15{fill:url(#linear-gradient-8);}.cls-16{fill:url(#linear-gradient-9);}.cls-17{clip-path:url(#clip-path);}.cls-18{fill:url(#linear-gradient-10);}.cls-19{fill:url(#linear-gradient-11);}.cls-20{fill:url(#linear-gradient-12);}.cls-21{fill:url(#linear-gradient-13);}.cls-22{fill:url(#linear-gradient-14);}.cls-23{fill:url(#linear-gradient-15);}.cls-24{fill:url(#linear-gradient-16);}.cls-25{fill:url(#linear-gradient-17);}.cls-26{fill:url(#linear-gradient-18);}.cls-27{fill:url(#linear-gradient-19);}.cls-28{fill:url(#linear-gradient-20);}.cls-29{fill:url(#linear-gradient-21);}.cls-30{fill:url(#linear-gradient-22);}.cls-31{fill:url(#linear-gradient-23);}.cls-33{fill:url(#linear-gradient-24);}.cls-34{fill:url(#linear-gradient-25);}.cls-35{fill:url(#linear-gradient-26);}.cls-36{fill:url(#linear-gradient-27);}.cls-37{fill:url(#linear-gradient-28);}.cls-38{fill:url(#linear-gradient-29);}.cls-39{fill:url(#linear-gradient-30);}.cls-40{fill:url(#linear-gradient-31);}.cls-41{fill:url(#linear-gradient-32);}.cls-42{fill:url(#linear-gradient-33);}.cls-43{fill:url(#linear-gradient-34);}.cls-44{fill:url(#linear-gradient-35);}.cls-45{fill:url(#linear-gradient-36);}.cls-46{fill:url(#linear-gradient-37);}.cls-47{fill:url(#linear-gradient-38);}.cls-48{fill:url(#linear-gradient-39);}.cls-49{fill:url(#linear-gradient-40);}.cls-50{fill:url(#linear-gradient-41);}.cls-51{fill:url(#linear-gradient-42);}.cls-52{clip-path:url(#clip-path-2);}.cls-53{fill:url(#linear-gradient-43);}.cls-54{fill:url(#linear-gradient-44);}.cls-55{fill:url(#linear-gradient-45);}.cls-56{fill:url(#linear-gradient-46);}.cls-57{fill:url(#linear-gradient-47);}.cls-58{fill:url(#linear-gradient-48);}.cls-59{fill:url(#linear-gradient-49);}.cls-60{fill:url(#linear-gradient-50);}.cls-61{fill:url(#linear-gradient-51);}.cls-62{fill:url(#linear-gradient-52);}.cls-63{fill:url(#linear-gradient-53);}.cls-64{fill:url(#linear-gradient-54);}.cls-65{fill:url(#linear-gradient-55);}.cls-66{fill:url(#linear-gradient-56);}.cls-67{fill:url(#linear-gradient-57);}.cls-68{fill:url(#linear-gradient-58);}.cls-69{fill:url(#linear-gradient-59);}.cls-70{fill:url(#linear-gradient-60);}.cls-71{fill:url(#linear-gradient-61);}.cls-72{fill:url(#linear-gradient-62);}.cls-73{fill:url(#linear-gradient-63);}.cls-74{fill:url(#linear-gradient-64);}.cls-75{fill:url(#linear-gradient-65);}.cls-76{fill:url(#linear-gradient-66);}.cls-77{fill:url(#linear-gradient-67);}.cls-78{fill:url(#linear-gradient-68);}.cls-79{fill:url(#linear-gradient-69);}.cls-80{fill:url(#linear-gradient-70);}.cls-81{fill:url(#linear-gradient-71);}.cls-82{fill:url(#linear-gradient-72);}</style><linearGradient id="linear-gradient" x1="1730.26" y1="1886.08" x2="4186.3" y2="102.53" gradientTransform="matrix(0.96, -0.01, 0.01, 0.89, -1688.24, 115.69)" gradientUnits="userSpaceOnUse"><stop offset="0" stop-color="#dae3fe"/><stop offset="1" stop-color="#e9effd"/></linearGradient><linearGradient id="linear-gradient-2" x1="1123.72" y1="1332.79" x2="1193.5" y2="1332.79" gradientTransform="matrix(1, 0, 0, 1, 0, 0)" xlink:href="#linear-gradient"/><linearGradient id="linear-gradient-3" x1="1070.8" y1="1332.63" x2="1248.14" y2="1332.63" gradientTransform="matrix(1, 0, 0, 1, 0, 0)" xlink:href="#linear-gradient"/><linearGradient id="linear-gradient-4" x1="1428.45" y1="1383.09" x2="1455.22" y2="1383.09" gradientTransform="matrix(1, 0, 0, 1, 0, 0)" xlink:href="#linear-gradient"/><linearGradient id="linear-gradient-5" x1="1411.76" y1="1383.05" x2="1472.44" y2="1383.05" gradientTransform="matrix(1, 0, 0, 1, 0, 0)" xlink:href="#linear-gradient"/><linearGradient id="linear-gradient-6" x1="578.47" y1="1546.93" x2="874.92" y2="1149.25" gradientUnits="userSpaceOnUse"><stop offset="0" stop-color="#09005d"/><stop offset="1" stop-color="#1a0f91"/></linearGradient><linearGradient id="linear-gradient-7" x1="850.72" y1="1024.87" x2="1788.72" y2="680.87" gradientUnits="userSpaceOnUse"><stop offset="0" stop-color="#4042e2"/><stop offset="1" stop-color="#4f52ff"/></linearGradient><linearGradient id="linear-gradient-8" x1="1990.39" y1="596.49" x2="1440.84" y2="825.47" xlink:href="#linear-gradient-6"/><linearGradient id="linear-gradient-9" x1="1615.18" y1="908.48" x2="1913.18" y2="788.48" xlink:href="#linear-gradient-7"/><clipPath id="clip-path" transform="translate(-105.56 -111.69)"><path class="cls-1" d="M1640.11,1279.53c-7.49-7.62-23.8-37-37.79-113-13.51-73.41-21-168.63-21-268.12s7.45-194.71,21-268.13c14-76,30.3-105.34,37.79-113,7.48,7.62,23.8,37,37.78,113,13.52,73.42,120.16,168.64,120.16,268.13s-106.64,194.71-120.16,268.12C1663.91,1242.54,1647.59,1271.91,1640.11,1279.53Z"/></clipPath><linearGradient id="linear-gradient-10" x1="1747.83" y1="860.56" x2="888.27" y2="1124.68" gradientUnits="userSpaceOnUse"><stop offset="0" stop-color="#020039"/><stop offset="1" stop-color="#090056"/></linearGradient><linearGradient id="linear-gradient-11" x1="703.31" y1="1093.93" x2="681.62" y2="548.02" xlink:href="#linear-gradient-6"/><linearGradient id="linear-gradient-12" x1="610.39" y1="842.14" x2="770.22" y2="842.14" gradientTransform="matrix(1, 0, 0, 1, 0, 0)" xlink:href="#linear-gradient"/><linearGradient id="linear-gradient-13" x1="598.34" y1="902" x2="758.17" y2="902" gradientTransform="matrix(1, 0, 0, 1, 0, 0)" xlink:href="#linear-gradient"/><linearGradient id="linear-gradient-14" x1="908.84" y1="668.71" x2="1554.45" y2="668.71" gradientTransform="matrix(1, 0, 0, 1, 0, 0)" xlink:href="#linear-gradient"/><linearGradient id="linear-gradient-15" x1="822.48" y1="798.92" x2="862.3" y2="798.92" gradientTransform="matrix(1, 0, 0, 1, 0, 0)" xlink:href="#linear-gradient"/><linearGradient id="linear-gradient-16" x1="610.39" y1="972.1" x2="770.22" y2="972.1" gradientTransform="matrix(1, 0, 0, 1, 0, 0)" xlink:href="#linear-gradient"/><linearGradient id="linear-gradient-17" x1="623.05" y1="1049.91" x2="782.88" y2="1049.91" gradientTransform="matrix(1, 0, 0, 1, 0, 0)" xlink:href="#linear-gradient"/><linearGradient id="linear-gradient-18" x1="702.8" y1="1341.82" x2="951.87" y2="1341.82" gradientTransform="matrix(1, 0, 0, 1, 0, 0)" xlink:href="#linear-gradient"/><linearGradient id="linear-gradient-19" x1="674.79" y1="1148.18" x2="693.79" y2="1148.18" gradientTransform="matrix(1, 0, 0, 1, 0, 0)" xlink:href="#linear-gradient"/><linearGradient id="linear-gradient-20" x1="1596.53" y1="839.37" x2="1730.02" y2="839.37" gradientTransform="matrix(1, 0, 0, 1, 0, 0)" xlink:href="#linear-gradient"/><linearGradient id="linear-gradient-21" x1="750.71" y1="498.66" x2="859.52" y2="498.66" gradientTransform="translate(55.92 -78.15) rotate(-12.37)" gradientUnits="userSpaceOnUse"><stop offset="0" stop-color="#e1473d"/><stop offset="1" stop-color="#e9605a"/></linearGradient><linearGradient id="linear-gradient-22" x1="1632.13" y1="-854.25" x2="1740.95" y2="-854.25" gradientTransform="translate(-510.07 -671.71) rotate(64.65)" xlink:href="#linear-gradient-21"/><linearGradient id="linear-gradient-23" x1="442.68" y1="283.15" x2="436.56" y2="909.76" gradientTransform="translate(823.52)" gradientUnits="userSpaceOnUse"><stop offset="0" stop-color="#fe7062"/><stop offset="1" stop-color="#ff928e"/></linearGradient><linearGradient id="linear-gradient-24" x1="-112.41" y1="2513.54" x2="-192.55" y2="2689.39" gradientTransform="translate(2389.29 -1387.66) rotate(36.72)" xlink:href="#linear-gradient-6"/><linearGradient id="linear-gradient-25" x1="463.28" y1="1059.97" x2="778.67" y2="1059.97" xlink:href="#linear-gradient-7"/><linearGradient id="linear-gradient-26" x1="665" y1="1002.23" x2="655.31" y2="1086.78" gradientUnits="userSpaceOnUse"><stop offset="0" stop-color="#ff928e"/><stop offset="1" stop-color="#feb3b1"/></linearGradient><linearGradient id="linear-gradient-27" x1="782.03" y1="1054.5" x2="702.87" y2="1087.32" xlink:href="#linear-gradient-7"/><linearGradient id="linear-gradient-28" x1="743.92" y1="1011.27" x2="734.23" y2="1095.83" xlink:href="#linear-gradient-26"/><linearGradient id="linear-gradient-29" x1="624.15" y1="963.97" x2="834.17" y2="708.94" gradientTransform="matrix(1, 0, 0, 1, 0, 0)" xlink:href="#linear-gradient-23"/><linearGradient id="linear-gradient-30" x1="747.02" y1="433.11" x2="473.98" y2="1032.27" xlink:href="#linear-gradient-6"/><linearGradient id="linear-gradient-31" x1="681.29" y1="476.95" x2="683.96" y2="535.62" xlink:href="#linear-gradient-26"/><linearGradient id="linear-gradient-32" x1="657.7" y1="472.37" x2="703.7" y2="450.37" xlink:href="#linear-gradient-26"/><linearGradient id="linear-gradient-33" x1="-1969.59" y1="-513.09" x2="-1891.19" y2="-513.09" gradientTransform="translate(2639.71 -25.56) rotate(-28.71)" gradientUnits="userSpaceOnUse"><stop offset="0" stop-color="#2b3582"/><stop offset="1" stop-color="#150e42"/></linearGradient><linearGradient id="linear-gradient-34" x1="698.31" y1="391.17" x2="670.98" y2="457.17" xlink:href="#linear-gradient-26"/><linearGradient id="linear-gradient-35" x1="655.25" y1="491.81" x2="578.67" y2="632.5" xlink:href="#linear-gradient-7"/><linearGradient id="linear-gradient-36" x1="650.36" y1="790.77" x2="678.52" y2="790.77" gradientTransform="matrix(1, 0, 0, 1, 0, 0)" xlink:href="#linear-gradient-21"/><linearGradient id="linear-gradient-37" x1="582.88" y1="712.33" x2="665.62" y2="712.33" xlink:href="#linear-gradient-26"/><linearGradient id="linear-gradient-38" x1="79.66" y1="3935.21" x2="132.18" y2="3935.21" gradientTransform="translate(3980.11 -1706.98) rotate(55.64)" xlink:href="#linear-gradient-26"/><linearGradient id="linear-gradient-39" x1="741.93" y1="618.27" x2="807.07" y2="530.9" gradientTransform="matrix(1, 0, 0, 1, 0, 0)" xlink:href="#linear-gradient-33"/><linearGradient id="linear-gradient-40" x1="746.07" y1="295.28" x2="864.62" y2="506.43" xlink:href="#linear-gradient-7"/><linearGradient id="linear-gradient-41" x1="1075.34" y1="433.99" x2="954.6" y2="484.3" xlink:href="#linear-gradient-6"/><linearGradient id="linear-gradient-42" x1="953.68" y1="477.75" x2="1001.59" y2="473.39" xlink:href="#linear-gradient-7"/><clipPath id="clip-path-2" transform="translate(-105.56 -111.69)"><path class="cls-1" d="M975.19,559.52c-1.65-1.68-5.23-8.13-8.3-24.82-3-16.13-4.61-37.05-4.61-58.91s1.64-42.78,4.61-58.91c3.07-16.69,6.65-23.14,8.3-24.82,1.64,1.68,5.23,8.13,8.3,24.82,3,16.13,26.4,37.05,26.4,58.91s-23.43,42.78-26.4,58.91C980.42,551.39,976.83,557.84,975.19,559.52Z"/></clipPath><linearGradient id="linear-gradient-43" x1="1014.13" y1="472.83" x2="884.92" y2="480.25" gradientTransform="matrix(1, 0, 0, 1, 0, 0)" xlink:href="#linear-gradient-33"/><linearGradient id="linear-gradient-44" x1="769.36" y1="518.74" x2="764.6" y2="398.8" gradientTransform="matrix(1, 0, 0, 1, 0, 0)" xlink:href="#linear-gradient-33"/><linearGradient id="linear-gradient-45" x1="748.51" y1="463.42" x2="784.51" y2="463.42" gradientTransform="matrix(1, 0, 0, 1, 0, 0)" xlink:href="#linear-gradient"/><linearGradient id="linear-gradient-46" x1="745.86" y1="476.57" x2="781.86" y2="476.57" gradientTransform="matrix(1, 0, 0, 1, 0, 0)" xlink:href="#linear-gradient"/><linearGradient id="linear-gradient-47" x1="814.08" y1="425.32" x2="956.81" y2="425.32" gradientTransform="matrix(1, 0, 0, 1, 0, 0)" xlink:href="#linear-gradient"/><linearGradient id="linear-gradient-48" x1="795.1" y1="453.92" x2="804.74" y2="453.92" gradientTransform="matrix(1, 0, 0, 1, 0, 0)" xlink:href="#linear-gradient"/><linearGradient id="linear-gradient-49" x1="748.51" y1="491.97" x2="784.51" y2="491.97" gradientTransform="matrix(1, 0, 0, 1, 0, 0)" xlink:href="#linear-gradient"/><linearGradient id="linear-gradient-50" x1="751.29" y1="509.07" x2="787.29" y2="509.07" gradientTransform="matrix(1, 0, 0, 1, 0, 0)" xlink:href="#linear-gradient"/><linearGradient id="linear-gradient-51" x1="768.81" y1="573.2" x2="824.42" y2="573.2" gradientTransform="matrix(1, 0, 0, 1, 0, 0)" xlink:href="#linear-gradient"/><linearGradient id="linear-gradient-52" x1="762.65" y1="530.66" x2="767.71" y2="530.66" gradientTransform="matrix(1, 0, 0, 1, 0, 0)" xlink:href="#linear-gradient"/><linearGradient id="linear-gradient-53" x1="965.17" y1="462.81" x2="995.38" y2="462.81" gradientTransform="matrix(1, 0, 0, 1, 0, 0)" xlink:href="#linear-gradient"/><linearGradient id="linear-gradient-54" x1="785.42" y1="549.99" x2="817.29" y2="549.99" xlink:href="#linear-gradient-26"/><linearGradient id="linear-gradient-55" x1="2035.67" y1="905.52" x2="1574.31" y2="1388.34" xlink:href="#linear-gradient-6"/><linearGradient id="linear-gradient-56" x1="1459.39" y1="1202.55" x2="2044.3" y2="1202.55" gradientTransform="matrix(1, 0, 0, 1, 0, 0)" xlink:href="#linear-gradient"/><linearGradient id="linear-gradient-57" x1="1594.07" y1="1405.76" x2="1390.07" y2="1573.76" gradientTransform="matrix(1, 0, 0, 1, 0, 0)" xlink:href="#linear-gradient-23"/><linearGradient id="linear-gradient-58" x1="1733.56" y1="1088.32" x2="1751.56" y2="1202.32" xlink:href="#linear-gradient-26"/><linearGradient id="linear-gradient-59" x1="1789.56" y1="991.03" x2="1679.56" y2="1051.03" xlink:href="#linear-gradient-26"/><linearGradient id="linear-gradient-60" x1="9313.06" y1="957.52" x2="9409.3" y2="1081.43" gradientTransform="matrix(-1, 0, 0, 1, 11075.65, 0)" xlink:href="#linear-gradient-21"/><linearGradient id="linear-gradient-61" x1="1802.73" y1="1015.17" x2="1692.73" y2="1075.17" xlink:href="#linear-gradient-26"/><linearGradient id="linear-gradient-62" x1="1525.58" y1="1322.59" x2="1321.58" y2="1490.59" gradientTransform="matrix(1, 0, 0, 1, 0, 0)" xlink:href="#linear-gradient-23"/><linearGradient id="linear-gradient-63" x1="1646.72" y1="1308.48" x2="1668.72" y2="1112.48" gradientTransform="matrix(1, 0, 0, 1, 0, 0)" xlink:href="#linear-gradient-21"/><linearGradient id="linear-gradient-64" x1="1622.85" y1="1291.62" x2="1690.8" y2="1470.45" xlink:href="#linear-gradient-26"/><linearGradient id="linear-gradient-65" x1="1707.16" y1="1259.58" x2="1775.12" y2="1438.41" xlink:href="#linear-gradient-26"/><linearGradient id="linear-gradient-66" x1="1854.65" y1="1324.52" x2="1819.48" y2="1369.82" xlink:href="#linear-gradient-7"/><linearGradient id="linear-gradient-67" x1="1775.36" y1="1233.23" x2="1740.19" y2="1278.53" gradientUnits="userSpaceOnUse"><stop offset="0" stop-color="#53d8ff"/><stop offset="1" stop-color="#3840f7"/></linearGradient><linearGradient id="linear-gradient-68" x1="1892.83" y1="1190.56" x2="1955.42" y2="1350.61" xlink:href="#linear-gradient-7"/><linearGradient id="linear-gradient-69" x1="1885.29" y1="1254.19" x2="1921.06" y2="1474.15" xlink:href="#linear-gradient-7"/><linearGradient id="linear-gradient-70" x1="1869.19" y1="1382.13" x2="1974.7" y2="1451.28" xlink:href="#linear-gradient-7"/><linearGradient id="linear-gradient-71" x1="1783.77" y1="1230.42" x2="2038.72" y2="1230.42" gradientTransform="matrix(1, 0, 0, 1, 0, 0)" xlink:href="#linear-gradient"/><linearGradient id="linear-gradient-72" x1="1777.6" y1="1329.55" x2="1782.56" y2="1329.55" gradientTransform="translate(2874.89 -603.79) rotate(82.77)" xlink:href="#linear-gradient"/></defs><title>error</title><path class="cls-2" d="M2328.09,718.71c-61.41-84.15-189.66-128.23-194.77-255.27-3.33-82.55,33.2-127.7-27.26-197.55C1959.92,97,1738.15,79.42,1550,152.61s-337.12,217.4-547.43,211C888.08,360.19,781,306.52,667.5,297.44c-35-2.79-67.53.27-97.92,8.48C455.67,336.68,356.29,448.68,320,572.33c-29.4,100.24,11.36,198.45-35.64,296.8-50.09,104.82-150.63,178.33-174.51,299C81.2,1313,200.32,1437.35,326.42,1439.94c80.26,1.65,228.79-12.86,296.24-63.52,82.13-61.68,163.64-66.55,260.42-65.25,184.19,2.48,368.89,42.31,551.06,70.14,156.1,23.84,310.13,60,468,63.08,116,2.29,214.35,2.82,275.27-124.84C2250.26,1167,2456.89,895.22,2328.09,718.71Z" transform="translate(-105.56 -111.69)"/><path class="cls-3" d="M961.26,1289.8a2,2,0,0,1-.54-.07,2.31,2.31,0,0,1-1.72-2.79c.72-3,1.52-6.07,2.37-9.06a2.32,2.32,0,0,1,4.46,1.28c-.84,2.91-1.62,5.89-2.32,8.85A2.31,2.31,0,0,1,961.26,1289.8Z" transform="translate(-105.56 -111.69)"/><path class="cls-3" d="M974.33,1252a2.35,2.35,0,0,1-1-.21,2.31,2.31,0,0,1-1.13-3.08c2.66-5.77,5.64-11.49,8.84-17a2.32,2.32,0,1,1,4,2.33c-3.14,5.38-6,11-8.65,16.62A2.32,2.32,0,0,1,974.33,1252Zm344.81-36.86a2.31,2.31,0,0,1-1.86-.92c-3.73-5-7.75-9.82-11.94-14.43a2.31,2.31,0,1,1,3.42-3.12c4.3,4.72,8.41,9.68,12.23,14.77a2.31,2.31,0,0,1-.46,3.24A2.34,2.34,0,0,1,1319.14,1215.13Zm-318.66-5.32a2.35,2.35,0,0,1-1.45-.51,2.33,2.33,0,0,1-.35-3.26c4-5,8.27-9.81,12.7-14.37a2.32,2.32,0,1,1,3.32,3.23c-4.33,4.45-8.5,9.18-12.41,14A2.32,2.32,0,0,1,1000.48,1209.81Zm284.16-30.36a2.36,2.36,0,0,1-1.46-.51c-4.75-3.84-9.75-7.51-14.86-10.91l-.26-.17a2.32,2.32,0,0,1,2.58-3.85l.22.14c5.25,3.5,10.37,7.26,15.23,11.18a2.31,2.31,0,0,1,.35,3.26A2.34,2.34,0,0,1,1284.64,1179.45Zm-248.52-4.22a2.32,2.32,0,0,1-1.4-4.17c5.08-3.83,10.41-7.46,15.84-10.81a2.32,2.32,0,0,1,2.43,4c-5.31,3.26-10.51,6.82-15.48,10.56A2.29,2.29,0,0,1,1036.12,1175.23Zm206.38-22a2.28,2.28,0,0,1-1-.22c-5.65-2.62-11.48-5-17.34-7.07a2.32,2.32,0,1,1,1.55-4.37c6,2.12,12,4.56,17.74,7.24a2.32,2.32,0,0,1-1,4.42Zm-163.36-2.75a2.32,2.32,0,0,1-.9-4.45c5.86-2.47,11.92-4.7,18-6.61a2.32,2.32,0,1,1,1.39,4.42c-5.93,1.87-11.85,4-17.58,6.46A2.41,2.41,0,0,1,1079.14,1150.46ZM1195.26,1138a3.13,3.13,0,0,1-.43,0c-6.12-1.16-12.36-2-18.55-2.61a2.32,2.32,0,0,1,.43-4.61c6.34.59,12.72,1.48,19,2.66a2.32,2.32,0,0,1-.43,4.6Zm-68.37-1.11a2.31,2.31,0,0,1-.35-4.6c6.29-1,12.7-1.67,19-2a2.32,2.32,0,0,1,.28,4.63c-6.2.37-12.47,1-18.63,2A2,2,0,0,1,1126.89,1136.93Z" transform="translate(-105.56 -111.69)"/><path class="cls-3" d="M1339.89,1249.41a2.3,2.3,0,0,1-2.09-1.32c-1.31-2.74-2.7-5.49-4.13-8.17a2.32,2.32,0,0,1,4.09-2.18c1.46,2.74,2.89,5.56,4.22,8.36a2.32,2.32,0,0,1-1.09,3.09A2.38,2.38,0,0,1,1339.89,1249.41Z" transform="translate(-105.56 -111.69)"/><path class="cls-3" d="M1346.42,1408.22a2.17,2.17,0,0,1-.82-.16,2.31,2.31,0,0,1-1.34-3c1.08-2.84,2.11-5.75,3.06-8.62a2.31,2.31,0,1,1,4.4,1.44c-1,2.95-2,5.92-3.13,8.83A2.33,2.33,0,0,1,1346.42,1408.22Z" transform="translate(-105.56 -111.69)"/><path class="cls-3" d="M1157.53,1538.31h-.91a2.32,2.32,0,0,1,0-4.64h.9c5.83,0,11.72-.26,17.52-.77a2.32,2.32,0,1,1,.41,4.62C1169.52,1538,1163.49,1538.31,1157.53,1538.31Zm-31.07-2.41-.37,0c-6.19-1-12.4-2.23-18.47-3.77a2.32,2.32,0,1,1,1.14-4.49c5.93,1.5,12,2.74,18,3.68a2.32,2.32,0,0,1-.35,4.61Zm78.67-3.26a2.32,2.32,0,0,1-.54-4.57c6-1.44,11.91-3.17,17.7-5.14a2.31,2.31,0,0,1,1.5,4.38c-5.93,2-12,3.79-18.11,5.26A2.08,2.08,0,0,1,1205.13,1532.64Zm-125.65-10.09a2.41,2.41,0,0,1-.9-.18c-5.76-2.43-11.48-5.16-17-8.12a2.32,2.32,0,0,1,2.19-4.09c5.4,2.9,11,5.56,16.62,7.94a2.32,2.32,0,0,1-.9,4.45Zm171.4-7a2.31,2.31,0,0,1-1.06-4.37c5.43-2.82,10.79-5.93,15.94-9.24a2.31,2.31,0,1,1,2.51,3.89c-5.27,3.39-10.76,6.57-16.32,9.46A2.28,2.28,0,0,1,1250.88,1515.54ZM1037.1,1498.3a2.29,2.29,0,0,1-1.38-.46c-5-3.75-10-7.76-14.6-11.94a2.32,2.32,0,0,1,3.09-3.45c4.55,4.09,9.35,8,14.27,11.67a2.32,2.32,0,0,1-1.38,4.18Zm254.08-10.36a2.32,2.32,0,0,1-1.54-4.06c4.59-4.05,9-8.36,13.25-12.83a2.32,2.32,0,1,1,3.37,3.18c-4.29,4.57-8.85,9-13.55,13.13A2.36,2.36,0,0,1,1291.18,1487.94Zm-289.46-23.31a2.31,2.31,0,0,1-1.79-.85c-4-4.84-7.78-9.92-11.29-15.11a2.32,2.32,0,0,1,3.84-2.59c3.43,5.06,7.14,10,11,14.76a2.32,2.32,0,0,1-1.79,3.79Zm321.9-13.22a2.34,2.34,0,0,1-1.32-.42,2.31,2.31,0,0,1-.58-3.22c.7-1,1.39-2,2.08-3.06,2.72-4.08,5.31-8.3,7.71-12.55a2.32,2.32,0,1,1,4,2.28c-2.46,4.34-5.12,8.66-7.9,12.84-.7,1-1.41,2.1-2.12,3.13A2.31,2.31,0,0,1,1323.62,1451.41Z" transform="translate(-105.56 -111.69)"/><path class="cls-3" d="M975.49,1423.35a2.33,2.33,0,0,1-2.09-1.32c-1.33-2.81-2.62-5.68-3.83-8.55a2.32,2.32,0,1,1,4.27-1.79c1.18,2.8,2.44,5.61,3.75,8.35a2.31,2.31,0,0,1-2.1,3.31Z" transform="translate(-105.56 -111.69)"/><path class="cls-4" d="M1008.38,1375.9a2.42,2.42,0,0,0,2,2l29.09,4.87a128.77,128.77,0,0,0,22,35.3l-8.35,28.26a2.43,2.43,0,0,0,.92,2.66l28.8,20.53a2.42,2.42,0,0,0,2.81,0l24-17.11a128.35,128.35,0,0,0,40.55,9.34l14.09,25.91a2.42,2.42,0,0,0,2.53,1.23l34.88-5.84a2.42,2.42,0,0,0,2-2l4.87-29.08a128.5,128.5,0,0,0,35.3-22l28.26,8.35a2.43,2.43,0,0,0,2.66-.92l20.53-28.8a2.42,2.42,0,0,0,0-2.81l-17.1-24a128.35,128.35,0,0,0,9.34-40.55l25.9-14.09a2.4,2.4,0,0,0,1.23-2.52l-5.84-34.89a2.42,2.42,0,0,0-2-2l-29.08-4.87a128.27,128.27,0,0,0-22-35.3l8.35-28.26a2.41,2.41,0,0,0-.91-2.66l-28.8-20.53a2.43,2.43,0,0,0-2.82,0l-24,17.1a128.9,128.9,0,0,0-40.56-9.34l-14.08-25.9a2.43,2.43,0,0,0-2.53-1.23l-34.88,5.84a2.42,2.42,0,0,0-2,2l-4.88,29.08a128.36,128.36,0,0,0-35.29,22.05l-28.26-8.35a2.41,2.41,0,0,0-2.66.92L1021.9,1257a2.43,2.43,0,0,0,0,2.82l17.11,24a128.35,128.35,0,0,0-9.34,40.56l-25.91,14.08a2.44,2.44,0,0,0-1.23,2.53Z" transform="translate(-105.56 -111.69)"/><path class="cls-5" d="M1158.63,1367.69a34.93,34.93,0,0,1-12.69-2.4h0a34.72,34.72,0,1,1,12.69,2.4Zm0-62.84a27.94,27.94,0,0,0-10.15,54h0a27.93,27.93,0,1,0,20.31-52A28,28,0,0,0,1158.61,1304.85Z" transform="translate(-105.56 -111.69)"/><path class="cls-6" d="M1159.16,1421.45a88.18,88.18,0,0,1-51.38-16.52,90.54,90.54,0,0,1-13.53-11.86l-.62-.68,5.14-4.68a82.17,82.17,0,0,0,13,11.56h0c1,.72,2,1.42,3.07,2.09a81.22,81.22,0,0,0,49.15,13,82.88,82.88,0,0,0,8.83-1,81.86,81.86,0,1,0-95.14-87.31l-6.93-.55A88.83,88.83,0,1,1,1174,1420.21,90,90,0,0,1,1159.16,1421.45Z" transform="translate(-105.56 -111.69)"/><path class="cls-3" d="M1379.59,1371.12a2.48,2.48,0,0,1-.54-.06,2.33,2.33,0,0,1-1.72-2.79,65.25,65.25,0,0,1,2.9-9.15,2.31,2.31,0,1,1,4.3,1.71,61.81,61.81,0,0,0-2.69,8.51A2.32,2.32,0,0,1,1379.59,1371.12Z" transform="translate(-105.56 -111.69)"/><path class="cls-3" d="M1401.57,1336.26a2.32,2.32,0,0,1-1.46-4.12,65.94,65.94,0,0,1,18-10.32,2.32,2.32,0,1,1,1.64,4.34,61,61,0,0,0-16.74,9.59A2.33,2.33,0,0,1,1401.57,1336.26Zm68.58-7.32a2.26,2.26,0,0,1-1-.24,60.82,60.82,0,0,0-18.38-5.86,2.32,2.32,0,1,1,.69-4.58,65.61,65.61,0,0,1,19.77,6.3,2.31,2.31,0,0,1-1,4.38Z" transform="translate(-105.56 -111.69)"/><path class="cls-3" d="M1499,1358.38a2.31,2.31,0,0,1-2.09-1.32,61.54,61.54,0,0,0-4.41-7.74,2.31,2.31,0,1,1,3.84-2.58,64.61,64.61,0,0,1,4.75,8.33,2.32,2.32,0,0,1-1.09,3.09A2.38,2.38,0,0,1,1499,1358.38Z" transform="translate(-105.56 -111.69)"/><path class="cls-3" d="M1498.51,1414.27a2.28,2.28,0,0,1-1-.25,2.3,2.3,0,0,1-1-3.1,61.69,61.69,0,0,0,3.4-8.25,2.32,2.32,0,0,1,4.4,1.45,66.47,66.47,0,0,1-3.66,8.87A2.32,2.32,0,0,1,1498.51,1414.27Z" transform="translate(-105.56 -111.69)"/><path class="cls-3" d="M1428.2,1448.09a2.09,2.09,0,0,1-.49,0,65.5,65.5,0,0,1-19-7.32,2.31,2.31,0,0,1,2.31-4,61.12,61.12,0,0,0,17.69,6.8,2.32,2.32,0,0,1-.48,4.58Zm31.73-1.31a2.32,2.32,0,0,1-.67-4.54,61,61,0,0,0,17.09-8.2,2.32,2.32,0,0,1,2.63,3.82,65.89,65.89,0,0,1-18.38,8.82A2.27,2.27,0,0,1,1459.93,1446.78Z" transform="translate(-105.56 -111.69)"/><path class="cls-3" d="M1387.09,1418.82a2.34,2.34,0,0,1-2-1.11,66.68,66.68,0,0,1-4.35-8.55,2.32,2.32,0,1,1,4.27-1.8,60.62,60.62,0,0,0,4,8,2.32,2.32,0,0,1-.79,3.18A2.23,2.23,0,0,1,1387.09,1418.82Z" transform="translate(-105.56 -111.69)"/><path class="cls-4" d="M1394.45,1396.69a.76.76,0,0,0,.63.63l9.17,1.53a40.25,40.25,0,0,0,7,11.13l-2.63,8.92a.75.75,0,0,0,.29.84l9.08,6.47a.77.77,0,0,0,.89,0l7.56-5.39a40.79,40.79,0,0,0,12.79,2.94l4.45,8.17a.75.75,0,0,0,.79.39l11-1.84a.77.77,0,0,0,.62-.63l1.54-9.17a40.64,40.64,0,0,0,11.13-7l8.91,2.63a.76.76,0,0,0,.84-.29L1485,1407a.77.77,0,0,0,0-.89l-5.4-7.57a40.4,40.4,0,0,0,3-12.79l8.17-4.44a.77.77,0,0,0,.39-.8l-1.85-11a.77.77,0,0,0-.62-.63l-9.17-1.53a40.53,40.53,0,0,0-7-11.13l2.64-8.92a.78.78,0,0,0-.29-.84l-9.09-6.47a.75.75,0,0,0-.88,0l-7.57,5.39a40.51,40.51,0,0,0-12.79-2.94l-4.44-8.17a.76.76,0,0,0-.8-.39l-11,1.84a.78.78,0,0,0-.63.63l-1.54,9.17a40.79,40.79,0,0,0-11.13,7l-8.91-2.63a.76.76,0,0,0-.84.29l-6.48,9.08a.8.8,0,0,0,0,.89l5.4,7.57a40.4,40.4,0,0,0-2.95,12.79l-8.17,4.44a.77.77,0,0,0-.38.8Z" transform="translate(-105.56 -111.69)"/><path class="cls-7" d="M1441.82,1396.47a13.31,13.31,0,0,1-4.85-.91h0a13.4,13.4,0,1,1,4.85.91Zm-2.33-7.39a6.43,6.43,0,1,0,4.68-12,6.43,6.43,0,0,0-8.33,3.65,6.43,6.43,0,0,0,3.65,8.32Z" transform="translate(-105.56 -111.69)"/><path class="cls-8" d="M1442,1413.44a30.13,30.13,0,0,1-17.58-5.66h0a30,30,0,0,1-4.84-4.29l5.13-4.68a24.08,24.08,0,0,0,3.74,3.31h0a23.35,23.35,0,0,0,15.06,4.32c.67,0,1.34-.12,2-.22l.42-.06a23.44,23.44,0,1,0-27.25-25l-6.93-.55a30.4,30.4,0,1,1,35.32,32.41A31.2,31.2,0,0,1,1442,1413.44Z" transform="translate(-105.56 -111.69)"/><path class="cls-9" d="M2176.35,699H1787.54a15.05,15.05,0,0,1-15-15.05h0a15,15,0,0,1,15-15h388.81a15,15,0,0,1,15,15h0A15.05,15.05,0,0,1,2176.35,699Z" transform="translate(-105.56 -111.69)"/><path class="cls-10" d="M2223.06,757.91h-388.8a15,15,0,0,1-15-15h0a15,15,0,0,1,15-15h388.8a15.05,15.05,0,0,1,15.05,15h0A15.05,15.05,0,0,1,2223.06,757.91Z" transform="translate(-105.56 -111.69)"/><path class="cls-10" d="M2112.5,875.77H1834.26a15,15,0,0,1-15-15h0a15,15,0,0,1,15-15.05H2112.5a15,15,0,0,1,15,15.05h0A15,15,0,0,1,2112.5,875.77Z" transform="translate(-105.56 -111.69)"/><path class="cls-9" d="M2266.66,816.84h-388.8a15,15,0,0,1-15-15h0a15,15,0,0,1,15-15h388.8a15.05,15.05,0,0,1,15.05,15h0A15,15,0,0,1,2266.66,816.84Z" transform="translate(-105.56 -111.69)"/><path class="cls-4" d="M275,431.74c37,41.12,91,67.92,143.61,88.4,68.86,26.77,142.51,48.58,196.77,98.72,56.68,52.37,84.47,129.11,99,204.91s17.82,153.57,35.7,228.64c17,71.4,49.66,142.61,107.13,187.58-49.74-6.63-90.66-48.27-110.93-95-21.61-49.8-24.92-105.24-31.38-159.13S697.5,876.14,664.05,833.39c-65.62-83.89-191.79-88.88-276.8-153-44-33.19-75-81.17-96.16-132.05-14.41-34.67-24.56-70.86-33.32-107.42C255.35,430.74,268,424,275,431.74Z" transform="translate(-105.56 -111.69)"/><path class="cls-11" d="M856.16,1445a4.78,4.78,0,0,0-2.16-8.12c-41.31-9.27-212.26-57.09-176.91-208.23,40.15-171.61,62.14-218.46-8-292.73C605.32,868.33,539,863.42,483.85,878.78a3.83,3.83,0,0,0,.32,7.44C518,892.3,594.4,912.5,612.77,972.56c23.79,77.78-12.44,253.4,47.74,350.46,59.47,95.9,123.87,105.4,191.32,123.12a4.55,4.55,0,0,0,4.33-1.12Z" transform="translate(-105.56 -111.69)"/><path class="cls-11" d="M263.78,1214.57a5.65,5.65,0,0,1-6.95-8.15c15.57-27,51.78-76.88,106.6-75.94,75.13,1.29,130.71,34.9,203.86,156,71.1,117.76,231.5,157.36,274.76,158a4.16,4.16,0,0,1,4,3.53h0a4.19,4.19,0,0,1-4.24,4.91c-30.39-1.21-190.11-9.49-271.1-51.46C485.71,1357.45,359.7,1174.66,263.78,1214.57Z" transform="translate(-105.56 -111.69)"/><path class="cls-12" d="M307.09,1176.47c12.11-5.79,25-8.9,38.18-10.46a141.86,141.86,0,0,1,39.68.89c26.27,4.37,51.15,15.74,72.5,31.43a232.12,232.12,0,0,1,29.79,26.19l6.79,7.22,6.42,7.52,3.21,3.77,3,3.91,6,7.82c3.83,5.32,7.61,10.77,11.34,16.09l11,15.91,5.52,8c1.91,2.59,3.91,5.12,5.86,7.69l11.77,15.35c16.41,19.83,34,38.73,53.71,55.11a269.59,269.59,0,0,0,65.37,40c23.58,10.21,48.64,16.82,73.93,22.25s51,9.34,76.64,13.63a1.05,1.05,0,0,1,.87,1.21,1.07,1.07,0,0,1-1.16.87c-25.81-3-51.62-6.35-77.3-10.89s-51.19-11-75.59-20.84a264.12,264.12,0,0,1-67.87-39.91c-20.43-16.66-38.52-35.82-55.39-55.87l-12.08-15.48c-2-2.59-4.06-5.15-6-7.76l-5.66-8-22.39-31.8c-15.33-20.51-32.69-39.6-53-55a190.75,190.75,0,0,0-32.48-19.77,153.94,153.94,0,0,0-36.05-11.86,159.48,159.48,0,0,0-18.89-2.33,131.94,131.94,0,0,0-19.07.08,134.2,134.2,0,0,0-18.93,2.7,107.83,107.83,0,0,0-18.22,5.5l-.12.05a1.75,1.75,0,0,1-1.43-3.19Z" transform="translate(-105.56 -111.69)"/><path class="cls-4" d="M2259.42,745c-37.33,34.06-88.73,53.6-138.4,67.51-65,18.19-133.86,31.43-187.64,72.16-56.19,42.53-88.29,109.79-108.26,177.37s-29.9,138-52.85,204.61c-21.82,63.37-57.86,125.17-114.1,160.91,45.79-1.59,86.7-35.78,109.28-76.4,24.09-43.32,32-93.41,42.73-141.81s25.58-98.2,59.8-134.07c67.13-70.38,182.23-63.65,265.21-114.37,42.93-26.25,75.42-67.07,99.18-111.43,16.19-30.22,28.65-62.2,39.87-94.65C2277.35,745.85,2266.44,738.6,2259.42,745Z" transform="translate(-105.56 -111.69)"/><path class="cls-11" d="M2087.54,502.06c-10-26.39-23.87-51-38.72-75.1a9.38,9.38,0,0,0-17.24,3.46c-5.86,35.91-29.5,69.15-57,94.37-35,32.11-77.06,56-110.51,89.75-68.85,69.38-92.94,171.65-98.84,269.22s3.31,196.24-12.36,292.72c-7.46,46-21.05,92.08-48.47,129.75-26.93,37-68.91,65-114.53,67.08a2.18,2.18,0,0,0-2.06,2.55h0a2.19,2.19,0,0,0,1.43,1.67c54.23,18.91,116.49-13.29,148-61.5,31.71-48.56,38.51-109.06,39.32-167.06s-3.43-116.8,9.55-173.33a292.07,292.07,0,0,1,85.83-148.09c38.72-35.78,86.3-60.27,129.31-90.75s83.39-70,96.53-121.09C2107.41,578.28,2101.26,538.19,2087.54,502.06Z" transform="translate(-105.56 -111.69)"/><path class="cls-12" d="M2037.78,507.05c-2.29,10.57-6.13,20.43-10.41,30.18a227.47,227.47,0,0,1-15,28.12c-2.69,4.59-5.83,8.88-8.8,13.3s-6.34,8.53-9.52,12.79c-3.36,4.12-6.84,8.14-10.26,12.22l-10.87,11.67c-3.78,3.74-7.67,7.36-11.5,11s-8,7-12,10.5c-8,6.94-16.33,13.24-24.36,20-16.17,13.27-32.06,26.76-46.59,41.55a296.46,296.46,0,0,0-38.58,48.42c-5.81,8.57-10.49,17.82-15.45,26.91-4.26,9.45-9,18.71-12.42,28.53-7.8,19.27-13.23,39.45-18.56,59.62-2.35,10.17-4.49,20.4-6.69,30.62l-5.44,30.91v0a1.76,1.76,0,0,1-3.48-.51c4.91-41.72,12.85-83.42,27.53-123.21a293.11,293.11,0,0,1,66.85-107.42c14.81-15.24,30.87-29,47-42.48,8-6.78,16.35-13.3,24.23-20,3.91-3.4,8-6.61,11.75-10.15s7.56-7.07,11.26-10.69l10.79-11.15c3.4-3.89,6.87-7.74,10.22-11.68,3.19-4.06,6.58-8,9.65-12.14s6.21-8.29,9-12.64a265.24,265.24,0,0,0,16-26.62,180.88,180.88,0,0,0,12.17-28.46l0-.13a1.75,1.75,0,0,1,3.38.91Z" transform="translate(-105.56 -111.69)"/><path class="cls-11" d="M480.74,200.14c15.65-26.66,35.13-50.73,55.56-74a10.27,10.27,0,0,1,18,6.89c-.25,39.85,19.19,80.06,44.23,112.32C630.4,286.45,671.45,320,701.39,362.51,763,450,770.29,564.87,758.78,671.29s-39.52,211.26-40.28,318.3c-.37,51,5.85,103.27,28.56,149,22.3,44.88,62.49,82.8,111.37,93.4a2.38,2.38,0,0,1,1.75,3.13h0a2.39,2.39,0,0,1-1.85,1.54c-62,10.48-123.33-35.69-148.48-93.51-25.34-58.23-21.6-124.8-11.85-187.56s25.09-125.48,21.44-188.89A320,320,0,0,0,653.9,591.05c-35.25-45.72-82.13-80.87-123-121.66s-77.2-90.89-82-148.42C445.33,278.79,459.31,236.63,480.74,200.14Z" transform="translate(-105.56 -111.69)"/><path class="cls-12" d="M505.11,224.87a198.4,198.4,0,0,0,10.12,32.39,287.23,287.23,0,0,0,14.52,30.79c2.58,5.05,5.6,9.87,8.45,14.77s6.17,9.52,9.21,14.3c3.23,4.66,6.59,9.23,9.88,13.85l10.57,13.33c3.65,4.34,7.43,8.58,11.14,12.87s7.83,8.22,11.73,12.34C598.6,377.7,607,385.69,615,393.93c16.18,16.37,32.2,33.11,46.69,51.29a321,321,0,0,1,61.36,124.06c11.76,44.88,16,91.16,17,137.14a1.76,1.76,0,0,1-3.51.17v0l-2.57-34.29c-1.29-11.38-2.52-22.76-4-34.1-3.62-22.57-7.36-45.15-13.78-67-2.72-11.08-6.84-21.69-10.47-32.46-4.42-10.45-8.54-21-14-31a324.66,324.66,0,0,0-36.88-57c-14.27-17.7-30.15-34.12-46.35-50.32l-12.21-12.11c-4.08-4.06-8.22-8-12.19-12.26s-8.13-8.32-11.93-12.71-7.62-8.79-11.34-13.26l-10.59-13.86c-3.29-4.8-6.65-9.54-9.88-14.38-3-5-6.19-9.85-9-14.94s-5.73-10.12-8.18-15.4a249.77,249.77,0,0,1-13.36-32.19c-3.65-11.05-6.8-22.2-8.21-33.93a1.75,1.75,0,0,1,3.45-.57Z" transform="translate(-105.56 -111.69)"/><path class="cls-11" d="M278.77,1040.23a6.64,6.64,0,0,1-.67-11.07c10.52-7.74,28.86-24.27,44.39-53.83S379.59,881.28,468,897s119.26,170.73,138.57,323.53S799,1427,799,1427l46.48,17.48s-164.68-25.06-228.68-139-56.63-291.26-157.36-287.33C362.77,1022,350.12,1080.07,278.77,1040.23Z" transform="translate(-105.56 -111.69)"/><path class="cls-12" d="M285.45,1030.8a55.58,55.58,0,0,0,12.82-2.32c2.12-.53,4.15-1.34,6.2-2.07s4-1.72,6-2.64a76,76,0,0,0,20.71-15.35,97.94,97.94,0,0,0,14.91-21c1-1.91,1.85-3.91,2.78-5.86l2.8-6,1.48-3.23,1.67-3.08c1.07-2.09,2.31-4.06,3.55-6A138.7,138.7,0,0,1,397,923.53a108.06,108.06,0,0,1,25.3-12.39c2.28-.65,4.51-1.49,6.86-2l7-1.41,7.18-.66a24,24,0,0,1,3.6-.06l3.61.1a43.47,43.47,0,0,1,7.19.71,42.57,42.57,0,0,1,7.08,1.37c2.31.66,4.67,1.17,6.92,2l6.66,2.69a92.72,92.72,0,0,1,23.55,15.61c14,12.45,24.81,27.65,33.67,43.54,1.11,2,2.29,4,3.35,6l3,6.12c2,4.09,4.12,8.1,5.76,12.32L553,1010c1.65,4.2,3.13,8.47,4.64,12.72,3.18,8.46,5.52,17.17,8.21,25.75s4.6,17.4,6.81,26.1a1.41,1.41,0,0,1-2.69.81l0-.06-4.36-12.69c-1.48-4.21-2.71-8.51-4.34-12.67-3.21-8.32-6.06-16.78-9.71-24.89A344,344,0,0,0,528,977.49c-9.1-15-19.64-29.22-32.68-40.34-1.65-1.35-3.2-2.85-4.94-4.07l-5.24-3.6a38.56,38.56,0,0,0-5.42-3.23l-2.76-1.5a16.29,16.29,0,0,0-2.83-1.35l-5.81-2.32c-1.95-.7-4-1.1-6-1.68a35,35,0,0,0-6.09-1.14,35.51,35.51,0,0,0-6.17-.58l-3.1-.06a17.84,17.84,0,0,0-3.1.06l-6.21.55-6.14,1.18c-2.06.39-4,1.14-6.06,1.69a98.12,98.12,0,0,0-22.89,11A133.8,133.8,0,0,0,365.75,968c-1.21,1.78-2.43,3.56-3.47,5.42l-1.64,2.76L359.21,979l-3.07,6c-1.08,2-2.05,4.15-3.23,6.15A105.64,105.64,0,0,1,335.66,1013c-13.68,12.6-31.77,20.63-50.31,20.06a1.16,1.16,0,0,1-1.11-1.18,1.14,1.14,0,0,1,1.09-1.1Z" transform="translate(-105.56 -111.69)"/><path class="cls-13" d="M606.48,1055.86S742.15,1413.66,785,1488.1c49.76,86.4,195.07,31.34,187.84-41s-177-371.19-177-371.19Z" transform="translate(-105.56 -111.69)"/><polygon class="cls-14" points="684.23 683.53 1527.46 391.17 1518.61 1182.34 661.19 991.03 684.23 683.53"/><ellipse class="cls-15" cx="1528.26" cy="789.05" rx="82.84" ry="406.59"/><path class="cls-16" d="M1640.11,1279.53c-7.49-7.62-23.8-37-37.79-113-13.51-73.41-21-168.63-21-268.12s7.45-194.71,21-268.13c14-76,30.3-105.34,37.79-113,7.48,7.62,23.8,37,37.78,113,13.52,73.42,21,168.64,21,268.13s-7.44,194.71-21,268.12C1663.91,1242.54,1647.59,1271.91,1640.11,1279.53Z" transform="translate(-105.56 -111.69)"/><g class="cls-17"><path class="cls-18" d="M1746.29,895.42c0,69.08-37.22,125.09-110.87,125.09s-133.37-56-133.37-125.09,59.71-125.09,133.37-125.09S1746.29,826.33,1746.29,895.42Z" transform="translate(-105.56 -111.69)"/></g><path class="cls-19" d="M653.79,778.21c39.67-4.6,96.55-6.26,158.05,7.82-20.26,105.85-17.2,216.17,6.23,330.41H644.61A56.22,56.22,0,0,1,589.05,1069c-8.64-54.76-19.21-146.79-7.94-220.71A83.19,83.19,0,0,1,653.79,778.21Z" transform="translate(-105.56 -111.69)"/><path class="cls-20" d="M757.9,859.28H622.75a12.33,12.33,0,0,1-10.35-19,3.47,3.47,0,0,1,5.83,3.77,5.38,5.38,0,0,0,4.52,8.3H757.9a5.38,5.38,0,0,0,5.37-5.38v-9.62A5.38,5.38,0,0,0,757.9,832H621.74a3.48,3.48,0,0,1,0-7H757.9a12.34,12.34,0,0,1,12.32,12.32V847A12.34,12.34,0,0,1,757.9,859.28Z" transform="translate(-105.56 -111.69)"/><path class="cls-21" d="M745.85,919.13H610.7a12.32,12.32,0,0,1-10.35-19,3.47,3.47,0,1,1,5.83,3.78,5.37,5.37,0,0,0,4.52,8.29H745.85a5.38,5.38,0,0,0,5.37-5.37v-9.62a5.38,5.38,0,0,0-5.37-5.37H609.69a3.48,3.48,0,0,1,0-7H745.85a12.34,12.34,0,0,1,12.32,12.32v9.62A12.34,12.34,0,0,1,745.85,919.13Z" transform="translate(-105.56 -111.69)"/><path class="cls-22" d="M912.32,773.8a3.47,3.47,0,0,1-1.05-6.78l638.65-203.23a3.47,3.47,0,0,1,2.11,6.62L913.37,773.64A3.48,3.48,0,0,1,912.32,773.8Z" transform="translate(-105.56 -111.69)"/><path class="cls-23" d="M826,809.11a3.47,3.47,0,0,1-1.32-6.69L857.51,789a3.48,3.48,0,0,1,2.63,6.44l-32.87,13.43A3.4,3.4,0,0,1,826,809.11Z" transform="translate(-105.56 -111.69)"/><path class="cls-24" d="M757.9,989.23H622.75a12.32,12.32,0,0,1-10.35-19,3.47,3.47,0,1,1,5.83,3.78,5.38,5.38,0,0,0,4.52,8.29H757.9a5.38,5.38,0,0,0,5.37-5.37v-9.62a5.38,5.38,0,0,0-5.37-5.37H621.74a3.48,3.48,0,0,1,0-6.95H757.9a12.34,12.34,0,0,1,12.32,12.32v9.62A12.34,12.34,0,0,1,757.9,989.23Z" transform="translate(-105.56 -111.69)"/><path class="cls-25" d="M770.55,1067H635.4a12.32,12.32,0,0,1-10.35-19,3.48,3.48,0,1,1,5.84,3.78,5.37,5.37,0,0,0,4.51,8.29H770.55a5.38,5.38,0,0,0,5.38-5.37v-9.62a5.38,5.38,0,0,0-5.38-5.37H634.4a3.48,3.48,0,1,1,0-7H770.55a12.34,12.34,0,0,1,12.33,12.32v9.62A12.34,12.34,0,0,1,770.55,1067Z" transform="translate(-105.56 -111.69)"/><path class="cls-26" d="M891.26,1490.09a88.12,88.12,0,0,1-18.8-2,87,87,0,0,1-61.37-49.71l-108-239.89a3.47,3.47,0,0,1,6.33-2.85l108,239.89a80.08,80.08,0,0,0,56.52,45.77,78.45,78.45,0,0,0,69-17.66c1-.89,2-1.8,3.07-2.74a3.48,3.48,0,0,1,4.69,5.13q-1.59,1.46-3.18,2.85A85.09,85.09,0,0,1,891.26,1490.09Z" transform="translate(-105.56 -111.69)"/><path class="cls-27" d="M690.31,1165a3.48,3.48,0,0,1-3.17-2l-12-26.77a3.47,3.47,0,1,1,6.33-2.85l12.05,26.76a3.46,3.46,0,0,1-3.17,4.9Z" transform="translate(-105.56 -111.69)"/><path class="cls-28" d="M1726.55,891.82a3.48,3.48,0,0,1-3.47-3.23c-2.4-33.85-14.13-59.09-34.87-75-35.86-27.53-87-18.07-87.54-18a3.47,3.47,0,0,1-1.32-6.82c2.22-.43,54.78-10.14,93.09,19.28,22.39,17.18,35,44.11,37.58,80a3.49,3.49,0,0,1-3.23,3.71Z" transform="translate(-105.56 -111.69)"/><polygon class="cls-29" points="903.23 281.01 927.82 225.76 954.79 242.07 993.46 184.48 960.62 276.28 934.19 254.8 903.23 281.01"/><polygon class="cls-30" points="930.23 451.94 989.59 463.5 979.75 493.44 1044.55 518.19 947.72 506.81 962.72 476.23 930.23 451.94"/><path class="cls-31" d="M1039.47,476a4.87,4.87,0,0,1,.93-9.44c23.23-3,57.28-12.1,68.43-39.36,17.49-42.76-18.75-207.63,147.72-237.13,153.56-27.21,239.08,21.38,237.14,163.27C1491.8,490.87,1270.77,555.36,1039.47,476Z" transform="translate(-105.56 -111.69)"/><path class="cls-32" d="M1316.59,226.37c-2.68-3.49-6.44-5.22-10.22-4.72l-42.51,5.65c-3.49.46-6.68,2.79-8.79,6.42a20.15,20.15,0,0,0-2.34,12.71L1269.47,368a17.19,17.19,0,0,0,5.44,10.74,10.27,10.27,0,0,0,9.75,2.33l15.83-4.63c5.28-1.54,9.21-7.27,9.77-14.24l9.94-122.61A19.42,19.42,0,0,0,1316.59,226.37Z" transform="translate(-105.56 -111.69)"/><path class="cls-32" d="M1314.9,417.32c-1.17-7.66-6.35-12.83-12.37-12.83h-16.35c-7,0-12.34,6.62-12.34,15.65v20.69c0,8.33,4.7,15.33,11.08,16.25l19.87,2.88c4,.58,7.93-1.35,10.65-5.18a19.39,19.39,0,0,0,3.07-14.06Z" transform="translate(-105.56 -111.69)"/><path class="cls-11" d="M1630.4,1095.2h0c-2.33,0-4.65,0-7-.09a3.48,3.48,0,1,1,.12-6.95c2.31,0,4.61.07,6.92.09a3.48,3.48,0,0,1,0,7Zm16.21,0a3.48,3.48,0,0,1,0-7c2.3,0,4.61-.06,6.92-.11h.07a3.48,3.48,0,0,1,.06,6.95c-2.32.05-4.65.08-7,.11Zm-39.37-.51h-.13l-7-.27a3.48,3.48,0,0,1,.3-7l6.92.28a3.47,3.47,0,0,1-.12,6.94Zm62.53-.09a3.48,3.48,0,0,1-.15-6.95q3.42-.15,6.89-.36a3.48,3.48,0,0,1,.42,6.94q-3.53.21-7,.36Zm-85.67-1h-.21q-3.48-.21-7-.45a3.47,3.47,0,1,1,.47-6.93l6.91.44a3.47,3.47,0,0,1-.21,6.94Zm108.78-.62a3.47,3.47,0,0,1-.32-6.93c2.28-.22,4.56-.46,6.86-.71a3.48,3.48,0,1,1,.76,6.91q-3.5.39-7,.72Zm-131.89-1h-.29l-7-.61a3.47,3.47,0,1,1,.63-6.92l6.9.6a3.48,3.48,0,0,1-.29,6.94Zm154.9-1.7a3.48,3.48,0,0,1-.48-6.92q3.4-.48,6.84-1a3.47,3.47,0,1,1,1,6.87l-6.91,1A4.19,4.19,0,0,1,1715.89,1090.21Zm-178-.48-.36,0-6.94-.76a3.47,3.47,0,1,1,.78-6.9l6.88.74a3.48,3.48,0,0,1-.36,6.94Zm-23-2.67a3.25,3.25,0,0,1-.44,0l-6.92-.89a3.47,3.47,0,0,1,.91-6.89l6.88.88a3.48,3.48,0,0,1-.43,6.93Zm223.86-.55a3.47,3.47,0,0,1-.61-6.89q3.39-.61,6.79-1.27a3.48,3.48,0,0,1,1.32,6.83q-3.45.66-6.87,1.28A3.35,3.35,0,0,1,1738.77,1086.51ZM1492,1083.93l-.51,0-6-.89-.9-.14a3.47,3.47,0,1,1,1-6.87l.91.13,6,.89a3.47,3.47,0,0,1-.49,6.91Zm269.55-2a3.47,3.47,0,0,1-.73-6.87l6.75-1.5a3.48,3.48,0,0,1,1.54,6.78c-2.27.51-4.55,1-6.82,1.51A3.05,3.05,0,0,1,1761.5,1082Zm-292.43-1.64a2.94,2.94,0,0,1-.59,0c-2.29-.38-4.58-.78-6.87-1.18a3.48,3.48,0,0,1,1.21-6.85q3.4.62,6.82,1.18a3.47,3.47,0,0,1-.57,6.9Zm315-3.64a3.48,3.48,0,0,1-.85-6.85c2.24-.56,4.49-1.14,6.73-1.72a3.48,3.48,0,1,1,1.75,6.73l-6.78,1.73A3.61,3.61,0,0,1,1784.07,1076.7Zm-337.79-.48a3.68,3.68,0,0,1-.66-.06l-6.84-1.35a3.47,3.47,0,1,1,1.36-6.81c2.27.45,4.53.9,6.79,1.33a3.48,3.48,0,0,1-.65,6.89Zm-22.69-4.65a3.81,3.81,0,0,1-.74-.08l-6.8-1.5a3.48,3.48,0,0,1,1.52-6.79c2.25.51,4.51,1,6.76,1.5a3.47,3.47,0,0,1-.74,6.87Zm382.9-.86a3.48,3.48,0,0,1-.94-6.82l6.66-1.92a3.48,3.48,0,0,1,2,6.68l-6.72,1.93A3.51,3.51,0,0,1,1806.49,1070.71ZM1401,1066.39a3.34,3.34,0,0,1-.82-.1l-6.77-1.66a3.48,3.48,0,0,1,1.68-6.75l6.72,1.65a3.48,3.48,0,0,1-.81,6.86Zm427.69-2.31a3.47,3.47,0,0,1-1-6.79q3.3-1,6.59-2.1a3.47,3.47,0,1,1,2.14,6.61c-2.22.72-4.43,1.42-6.65,2.12A3.48,3.48,0,0,1,1828.71,1064.08Zm-450.14-3.4a3.46,3.46,0,0,1-.89-.12l-6.73-1.82a3.48,3.48,0,1,1,1.83-6.71c2.23.61,4.46,1.22,6.69,1.81a3.48,3.48,0,0,1-.9,6.84Zm472.16-3.84a3.48,3.48,0,0,1-1.14-6.76q3.27-1.12,6.53-2.28a3.47,3.47,0,1,1,2.32,6.55c-2.19.78-4.38,1.54-6.58,2.3A3.48,3.48,0,0,1,1850.73,1056.84Zm-494.47-2.4a3.25,3.25,0,0,1-1-.14q-3.35-1-6.69-2a3.47,3.47,0,0,1,2-6.65l6.64,2a3.47,3.47,0,0,1-1,6.81Zm516.25-5.44a3.48,3.48,0,0,1-1.22-6.73c2.16-.81,4.31-1.62,6.46-2.45a3.48,3.48,0,1,1,2.49,6.49c-2.16.83-4.33,1.66-6.51,2.47A3.46,3.46,0,0,1,1872.51,1049Zm-538.41-1.31a3.54,3.54,0,0,1-1-.17q-3.33-1.05-6.64-2.14a3.47,3.47,0,1,1,2.15-6.6l6.6,2.12a3.48,3.48,0,0,1-1.06,6.79Zm560-7.12a3.47,3.47,0,0,1-1.31-6.69c2.14-.87,4.28-1.75,6.4-2.64a3.48,3.48,0,1,1,2.67,6.42q-3.21,1.33-6.45,2.66A3.54,3.54,0,0,1,1894.08,1040.57Zm-582-.16a3.39,3.39,0,0,1-1.13-.19c-2.2-.76-4.4-1.52-6.59-2.3a3.47,3.47,0,1,1,2.31-6.55l6.54,2.28a3.48,3.48,0,0,1-1.13,6.76Zm-21.82-7.81a3.67,3.67,0,0,1-1.21-.21c-2.18-.81-4.35-1.63-6.53-2.46a3.47,3.47,0,1,1,2.47-6.49l6.48,2.43a3.47,3.47,0,0,1-1.21,6.73Zm625.13-1.07a3.48,3.48,0,0,1-1.41-6.66q3.18-1.39,6.33-2.82a3.47,3.47,0,0,1,2.86,6.33c-2.12,1-4.24,1.91-6.38,2.85A3.49,3.49,0,0,1,1915.42,1031.53Zm-646.75-7.25a3.44,3.44,0,0,1-1.29-.25q-3.24-1.29-6.47-2.61a3.47,3.47,0,1,1,2.62-6.43l6.43,2.59a3.47,3.47,0,0,1-1.29,6.7Zm667.81-2.43a3.47,3.47,0,0,1-1.5-6.61q3.13-1.5,6.23-3a3.47,3.47,0,1,1,3.06,6.24q-3.12,1.53-6.29,3A3.52,3.52,0,0,1,1936.48,1021.85Zm-689.23-6.42a3.5,3.5,0,0,1-1.37-.28l-6.4-2.77a3.48,3.48,0,1,1,2.78-6.37q3.16,1.38,6.36,2.75a3.47,3.47,0,0,1-1.37,6.67Zm710-3.92a3.48,3.48,0,0,1-1.61-6.56q3.09-1.61,6.12-3.23a3.48,3.48,0,0,1,3.28,6.13c-2,1.1-4.11,2.18-6.19,3.27A3.53,3.53,0,0,1,1957.22,1011.51Zm-731.16-5.46a3.39,3.39,0,0,1-1.45-.32c-2.11-1-4.23-1.94-6.33-2.92a3.48,3.48,0,1,1,2.94-6.3l6.28,2.9a3.48,3.48,0,0,1-1.44,6.64Zm751.51-5.63a3.48,3.48,0,0,1-1.74-6.49q3-1.73,5.94-3.48a3.47,3.47,0,1,1,3.57,6q-3,1.8-6,3.55A3.5,3.5,0,0,1,1977.57,1000.42Zm-772.47-4.28a3.45,3.45,0,0,1-1.52-.35q-3.13-1.53-6.26-3.09a3.47,3.47,0,0,1,3.1-6.22q3.11,1.54,6.21,3.06a3.48,3.48,0,0,1-1.53,6.6Zm792.17-7.84a3.48,3.48,0,0,1-1.92-6.38q2.87-1.89,5.7-3.83a3.48,3.48,0,0,1,3.93,5.74c-1.93,1.31-3.86,2.61-5.81,3.89A3.44,3.44,0,0,1,1997.27,988.3Zm-812.86-2.6a3.41,3.41,0,0,1-1.6-.39q-3.11-1.62-6.18-3.25a3.48,3.48,0,0,1,3.26-6.14c2,1.08,4.08,2.16,6.13,3.22a3.48,3.48,0,0,1-1.61,6.56ZM2016.18,975a3.48,3.48,0,0,1-2.08-6.26c1.83-1.37,3.66-2.76,5.47-4.16a3.47,3.47,0,0,1,4.25,5.49q-2.76,2.14-5.56,4.24A3.42,3.42,0,0,1,2016.18,975ZM1164,974.73a3.58,3.58,0,0,1-1.69-.44l-6.09-3.42a3.47,3.47,0,0,1,3.42-6q3,1.71,6,3.39a3.48,3.48,0,0,1-1.69,6.52Zm-20.12-11.52a3.47,3.47,0,0,1-1.77-.48q-3-1.79-6-3.58a3.47,3.47,0,1,1,3.58-5.95q3,1.78,6,3.54a3.48,3.48,0,0,1-1.77,6.47Zm890.4-2.58a3.48,3.48,0,0,1-2.24-6.13q2.63-2.22,5.2-4.48a3.48,3.48,0,1,1,4.59,5.22c-1.76,1.54-3.52,3.06-5.31,4.57A3.46,3.46,0,0,1,2034.28,960.63Zm-910.2-9.45a3.48,3.48,0,0,1-1.83-.52l-5.91-3.68a3.47,3.47,0,1,1,3.68-5.89l5.89,3.66a3.48,3.48,0,0,1-1.83,6.43Zm927.41-6a3.48,3.48,0,0,1-2.4-6q2.49-2.37,4.94-4.79a3.48,3.48,0,0,1,4.88,5c-1.66,1.63-3.33,3.26-5,4.87A3.47,3.47,0,0,1,2051.49,945.18Zm-947-6.33a3.47,3.47,0,0,1-1.87-.55l-5.86-3.75a3.47,3.47,0,1,1,3.75-5.85l5.85,3.74a3.48,3.48,0,0,1-1.87,6.41Zm963.29-10.12a3.48,3.48,0,0,1-2.54-5.85q2.34-2.52,4.64-5.07a3.47,3.47,0,0,1,5.17,4.64q-2.34,2.61-4.73,5.17A3.47,3.47,0,0,1,2067.76,928.73ZM1085,926.29a3.5,3.5,0,0,1-1.9-.56l-5.82-3.81a3.47,3.47,0,1,1,3.81-5.81l5.81,3.8a3.47,3.47,0,0,1-1.9,6.38Zm-19.36-12.73a3.37,3.37,0,0,1-1.91-.58l-5.8-3.85a3.47,3.47,0,0,1,3.85-5.78l5.79,3.84a3.48,3.48,0,0,1-1.93,6.37ZM2083,911.33a3.47,3.47,0,0,1-2.67-5.69q2.19-2.64,4.33-5.34a3.48,3.48,0,0,1,5.44,4.34q-2.19,2.73-4.42,5.43A3.46,3.46,0,0,1,2083,911.33ZM1046.37,900.7a3.44,3.44,0,0,1-1.93-.59l-5.77-3.87a3.48,3.48,0,1,1,3.88-5.77l5.76,3.87a3.47,3.47,0,0,1-1.94,6.36Zm1050.87-7.63a3.47,3.47,0,0,1-2.8-5.53c1.36-1.85,2.7-3.72,4-5.59a3.48,3.48,0,1,1,5.68,4q-2,2.85-4.09,5.69A3.47,3.47,0,0,1,2097.24,893.07Zm-1070.08-5.31a3.45,3.45,0,0,1-1.94-.59l-5.77-3.9a3.48,3.48,0,1,1,3.9-5.76l5.76,3.9a3.47,3.47,0,0,1-1.95,6.35Zm-19.19-13a3.44,3.44,0,0,1-2-.6l-5.75-3.89a3.48,3.48,0,0,1,3.89-5.76l5.76,3.9a3.47,3.47,0,0,1-1.95,6.35ZM2110.36,874a3.53,3.53,0,0,1-1.88-.55,3.48,3.48,0,0,1-1-4.81c1.24-1.93,2.47-3.86,3.68-5.81a3.48,3.48,0,0,1,5.91,3.66c-1.24,2-2.48,4-3.75,5.92A3.48,3.48,0,0,1,2110.36,874ZM988.77,861.81a3.49,3.49,0,0,1-1.94-.6l-5.76-3.88a3.48,3.48,0,0,1,3.88-5.77l5.77,3.89a3.48,3.48,0,0,1-2,6.36Zm1133.58-7.63a3.38,3.38,0,0,1-1.7-.45,3.47,3.47,0,0,1-1.32-4.73q1.7-3,3.34-6a3.48,3.48,0,1,1,6.11,3.32q-1.68,3.08-3.4,6.12A3.45,3.45,0,0,1,2122.35,854.18Zm-1152.81-5.3a3.49,3.49,0,0,1-1.93-.58l-5.78-3.86a3.48,3.48,0,0,1,3.86-5.78l5.78,3.86a3.47,3.47,0,0,1-1.93,6.36Zm-19.3-12.82a3.45,3.45,0,0,1-1.91-.58l-5.8-3.82a3.47,3.47,0,1,1,3.82-5.8l5.81,3.82a3.48,3.48,0,0,1-1.92,6.38Zm1182.92-2.36a3.4,3.4,0,0,1-1.53-.36,3.47,3.47,0,0,1-1.58-4.65q1.51-3.09,3-6.21a3.48,3.48,0,1,1,6.29,3q-1.49,3.16-3,6.32A3.48,3.48,0,0,1,2133.16,833.7ZM930.85,823.37a3.54,3.54,0,0,1-1.89-.55q-2.91-1.89-5.83-3.77a3.47,3.47,0,1,1,3.76-5.84q2.94,1.88,5.85,3.77a3.47,3.47,0,0,1-1.89,6.39Zm1211.92-10.75a3.4,3.4,0,0,1-1.35-.28,3.46,3.46,0,0,1-1.85-4.55c.89-2.11,1.76-4.24,2.61-6.37a3.47,3.47,0,1,1,6.45,2.58c-.86,2.17-1.75,4.34-2.66,6.49A3.48,3.48,0,0,1,2142.77,812.62ZM911.34,810.88a3.43,3.43,0,0,1-1.86-.54c-2-1.23-3.91-2.47-5.87-3.69a3.48,3.48,0,0,1,3.69-5.89l5.9,3.71a3.47,3.47,0,0,1-1.86,6.41Zm-19.67-12.25a3.44,3.44,0,0,1-1.81-.52l-5.92-3.61a3.48,3.48,0,0,1,3.61-5.94q3,1.8,6,3.63a3.48,3.48,0,0,1-1.83,6.44ZM2151.13,791a3.33,3.33,0,0,1-1.16-.2,3.47,3.47,0,0,1-2.12-4.43q1.16-3.25,2.24-6.52a3.48,3.48,0,0,1,6.6,2.2q-1.12,3.33-2.29,6.64A3.47,3.47,0,0,1,2151.13,791ZM871.84,786.66a3.45,3.45,0,0,1-1.77-.49l-6-3.52a3.48,3.48,0,1,1,3.52-6l6,3.54a3.48,3.48,0,0,1-1.77,6.47ZM851.8,775a3.42,3.42,0,0,1-1.71-.45l-6-3.41a3.47,3.47,0,0,1,3.4-6.06c2,1.14,4,2.28,6.06,3.43A3.47,3.47,0,0,1,851.8,775ZM2158.21,769a3.19,3.19,0,0,1-1-.14,3.47,3.47,0,0,1-2.38-4.3q1-3.32,1.86-6.64a3.47,3.47,0,1,1,6.71,1.81c-.61,2.26-1.24,4.52-1.89,6.76A3.48,3.48,0,0,1,2158.21,769ZM831.55,763.78a3.55,3.55,0,0,1-1.65-.42q-3-1.65-6.1-3.29a3.48,3.48,0,1,1,3.28-6.13l6.13,3.3a3.48,3.48,0,0,1-1.66,6.54ZM811.07,753a3.36,3.36,0,0,1-1.58-.39q-3.07-1.58-6.17-3.13a3.48,3.48,0,1,1,3.13-6.21l6.21,3.16a3.48,3.48,0,0,1-1.59,6.57ZM2164,746.51a3.49,3.49,0,0,1-3.39-4.24c.51-2.25,1-4.49,1.47-6.74a3.47,3.47,0,0,1,6.8,1.41c-.47,2.3-1,4.58-1.49,6.86A3.48,3.48,0,0,1,2164,746.51ZM790.33,742.65a3.52,3.52,0,0,1-1.5-.34q-3.12-1.48-6.25-2.94a3.48,3.48,0,1,1,2.93-6.31c2.11,1,4.22,2,6.32,3a3.47,3.47,0,0,1-1.5,6.61Zm-21.09-9.59a3.5,3.5,0,0,1-1.37-.28q-3.18-1.38-6.36-2.71a3.47,3.47,0,1,1,2.68-6.41c2.14.9,4.29,1.81,6.43,2.73a3.48,3.48,0,0,1-1.38,6.67ZM747.8,724.3a3.63,3.63,0,0,1-1.25-.23c-2.15-.83-4.31-1.65-6.46-2.45a3.48,3.48,0,1,1,2.42-6.52c2.18.82,4.36,1.64,6.54,2.48a3.48,3.48,0,0,1-1.25,6.72Zm1420.67-.53a3.66,3.66,0,0,1-.57,0,3.47,3.47,0,0,1-2.86-4q.55-3.4,1.07-6.81a3.47,3.47,0,1,1,6.87,1q-.51,3.48-1.09,6.94A3.47,3.47,0,0,1,2168.47,723.77ZM726,716.4a3.38,3.38,0,0,1-1.12-.19c-2.18-.74-4.37-1.47-6.55-2.18a3.48,3.48,0,1,1,2.15-6.61q3.33,1.08,6.64,2.21A3.48,3.48,0,0,1,726,716.4Zm-22.08-7a3.4,3.4,0,0,1-1-.15q-3.32-1-6.63-1.91a3.47,3.47,0,1,1,1.88-6.69q3.36.95,6.72,1.94a3.48,3.48,0,0,1-1,6.81Zm1467.65-8.59-.37,0a3.49,3.49,0,0,1-3.09-3.83q.36-3.42.67-6.86a3.47,3.47,0,1,1,6.92.61c-.21,2.33-.43,4.66-.68,7A3.48,3.48,0,0,1,2171.59,700.8Zm1.76-23.12h-.17a3.48,3.48,0,0,1-3.31-3.63q.16-3.45.26-6.9a3.48,3.48,0,0,1,6.95.2q-.1,3.51-.26,7A3.49,3.49,0,0,1,2173.35,677.68Zm.38-23.2a3.46,3.46,0,0,1-3.47-3.42q0-3.45-.15-6.89a3.48,3.48,0,0,1,6.95-.22q.11,3.51.15,7a3.47,3.47,0,0,1-3.43,3.52Zm-1-23.14a3.47,3.47,0,0,1-3.46-3.22c-.17-2.29-.35-4.58-.56-6.87a3.47,3.47,0,1,1,6.92-.63q.32,3.5.57,7a3.48,3.48,0,0,1-3.21,3.72Zm-2.36-23.05a3.47,3.47,0,0,1-3.44-3q-.46-3.4-1-6.82a3.47,3.47,0,1,1,6.87-1c.35,2.31.68,4.63,1,6.94a3.46,3.46,0,0,1-3,3.9Zm-3.74-22.86a3.46,3.46,0,0,1-3.4-2.81c-.36-1.86-.74-3.71-1.12-5.56l-.25-1.19a3.47,3.47,0,1,1,6.79-1.46l.26,1.23c.39,1.88.77,3.77,1.14,5.65a3.49,3.49,0,0,1-2.75,4.08A3.79,3.79,0,0,1,2166.64,585.43Zm-5.14-22.58a3.48,3.48,0,0,1-3.36-2.59c-.58-2.22-1.19-4.42-1.83-6.62a3.48,3.48,0,0,1,6.68-1.92c.65,2.24,1.27,4.5,1.87,6.76a3.49,3.49,0,0,1-3.36,4.37Zm-6.73-22.16a3.48,3.48,0,0,1-3.29-2.34q-1.11-3.26-2.31-6.46a3.48,3.48,0,0,1,6.52-2.42q1.21,3.28,2.37,6.62a3.48,3.48,0,0,1-3.29,4.6Zm-8.38-21.58a3.48,3.48,0,0,1-3.19-2.09c-.91-2.1-1.84-4.18-2.8-6.26a3.47,3.47,0,1,1,6.3-2.92q1.49,3.18,2.88,6.41a3.48,3.48,0,0,1-1.8,4.58A3.56,3.56,0,0,1,2146.39,519.11Zm-10.07-20.84a3.49,3.49,0,0,1-3.07-1.84q-1.62-3-3.31-6a3.48,3.48,0,0,1,6-3.44q1.74,3.06,3.4,6.16a3.47,3.47,0,0,1-1.42,4.7A3.37,3.37,0,0,1,2136.32,498.27Zm-11.8-19.92a3.45,3.45,0,0,1-2.91-1.57c-1.26-1.91-2.53-3.81-3.83-5.69a3.47,3.47,0,0,1,5.71-4q2,2.89,3.93,5.84a3.48,3.48,0,0,1-1,4.81A3.43,3.43,0,0,1,2124.52,478.35ZM2111,459.57a3.45,3.45,0,0,1-2.72-1.32q-2.13-2.69-4.34-5.31a3.47,3.47,0,1,1,5.32-4.47c1.52,1.8,3,3.62,4.46,5.46a3.48,3.48,0,0,1-2.72,5.64Zm-15.24-17.45a3.44,3.44,0,0,1-2.5-1.06q-2.38-2.47-4.83-4.87a3.48,3.48,0,0,1,4.87-5c1.68,1.65,3.34,3.32,5,5a3.47,3.47,0,0,1-2.5,5.88Zm-16.86-15.89a3.47,3.47,0,0,1-2.26-.83q-2.6-2.22-5.28-4.37a3.47,3.47,0,0,1,4.35-5.42c1.85,1.48,3.66,3,5.45,4.5a3.47,3.47,0,0,1,.38,4.9A3.43,3.43,0,0,1,2078.88,426.23Zm-18.36-14.15a3.43,3.43,0,0,1-2-.62c-1.87-1.3-3.77-2.57-5.68-3.82a3.48,3.48,0,1,1,3.79-5.83q3,1.94,5.85,3.94a3.48,3.48,0,0,1-2,6.33Zm-19.64-12.27a3.49,3.49,0,0,1-1.7-.45q-2.94-1.65-6-3.3a3.47,3.47,0,0,1,3.27-6.13c2.12,1.12,4.18,2.25,6.17,3.37a3.48,3.48,0,0,1-1.7,6.51Zm-20.59-10.65a3.46,3.46,0,0,1-1.5-.34q-3.07-1.47-6.25-2.93a3.48,3.48,0,0,1,2.9-6.32q3.22,1.49,6.35,3a3.48,3.48,0,0,1-1.5,6.61Zm-21.17-9.46a3.3,3.3,0,0,1-1.33-.27c-2.11-.87-4.24-1.75-6.4-2.61a3.48,3.48,0,1,1,2.59-6.45c2.18.87,4.35,1.76,6.48,2.65a3.47,3.47,0,0,1-1.34,6.68Zm-21.59-8.43a3.6,3.6,0,0,1-1.19-.21c-2.15-.79-4.32-1.56-6.5-2.33a3.47,3.47,0,1,1,2.29-6.56c2.21.78,4.41,1.56,6.59,2.36a3.47,3.47,0,0,1-1.19,6.74Zm-21.94-7.45a3.82,3.82,0,0,1-1-.16c-2.19-.7-4.4-1.37-6.6-2a3.48,3.48,0,1,1,2-6.66q3.36,1,6.7,2a3.48,3.48,0,0,1-1,6.8Zm-22.28-6.42a3.79,3.79,0,0,1-.88-.11c-2.23-.58-4.46-1.15-6.68-1.69a3.47,3.47,0,0,1,1.65-6.75q3.39.82,6.78,1.71a3.48,3.48,0,0,1-.87,6.84Zm-22.57-5.22a4,4,0,0,1-.69-.07c-2.26-.46-4.52-.89-6.76-1.29a3.47,3.47,0,0,1,1.23-6.84q3.43.61,6.9,1.31a3.48,3.48,0,0,1-.68,6.89Zm-76-3.52a3.48,3.48,0,0,1-.65-6.89c2.28-.44,4.66-.82,7.08-1.12a3.48,3.48,0,1,1,.87,6.9c-2.27.28-4.5.63-6.64,1A3,3,0,0,1,1834.78,348.66Zm53.09-.26-.44,0c-2.29-.29-4.56-.54-6.82-.77a3.48,3.48,0,0,1,.7-6.92c2.31.24,4.64.5,7,.8a3.47,3.47,0,0,1-.44,6.92Zm-23.09-1.83h-.1c-1.62-.05-3.23-.07-4.82-.07h-2a3.43,3.43,0,0,1-3.51-3.43,3.47,3.47,0,0,1,3.43-3.52h2.07c1.66,0,3.33,0,5,.07a3.48,3.48,0,0,1-.09,6.95Z" transform="translate(-105.56 -111.69)"/><polygon class="cls-3" points="1690.88 201.43 1706.22 240.89 1672.9 234.32 1690.88 201.43"/><path class="cls-4" d="M1610.18,359.47l142.91,52a10.74,10.74,0,0,0,13.87-6.79l46.84-145.45a4.3,4.3,0,0,0-6.11-5.11Z" transform="translate(-105.56 -111.69)"/><polygon class="cls-3" points="1690.86 201.44 1504.62 247.77 1683.38 224.94 1688.1 235.7 1690.86 201.44"/><polygon class="cls-3" points="1678.83 238.84 1706.22 240.89 1683.38 224.94 1678.83 238.84"/><path class="cls-4" d="M547.11,1532.35a6.89,6.89,0,0,0,7-5.27l110-582.28c.65-3.44-1.94-6.69-5.79-7.27s-7.5,1.73-8.15,5.17L540.13,1525c-.65,3.44,1.94,6.7,5.8,7.28A7.81,7.81,0,0,0,547.11,1532.35Z" transform="translate(-105.56 -111.69)"/><path class="cls-4" d="M918.2,1532.35a7.63,7.63,0,0,0,1.41-.13c3.82-.69,6.3-4,5.53-7.44L795.47,950.08c-.77-3.42-4.49-5.65-8.33-4.94s-6.3,4-5.53,7.44l129.67,574.7A6.92,6.92,0,0,0,918.2,1532.35Z" transform="translate(-105.56 -111.69)"/><path class="cls-4" d="M631,1088.7H819c3.91,0,7.08-2.83,7.08-6.32s-3.17-6.31-7.08-6.31H631c-3.9,0-7.07,2.82-7.07,6.31S627.14,1088.7,631,1088.7Z" transform="translate(-105.56 -111.69)"/><path class="cls-4" d="M634.45,1088.7H815.6a6.33,6.33,0,1,0,0-12.63H634.45a6.33,6.33,0,1,0,0,12.63Z" transform="translate(-105.56 -111.69)"/><path class="cls-4" d="M631,1194H819c3.91,0,7.08-2.82,7.08-6.31s-3.17-6.32-7.08-6.32H631c-3.9,0-7.07,2.83-7.07,6.32S627.14,1194,631,1194Z" transform="translate(-105.56 -111.69)"/><path class="cls-4" d="M614,1194H841.86c3.91,0,7.08-2.82,7.08-6.31s-3.17-6.32-7.08-6.32H614c-3.9,0-7.07,2.83-7.07,6.32S610.07,1194,614,1194Z" transform="translate(-105.56 -111.69)"/><path class="cls-4" d="M631,1299.27H819c3.91,0,7.08-2.83,7.08-6.32s-3.17-6.32-7.08-6.32H631c-3.9,0-7.07,2.83-7.07,6.32S627.14,1299.27,631,1299.27Z" transform="translate(-105.56 -111.69)"/><path class="cls-4" d="M592.21,1299.27H865c3.91,0,7.07-2.83,7.07-6.32s-3.16-6.32-7.07-6.32H592.21c-3.91,0-7.07,2.83-7.07,6.32S588.3,1299.27,592.21,1299.27Z" transform="translate(-105.56 -111.69)"/><path class="cls-4" d="M631,1404.55H886.92c3.91,0,7.07-2.83,7.07-6.32s-3.16-6.31-7.07-6.31H631c-3.9,0-7.07,2.82-7.07,6.31S627.14,1404.55,631,1404.55Z" transform="translate(-105.56 -111.69)"/><path class="cls-4" d="M574.6,1404.55H886.92c3.91,0,7.07-2.83,7.07-6.32s-3.16-6.31-7.07-6.31H574.6c-3.91,0-7.07,2.82-7.07,6.31S570.69,1404.55,574.6,1404.55Z" transform="translate(-105.56 -111.69)"/><path class="cls-33" d="M699,577.82s63.25,77,86.52,58.48S746,516.54,746,516.54Z" transform="translate(-105.56 -111.69)"/><path class="cls-34" d="M701.62,1078a4.42,4.42,0,0,0-.12-1.14c-5.71-22.65-34.07-36.76-34.07-36.76l-11.23.88c-6.46,20-5.63,32.21-4.59,37.66a3.69,3.69,0,0,0,.11.45A267.78,267.78,0,0,0,701.62,1078Z" transform="translate(-105.56 -111.69)"/><path class="cls-35" d="M651.68,1024.28l4.76,22.9a3.76,3.76,0,0,0,3.2,3.09,31.85,31.85,0,0,0,7.37-.12,4.7,4.7,0,0,0,3.73-5.53l-3.31-20.34Z" transform="translate(-105.56 -111.69)"/><path class="cls-36" d="M801.14,1077a2.78,2.78,0,0,0-.27-.51c-6-8.41-21.34-25.15-51.62-32.41l-14.53-.46s-6.47,11.24-6.59,32.07c3.32,1.36,9.74,2.82,22.15,3.17C769.46,1079.42,792.21,1077.77,801.14,1077Z" transform="translate(-105.56 -111.69)"/><path class="cls-37" d="M732,1021.63c.16,1.09,2.15,17.55,2.92,23.93a3.15,3.15,0,0,0,2.67,2.85,33,33,0,0,0,10-.15,4.3,4.3,0,0,0,3.25-4.31v-25.84Z" transform="translate(-105.56 -111.69)"/><path class="cls-38" d="M720.37,721.29s35,133.16,34.41,300.73a6.49,6.49,0,0,1-5.15,6.32,76,76,0,0,1-16.24,1.88,6,6,0,0,1-5.74-5c-4.91-28.81-33.1-191.12-49.17-217.47,0,0-10.57,144.56-7.19,219.56a3.56,3.56,0,0,1-3.13,3.7,60,60,0,0,1-13,0,4.75,4.75,0,0,1-4.24-4c-3.5-24.38-23.64-169.52-22.79-274.08,0-5.89,15.59-31.53,15.59-31.53Z" transform="translate(-105.56 -111.69)"/><path class="cls-39" d="M744.51,517.2c-48.22-7-101.19-.58-126.9,2.66a33.87,33.87,0,0,0-21.42,11.5c-21.76,25.17-69.49,94.1-13.31,163.55,7.19-4,17.41-10.39,24.35-17.8-6.22-17.52-6.73-39.92,6.3-67.38a65.13,65.13,0,0,0,1.67,6.46c17.95,56.88,18.91,104.21,18.87,115.12a3.59,3.59,0,0,0,2.26,3.37c23.63,9.47,69.12,3.83,84.39,1.56a5.13,5.13,0,0,0,4.29-5.83c-5.37-38.91,12.87-95.82,27.37-133.17C758.11,582.47,747.51,521.33,744.51,517.2Z" transform="translate(-105.56 -111.69)"/><path class="cls-40" d="M667.65,460.63l-6.66,55a5.16,5.16,0,0,0,3.65,5.57c7.23,2.11,22.69,5.31,36.83-.51a6,6,0,0,0,3.55-6.84l-8.42-38.73Z" transform="translate(-105.56 -111.69)"/><path class="cls-41" d="M710.81,421.52c.42.76,9.33,57.26,9.33,57.26l-32.38,4.4-16.4-52.3S703.85,408.81,710.81,421.52Z" transform="translate(-105.56 -111.69)"/><path class="cls-42" d="M683.36,436.09a4.69,4.69,0,0,0-.94,4l6.38,27.8a4.73,4.73,0,0,0,.46,1.2c1.16,2.08,5.38,8.43,11.76,3.74,5.45-4,10.5-7.6,14.9-8.33a4.69,4.69,0,0,1,5.38,3.94,174.32,174.32,0,0,1,2.18,25.76,4.67,4.67,0,0,1-4.36,4.6c-6.41.46-19,1-29.34-.9a4.7,4.7,0,0,1-3.64-3.17c-2.37-7.24-9.09-27.53-11.87-33-2.58-5.05-10.1-5.91-13.57-6a4.71,4.71,0,0,1-3.41-1.63c-2.6-3-6.65-9.66,1.16-16.17a4.7,4.7,0,0,0,.6-6.51c-2.83-3.54-5.29-9.26.77-15.24s13.08-4.53,17.48-2.48a4.86,4.86,0,0,0,5.74-1.12,3.1,3.1,0,0,1,2.89-1.06,4.56,4.56,0,0,0,5.16-3.95c.53-4.38,2.89-9.54,10.65-11,14.23-2.71,21.28,11.55,21,21.55S706.86,430.21,698,428.52C691.53,427.28,685.89,433,683.36,436.09Z" transform="translate(-105.56 -111.69)"/><path class="cls-43" d="M676.73,472s-.25-17.45-7.31-19.11-14.7,3.43-8.68,13.89C668.21,479.84,676.73,472,676.73,472Z" transform="translate(-105.56 -111.69)"/><path class="cls-44" d="M611.15,605.48c-9.53-26.07-6.07-57.54-6-57.85l2.62.3c0,.3-3.42,31.18,5.89,56.64Z" transform="translate(-105.56 -111.69)"/><path class="cls-45" d="M677.19,804.33a1.32,1.32,0,0,1-1.27-1C673,792.13,651.25,779.81,651,779.69a1.32,1.32,0,0,1,1.3-2.3c.93.52,23,13,26.14,25.28a1.31,1.31,0,0,1-.94,1.61A1.33,1.33,0,0,1,677.19,804.33Z" transform="translate(-105.56 -111.69)"/><path class="cls-46" d="M607.23,677.11c-6.94,7.41-17.16,13.81-24.35,17.8,10.74,13.27,25.27,26.56,44.5,39.57l2.33,5.22A13,13,0,0,0,641,747.37c26.88,1.28,34.32-4.42,9.58-21.68C650.53,725.69,618.88,709.94,607.23,677.11Z" transform="translate(-105.56 -111.69)"/><path class="cls-47" d="M804.86,560.46s-33.91,35.26-41.75,48,.88,36.09,18.69,30.68,38.52-66.59,38.52-66.59Z" transform="translate(-105.56 -111.69)"/><path class="cls-48" d="M748.09,510.38s29.81,78.61,39.22,95c10.94,19,42.86,6.89,41.27-9s-38.89-81.55-38.89-81.55Z" transform="translate(-105.56 -111.69)"/><polygon class="cls-49" points="682.81 341.42 868.07 277.18 866.13 451.01 677.74 408.98 682.81 341.42"/><path class="cls-50" d="M992,476.3c0,49.33-8.15,89.33-18.2,89.33s-18.21-40-18.21-89.33S963.75,387,973.81,387,992,427,992,476.3Z" transform="translate(-105.56 -111.69)"/><path class="cls-51" d="M975.19,559.52c-1.65-1.68-5.23-8.13-8.3-24.82-3-16.13-4.61-37.05-4.61-58.91s1.64-42.78,4.61-58.91c3.07-16.69,6.65-23.14,8.3-24.82,1.64,1.68,5.23,8.13,8.3,24.82,3,16.13,4.6,37.05,4.6,58.91s-1.63,42.78-4.6,58.91C980.42,551.39,976.83,557.84,975.19,559.52Z" transform="translate(-105.56 -111.69)"/><g class="cls-52"><path class="cls-53" d="M998.52,475.13c0,15.17-8.18,27.48-24.36,27.48s-29.31-12.31-29.31-27.48,13.12-27.49,29.31-27.49S998.52,460,998.52,475.13Z" transform="translate(-105.56 -111.69)"/></g><path class="cls-54" d="M758.48,449.37a104,104,0,0,1,34.73,1.72c-4.45,23.26-3.78,47.5,1.37,72.6H756.47a12.36,12.36,0,0,1-12.21-10.42c-1.9-12-4.22-32.25-1.75-48.49A18.29,18.29,0,0,1,758.48,449.37Z" transform="translate(-105.56 -111.69)"/><path class="cls-55" d="M781.36,467.63h-29.7a3.16,3.16,0,0,1-2.64-4.87,1.22,1.22,0,0,1,1.67-.35,1.2,1.2,0,0,1,.35,1.67.74.74,0,0,0,.62,1.14h29.7a.75.75,0,0,0,.74-.74v-2.12a.74.74,0,0,0-.74-.73H751.44a1.21,1.21,0,0,1,0-2.42h29.92a3.16,3.16,0,0,1,3.15,3.15v2.12A3.16,3.16,0,0,1,781.36,467.63Z" transform="translate(-105.56 -111.69)"/><path class="cls-56" d="M778.71,480.78H749a3.15,3.15,0,0,1-2.65-4.86,1.21,1.21,0,0,1,2,1.31.69.69,0,0,0,0,.75.71.71,0,0,0,.65.39h29.69a.74.74,0,0,0,.74-.74v-2.11a.74.74,0,0,0-.74-.74H748.79a1.21,1.21,0,0,1,0-2.42h29.92a3.16,3.16,0,0,1,3.15,3.16v2.11A3.16,3.16,0,0,1,778.71,480.78Z" transform="translate(-105.56 -111.69)"/><path class="cls-57" d="M815.29,448.85a1.21,1.21,0,0,1-.37-2.36l140.32-44.65a1.21,1.21,0,0,1,.73,2.3L815.65,448.79A1.13,1.13,0,0,1,815.29,448.85Z" transform="translate(-105.56 -111.69)"/><path class="cls-58" d="M796.31,456.61a1.21,1.21,0,0,1-.46-2.33l7.22-2.95a1.21,1.21,0,1,1,.92,2.23l-7.22,3A1.25,1.25,0,0,1,796.31,456.61Z" transform="translate(-105.56 -111.69)"/><path class="cls-59" d="M781.36,496.18h-29.7a3.15,3.15,0,0,1-2.64-4.86,1.2,1.2,0,1,1,2,1.31.74.74,0,0,0,.62,1.14h29.7a.74.74,0,0,0,.74-.74v-2.11a.74.74,0,0,0-.74-.74H751.44a1.21,1.21,0,0,1,0-2.41h29.92a3.16,3.16,0,0,1,3.15,3.15V493A3.16,3.16,0,0,1,781.36,496.18Z" transform="translate(-105.56 -111.69)"/><path class="cls-60" d="M784.14,513.28h-29.7a3.16,3.16,0,0,1-2.64-4.87,1.2,1.2,0,0,1,2,1.31.74.74,0,0,0,.62,1.14h29.7a.74.74,0,0,0,.74-.73V508a.75.75,0,0,0-.74-.74H754.22a1.21,1.21,0,0,1,0-2.41h29.92a3.16,3.16,0,0,1,3.15,3.15v2.12A3.16,3.16,0,0,1,784.14,513.28Z" transform="translate(-105.56 -111.69)"/><path class="cls-61" d="M810.66,606.22a19.8,19.8,0,0,1-18-11.63l-23.72-52.7a1.2,1.2,0,0,1,.6-1.6,1.22,1.22,0,0,1,1.6.61l23.72,52.7A17.16,17.16,0,0,0,807,603.41a16.8,16.8,0,0,0,14.78-3.78l.67-.6a1.21,1.21,0,0,1,1.63,1.78l-.71.63A19.1,19.1,0,0,1,810.66,606.22Z" transform="translate(-105.56 -111.69)"/><path class="cls-62" d="M766.51,534.81a1.21,1.21,0,0,1-1.1-.72l-2.65-5.88a1.21,1.21,0,0,1,2.2-1l2.65,5.88a1.21,1.21,0,0,1-.61,1.6A1.24,1.24,0,0,1,766.51,534.81Z" transform="translate(-105.56 -111.69)"/><path class="cls-63" d="M994.18,474.78a1.2,1.2,0,0,1-1.2-1.12c-.52-7.3-3-12.74-7.48-16.15-7.7-5.93-18.78-3.9-18.9-3.88a1.2,1.2,0,0,1-1.41-1,1.22,1.22,0,0,1,1-1.41c.49-.09,12.23-2.26,20.81,4.32,5,3.86,7.85,9.88,8.42,17.9a1.2,1.2,0,0,1-1.12,1.29Z" transform="translate(-105.56 -111.69)"/><path class="cls-64" d="M792,540.19s9.67-8.21,17.22,0,9,22.52,7.51,23.21S768.51,552.51,792,540.19Z" transform="translate(-105.56 -111.69)"/><path class="cls-65" d="M2009.05,1307.31l-17.59-21a22.64,22.64,0,0,1-4.42-20.48,241.84,241.84,0,0,0,8.18-54.58,22.68,22.68,0,0,1,10.25-18.31l23-14.94a27.1,27.1,0,0,0,11.55-29.27l-8.33-33.5a27.1,27.1,0,0,0-23.91-20.46l-27.32-2.42a22.7,22.7,0,0,1-17.63-11.38,242.08,242.08,0,0,0-32.78-44.41,22.64,22.64,0,0,1-5.68-20.16l5.7-26.81a27.09,27.09,0,0,0-12.53-28.86L1888,942.91a27.09,27.09,0,0,0-31.37,2.43l-21,17.6a22.71,22.71,0,0,1-20.48,4.42,241.92,241.92,0,0,0-54.59-8.18,22.68,22.68,0,0,1-18.31-10.25l-14.93-23A27.1,27.1,0,0,0,1698,914.37l-33.5,8.33a27.09,27.09,0,0,0-20.46,23.91l-2.43,27.32a22.65,22.65,0,0,1-11.38,17.63,241.89,241.89,0,0,0-44.4,32.78,22.65,22.65,0,0,1-20.17,5.68l-26.81-5.7a27.1,27.1,0,0,0-28.86,12.53l-17.8,29.58a27.11,27.11,0,0,0,2.44,31.37l17.59,21a22.65,22.65,0,0,1,4.42,20.48,242.49,242.49,0,0,0-8.18,54.59,22.67,22.67,0,0,1-10.24,18.31l-23,14.93a27.11,27.11,0,0,0-11.54,29.27l8.32,33.5a27.1,27.1,0,0,0,23.91,20.46l27.33,2.42a22.68,22.68,0,0,1,17.62,11.39,242.35,242.35,0,0,0,32.78,44.4,22.66,22.66,0,0,1,5.69,20.17l-5.71,26.8a27.12,27.12,0,0,0,12.53,28.87l29.58,17.8a27.11,27.11,0,0,0,31.37-2.44l21-17.59a22.67,22.67,0,0,1,20.49-4.42,242.32,242.32,0,0,0,54.58,8.18,22.67,22.67,0,0,1,18.31,10.24l14.93,23a27.12,27.12,0,0,0,29.28,11.55l33.5-8.32a27.09,27.09,0,0,0,20.45-23.91l2.43-27.33a22.65,22.65,0,0,1,11.38-17.62,241.73,241.73,0,0,0,44.4-32.79,22.69,22.69,0,0,1,20.17-5.68l26.81,5.71a27.12,27.12,0,0,0,28.86-12.53l17.8-29.58A27.11,27.11,0,0,0,2009.05,1307.31Zm-342.92,76.92c-100.33-47.34-143.3-167.06-96-267.39s167.06-143.3,267.39-96,143.3,167.05,96,267.39S1766.47,1431.57,1666.13,1384.23Z" transform="translate(-105.56 -111.69)"/><path class="cls-66" d="M1799.15,1495a30.58,30.58,0,0,1-25.65-13.93l-14.93-23a19.27,19.27,0,0,0-15.52-8.66,245.84,245.84,0,0,1-55.37-8.3,19.26,19.26,0,0,0-17.35,3.73l-21,17.59a30.57,30.57,0,0,1-35.39,2.75l-29.58-17.8a30.59,30.59,0,0,1-14.14-32.56l5.71-26.81a19.24,19.24,0,0,0-4.83-17.07,245.94,245.94,0,0,1-33.25-45,19.22,19.22,0,0,0-14.92-9.65l-27.33-2.43a30.58,30.58,0,0,1-27-23.08l-8.33-33.5a30.61,30.61,0,0,1,13-33l23-14.94a19.25,19.25,0,0,0,8.67-15.51,246.22,246.22,0,0,1,8.29-55.37,19.19,19.19,0,0,0-3.73-17.35L1492,1100a30.62,30.62,0,0,1-2.75-35.4l17.81-29.57a30.56,30.56,0,0,1,32.56-14.14l26.8,5.7a19.25,19.25,0,0,0,17.08-4.82,245.6,245.6,0,0,1,45-33.25,19.26,19.26,0,0,0,9.65-14.93l2.43-27.32a30.57,30.57,0,0,1,23.08-27l33.5-8.33a30.58,30.58,0,0,1,33,13l14.94,23a19.22,19.22,0,0,0,15.51,8.67A245.26,245.26,0,0,1,1816,964a19.22,19.22,0,0,0,17.35-3.73l21-17.59a30.57,30.57,0,0,1,35.39-2.75l29.58,17.8a30.58,30.58,0,0,1,14.14,32.56l-5.71,26.81a19.23,19.23,0,0,0,4.83,17.07,245.67,245.67,0,0,1,33.25,45,19.27,19.27,0,0,0,14.92,9.65l27.33,2.42a30.58,30.58,0,0,1,27,23.08l8.33,33.5a30.6,30.6,0,0,1-13,33l-23,14.93a19.25,19.25,0,0,0-8.67,15.52,245.82,245.82,0,0,1-8.29,55.37,19.2,19.2,0,0,0,3.73,17.34l17.59,21a30.59,30.59,0,0,1,2.75,35.39l-17.8,29.58a30.61,30.61,0,0,1-32.57,14.14l-26.8-5.71a19.22,19.22,0,0,0-17.08,4.83,245.72,245.72,0,0,1-45,33.25,19.24,19.24,0,0,0-9.65,14.92l-2.42,27.32a30.61,30.61,0,0,1-23.09,27l-33.5,8.32A30.47,30.47,0,0,1,1799.15,1495Zm-116.57-61.53a26.71,26.71,0,0,1,6.91.91,238.9,238.9,0,0,0,53.8,8.06,26.23,26.23,0,0,1,21.11,11.83l14.93,23a23.64,23.64,0,0,0,25.52,10.07l33.5-8.33a23.62,23.62,0,0,0,17.83-20.84l2.43-27.32a26.16,26.16,0,0,1,13.11-20.34,238.69,238.69,0,0,0,43.76-32.31,26.23,26.23,0,0,1,23.26-6.54l26.81,5.71a23.62,23.62,0,0,0,25.16-10.93l17.8-29.57a23.63,23.63,0,0,0-2.12-27.35l-17.59-21a26.14,26.14,0,0,1-5.11-23.61,239.47,239.47,0,0,0,8.06-53.8,26.19,26.19,0,0,1,11.82-21.11l23-14.93a23.64,23.64,0,0,0,10.06-25.52l-8.32-33.5a23.62,23.62,0,0,0-20.85-17.83l-27.32-2.43a26.21,26.21,0,0,1-20.33-13.11,239.1,239.1,0,0,0-32.31-43.77,26.15,26.15,0,0,1-6.54-23.26l5.7-26.8a23.62,23.62,0,0,0-10.92-25.16l-29.58-17.81a23.66,23.66,0,0,0-27.35,2.13l-21,17.59a26.16,26.16,0,0,1-23.62,5.11,238.82,238.82,0,0,0-53.8-8.06,26.2,26.2,0,0,1-21.1-11.83l-14.94-23a23.63,23.63,0,0,0-25.52-10.06l-33.5,8.32a23.64,23.64,0,0,0-17.83,20.84l-2.42,27.33A26.21,26.21,0,0,1,1632,994.57a238.76,238.76,0,0,0-43.77,32.31,26.19,26.19,0,0,1-23.26,6.54l-26.81-5.7a23.62,23.62,0,0,0-25.16,10.92l-17.8,29.58a23.63,23.63,0,0,0,2.13,27.35l17.59,21a26.21,26.21,0,0,1,5.11,23.62A238.73,238.73,0,0,0,1512,1194a26.2,26.2,0,0,1-11.83,21.1l-23,14.94a23.62,23.62,0,0,0-10.07,25.51l8.33,33.5a23.63,23.63,0,0,0,20.84,17.84l27.32,2.42a26.24,26.24,0,0,1,20.34,13.11,237.84,237.84,0,0,0,32.31,43.77,26.21,26.21,0,0,1,6.54,23.26l-5.71,26.81a23.63,23.63,0,0,0,10.93,25.16l29.57,17.8a23.64,23.64,0,0,0,27.35-2.13l21-17.59A26,26,0,0,1,1682.58,1433.48Zm69-26.59a203.16,203.16,0,0,1-86.88-19.52h0c-101.91-48.08-145.7-170.11-97.62-272s170.1-145.7,272-97.61,145.7,170.1,97.62,272C1901.83,1363.57,1828.21,1406.89,1751.53,1406.89Zm-83.92-25.81c98.44,46.44,216.32,4.15,262.77-94.3s4.14-216.31-94.3-262.76-216.32-4.14-262.77,94.3S1569.17,1334.64,1667.61,1381.08Z" transform="translate(-105.56 -111.69)"/><path class="cls-67" d="M1632.11,1146.76s86.19-21.63,177.25-8.59a88.53,88.53,0,0,1,62.14,40.46c24.92,39.42,60.14,109.68,52.69,182.95l-39.1,9.67s-27-87-57.44-122.34c0,0-36,82.1-34.2,127.19,0,1.27.13,2.52.25,3.73,4.13,44.11-172.91,8.23-172.91,8.23Z" transform="translate(-105.56 -111.69)"/><path class="cls-68" d="M1701.66,1072.66l3.93,61.13a13.28,13.28,0,0,0,9.21,12c11.89,3.52,34.33,7.76,56.33-1.11a8.76,8.76,0,0,0,4.75-10.74l-29.11-93.48Z" transform="translate(-105.56 -111.69)"/><path class="cls-69" d="M1691.82,984.12s-18.59,42.71-19.84,65.12-6.08,37,19.84,41.48,47.75-8.4,59.58-30.73c0,0,18.53-34.4,14.38-48.49S1691.82,984.12,1691.82,984.12Z" transform="translate(-105.56 -111.69)"/><path class="cls-70" d="M1742.55,1043.94h-3.28s13.5-27.69,1.64-32.56-58.85-14.44-69-31.12c-9.77-16.07-1.06-36.83,12-42.64a1.74,1.74,0,0,1,2.22.82l1.08,2a1.76,1.76,0,0,0,3.25-.33h0a1.75,1.75,0,0,1,3.16-.48c3.1,5,11.5,13.09,34,17.25,32,5.9,53.12,18.84,53.64,41a1.76,1.76,0,0,0,2.73,1.44c2.36-1.44,6.14-2.12,11.18,2.13,8.78,7.38,5.19,26.54-14.06,42.29a1.75,1.75,0,0,0,.09,2.82c3.49,2.28,8.69,7.68-4.79,14.89-13.79,7.37-22,6.56-25,5.77a1.74,1.74,0,0,1-1.33-1.82l1.21-19.58a1.76,1.76,0,0,0-1.76-1.87Z" transform="translate(-105.56 -111.69)"/><path class="cls-71" d="M1741.74,1048s7.09-27.28,19.32-19.63-6.34,30.56-16.18,31.58Z" transform="translate(-105.56 -111.69)"/><path class="cls-72" d="M1632.65,1322.53c-3.82-27,24.1-66.59,35.65-81.63a25,25,0,0,0,5.19-15c.34-38.18-15.69-62.7-41.38-79.16,0,0-93.22,108.61-69.48,192.15a70.41,70.41,0,0,0,11.56,23.42C1577.93,1330.85,1614.31,1324,1632.65,1322.53Z" transform="translate(-105.56 -111.69)"/><path class="cls-73" d="M1634.39,1312.1l-3.56-.4c3-26.44,26.21-59.08,36.05-71.88l2.83,2.17C1660.06,1254.56,1637.3,1286.55,1634.39,1312.1Z" transform="translate(-105.56 -111.69)"/><path class="cls-74" d="M1633.38,1326.26a30.36,30.36,0,0,1-.73-3.73c-18.34,1.45-54.72,8.32-58.46,39.8,41.6,55,156.28,35.17,156.28,35.17v-21.41S1642.4,1359.73,1633.38,1326.26Z" transform="translate(-105.56 -111.69)"/><path class="cls-75" d="M1719.44,1391.59s16.93-40,46.77-25.78,27.49,23.44,27.49,23.44Z" transform="translate(-105.56 -111.69)"/><path class="cls-76" d="M1715.64,1399.88h0a5.65,5.65,0,0,0,5.84,5.21l154.6-5.39a5.67,5.67,0,0,0,5.21-4l4.49-14.36a5.66,5.66,0,0,0-5.11-7.34l-56.38-3a5.55,5.55,0,0,0-1.52.13l-102.71,22.74A5.66,5.66,0,0,0,1715.64,1399.88Z" transform="translate(-105.56 -111.69)"/><polygon class="cls-77" points="1713.71 1282.54 1717.96 1262.72 1775.87 1265.48 1772.06 1281.93 1713.71 1282.54"/><path class="cls-78" d="M1789.58,1180.88c-3.28,26.78-18,135.58-22.24,166.67a7.14,7.14,0,0,0,7.29,8.09l250.11-7.15a7.17,7.17,0,0,0,6.78-5.6l38.9-175.22A7.14,7.14,0,0,0,2063,1159l-266.77,15.62A7.15,7.15,0,0,0,1789.58,1180.88Z" transform="translate(-105.56 -111.69)"/><path class="cls-79" d="M1890.12,1290.76l-37,104.92,85.95,1.82,7.16-106.11a8.25,8.25,0,0,0-8.77-8.79l-40.14,2.67A8.24,8.24,0,0,0,1890.12,1290.76Z" transform="translate(-105.56 -111.69)"/><path class="cls-80" d="M1818.3,1397.17h0a4.47,4.47,0,0,0,4.25,5.86h134.6a4.47,4.47,0,0,0,4.47-4.47v-5.77a4.47,4.47,0,0,0-4.66-4.46l-134.61,5.77A4.47,4.47,0,0,0,1818.3,1397.17Z" transform="translate(-105.56 -111.69)"/><path class="cls-81" d="M1786.06,1291.6l-2.29-.29,12.28-96.91a12.89,12.89,0,0,1,12-11.24l230.53-13.92.14,2.31-230.53,13.93a10.57,10.57,0,0,0-9.84,9.21Z" transform="translate(-105.56 -111.69)"/><rect class="cls-82" x="1769.51" y="1328.39" width="21.15" height="2.32" transform="matrix(0.13, -0.99, 0.99, 0.13, 131.4, 2816.35)"/></svg>