<svg id="Illustration" xmlns="http://www.w3.org/2000/svg" xmlns:xlink="http://www.w3.org/1999/xlink" viewBox="0 0 2803.8 2795.82"><defs><style>.cls-1{fill:url(#linear-gradient);}.cls-2{fill:url(#linear-gradient-2);}.cls-3{fill:url(#linear-gradient-3);}.cls-4{fill:#bdd0fb;}.cls-5{fill:url(#linear-gradient-4);}.cls-6{fill:#91b3fa;}.cls-7{fill:#7d97f4;}.cls-8{opacity:0.8;}.cls-10,.cls-9{fill:#fff;}.cls-10{opacity:0.81;}.cls-11{opacity:0.3;}.cls-12{fill:url(#linear-gradient-5);}.cls-13{fill:url(#linear-gradient-6);}.cls-14{fill:url(#linear-gradient-7);}.cls-15{fill:url(#linear-gradient-8);}.cls-16{fill:url(#linear-gradient-9);}.cls-17{fill:url(#linear-gradient-10);}.cls-18{fill:url(#linear-gradient-11);}.cls-19{fill:url(#linear-gradient-12);}.cls-20{fill:url(#linear-gradient-13);}.cls-21{fill:url(#linear-gradient-14);}.cls-22{fill:url(#linear-gradient-15);}.cls-23{fill:url(#linear-gradient-16);}.cls-24{fill:url(#linear-gradient-17);}.cls-25{fill:url(#linear-gradient-18);}.cls-26{fill:url(#linear-gradient-19);}.cls-27{fill:url(#linear-gradient-20);}.cls-28{fill:url(#linear-gradient-21);}.cls-29{fill:url(#linear-gradient-22);}.cls-30{fill:url(#linear-gradient-23);}.cls-31{fill:url(#linear-gradient-24);}.cls-32{fill:url(#linear-gradient-25);}</style><linearGradient id="linear-gradient" x1="3444.08" y1="3249.14" x2="1393.84" y2="1455.19" gradientUnits="userSpaceOnUse"><stop offset="0" stop-color="#dae3fe"/><stop offset="1" stop-color="#e9effd"/></linearGradient><linearGradient id="linear-gradient-2" x1="1895.85" y1="2945.81" x2="1868.62" y2="1073.87" gradientUnits="userSpaceOnUse"><stop offset="0" stop-color="#09005d"/><stop offset="1" stop-color="#1a0f91"/></linearGradient><linearGradient id="linear-gradient-3" x1="621.49" y1="3117.91" x2="4304.09" y2="-176.69" gradientUnits="userSpaceOnUse"><stop offset="0" stop-color="#4f52ff"/><stop offset="1" stop-color="#4042e2"/></linearGradient><linearGradient id="linear-gradient-4" x1="1962.5" y1="1305.44" x2="1852.94" y2="2852.87" gradientTransform="translate(3710 5647.62) rotate(-180)" xlink:href="#linear-gradient-2"/><linearGradient id="linear-gradient-5" x1="769.83" y1="1061.78" x2="894.82" y2="1061.78" xlink:href="#linear-gradient"/><linearGradient id="linear-gradient-6" x1="677.5" y1="1062.42" x2="984.83" y2="1062.42" xlink:href="#linear-gradient"/><linearGradient id="linear-gradient-7" x1="1129.05" y1="713.7" x2="1214.17" y2="713.7" xlink:href="#linear-gradient"/><linearGradient id="linear-gradient-8" x1="1064.79" y1="714.09" x2="1276.82" y2="714.09" xlink:href="#linear-gradient"/><linearGradient id="linear-gradient-9" x1="1452.44" y1="1061.15" x2="789.25" y2="2378.27" gradientUnits="userSpaceOnUse"><stop offset="0" stop-color="#e1473d"/><stop offset="1" stop-color="#e9605a"/></linearGradient><linearGradient id="linear-gradient-10" x1="1727.22" y1="270.64" x2="1220.6" y2="1526.77" gradientUnits="userSpaceOnUse"><stop offset="0" stop-color="#ff928e"/><stop offset="1" stop-color="#fe7062"/></linearGradient><linearGradient id="linear-gradient-11" x1="18121.55" y1="2637.98" x2="17669.98" y2="2895.73" gradientTransform="matrix(-1, 0, 0, 1, 19947.57, 0)" gradientUnits="userSpaceOnUse"><stop offset="0" stop-color="#febbba"/><stop offset="1" stop-color="#ff928e"/></linearGradient><linearGradient id="linear-gradient-12" x1="-8191.93" y1="-3208.98" x2="-8226.6" y2="-2677.44" gradientTransform="translate(10652.29 2161.15) rotate(-26.18)" xlink:href="#linear-gradient-3"/><linearGradient id="linear-gradient-13" x1="18077.87" y1="2702.26" x2="19622.92" y2="1735.03" xlink:href="#linear-gradient-11"/><linearGradient id="linear-gradient-14" x1="-6771.29" y1="-5475" x2="-6805.96" y2="-4943.5" gradientTransform="matrix(0.79, -0.61, 0.61, 0.79, 10669.88, 3191.1)" xlink:href="#linear-gradient-3"/><linearGradient id="linear-gradient-15" x1="9866.87" y1="2314.35" x2="9495.47" y2="2721.36" gradientTransform="matrix(-1, 0, 0, 1, 12115.87, 0)" xlink:href="#linear-gradient-10"/><linearGradient id="linear-gradient-16" x1="-11039.92" y1="-172.61" x2="-10928.88" y2="105.94" gradientTransform="translate(12812.04 -1699.17) rotate(-19.17)" xlink:href="#linear-gradient-2"/><linearGradient id="linear-gradient-17" x1="3318.35" y1="1677.45" x2="2807.82" y2="2099.49" xlink:href="#linear-gradient-10"/><linearGradient id="linear-gradient-18" x1="-8934.18" y1="2489.41" x2="-8484.35" y2="2489.41" gradientTransform="translate(11551.11)" xlink:href="#linear-gradient-11"/><linearGradient id="linear-gradient-19" x1="-10911.22" y1="1390.68" x2="-10889.23" y2="1229.81" gradientTransform="translate(13216.98 105.01) rotate(-4.11)" xlink:href="#linear-gradient-11"/><linearGradient id="linear-gradient-20" x1="-9968.29" y1="-3470.76" x2="-9761.24" y2="-3839.23" gradientTransform="translate(10798 -4320.77) rotate(-56.92)" xlink:href="#linear-gradient-11"/><linearGradient id="linear-gradient-21" x1="-9923.76" y1="-3791.64" x2="-9820.24" y2="-3531.96" gradientTransform="translate(10798 -4320.77) rotate(-56.92)" xlink:href="#linear-gradient-2"/><linearGradient id="linear-gradient-22" x1="-9924.21" y1="-3446" x2="-9717.17" y2="-3814.47" gradientTransform="translate(10798 -4320.77) rotate(-56.92)" xlink:href="#linear-gradient-11"/><linearGradient id="linear-gradient-23" x1="-9027.71" y1="2095.79" x2="-9263.03" y2="2160.29" gradientTransform="translate(11509.64 -55.03) rotate(-2.83)" xlink:href="#linear-gradient-2"/><linearGradient id="linear-gradient-24" x1="2051.37" y1="2325.84" x2="2421.83" y2="2664.84" xlink:href="#linear-gradient-2"/><linearGradient id="linear-gradient-25" x1="-9374.25" y1="2376.14" x2="-9450.01" y2="2490.22" gradientTransform="translate(11551.11)" xlink:href="#linear-gradient-3"/></defs><title>not-found</title><path class="cls-1" d="M3095.64,2317.46c-265,623.9-970.8,973.42-1582.89,879.14-99.6-15.34-372.65-61-614.41-276.64-465.39-415-564.92-1236.85-189.5-1816,273.24-421.53,763-660.47,1228.46-648.52,100.25,2.57,484.45,18.44,822.09,296.85,49.59,40.9,159,138.07,257.56,292.23C3248.43,1406.51,3268.33,1910.85,3095.64,2317.46Z" transform="translate(-453.1 -455)"/><path class="cls-2" d="M646,2726.46a44.09,44.09,0,0,0,44,43.94H3068.2a44.09,44.09,0,0,0,44-43.94L3132,1359.78c0-24.17-28.47-71.34-80.65-67.8L727.09,1231.84a110.84,110.84,0,0,0-113.72,113.35Z" transform="translate(-453.1 -455)"/><path class="cls-3" d="M689.45,2684.31a41.73,41.73,0,0,0,41.61,41.61H3010.85a41.73,41.73,0,0,0,41.61-41.61l18.67-1240.69c-2.2-74.66-67.65-101.49-107.33-99.91L736.23,1284a77.89,77.89,0,0,0-79.91,79.7Z" transform="translate(-453.1 -455)"/><path class="cls-4" d="M3027.82,2094.9h-.06a6.09,6.09,0,0,1-6-6.19l1.47-100.62a6.1,6.1,0,0,1,6.09-6h.1a6.1,6.1,0,0,1,6,6.19l-1.47,100.62A6.11,6.11,0,0,1,3027.82,2094.9Z" transform="translate(-453.1 -455)"/><path class="cls-4" d="M3031.45,1848.33h-.1a6.1,6.1,0,0,1-6-6.19l5.65-385.37c-.1-22.89-7.05-41.16-20.65-54.19-25.39-24.33-65.69-23.08-67.39-23l-712-19.1a6.09,6.09,0,0,1-5.93-6.25,5.84,5.84,0,0,1,6.26-5.93l711.56,19.09c4.43-.26,47.34-1,75.92,26.38,16.07,15.4,24.29,36.63,24.41,63.06l-5.66,385.49A6.1,6.1,0,0,1,3031.45,1848.33Z" transform="translate(-453.1 -455)"/><rect class="cls-5" x="453.1" y="2763.77" width="2803.8" height="120.08" rx="5.65" transform="translate(3256.9 5192.62) rotate(180)"/><path class="cls-6" d="M2648.64,530.17,1154.8,521a85.5,85.5,0,0,0-85.92,89.74l102.77,2122.39H2834l92.3-1896.24Z" transform="translate(-453.1 -455)"/><path class="cls-7" d="M2710.76,827.82a85.51,85.51,0,0,1-82.24-92.19l16-202.67,282.07,302.71Z" transform="translate(-453.1 -455)"/><path class="cls-4" d="M2005.32,1065.51c119,1.68,575.75,7.63,691.09,9.12,14.55.19,26.21,9.81,25.77,21.24h0c-.42,10.87-11.71,19.38-25.56,19.25l-690.75-6.49c-13.3-.13-24.49-8.2-25.8-18.63l-.33-2.63C1978.24,1075.44,1990.1,1065.29,2005.32,1065.51Z" transform="translate(-453.1 -455)"/><path class="cls-4" d="M1993,1192.27h0a11.89,11.89,0,0,0,9.48,4.56L2476.51,1207c6,.13,10.86-3.51,11-8.19l.95-24.53c.19-4.88-4.81-9-11-9L2016.4,1161C1995.86,1160.84,1983,1178,1993,1192.27Z" transform="translate(-453.1 -455)"/><path class="cls-4" d="M1996,1287.45c119,1.68,575.75,7.62,691.09,9.12,14.55.19,26.21,9.81,25.77,21.24h0c-.42,10.87-11.71,19.37-25.56,19.25l-690.74-6.49c-13.31-.13-24.49-8.2-25.8-18.63l-.34-2.64C1968.89,1297.38,1980.75,1287.23,1996,1287.45Z" transform="translate(-453.1 -455)"/><path class="cls-4" d="M1983.6,1414.21h0a11.86,11.86,0,0,0,9.48,4.56L2467.16,1429c6,.12,10.86-3.51,11-8.19l1-24.54c.18-4.87-4.82-9-11-9L2007,1383C1986.5,1382.78,1973.62,1400,1983.6,1414.21Z" transform="translate(-453.1 -455)"/><g class="cls-8"><path class="cls-9" d="M1792.25,1049.72c-2.43-3-6.26-4.24-10.32-4.16l-369.38,7.75-9.33-29.64a9.6,9.6,0,0,0-9.57-6.65l-50.71,1.33c-5.44.14-9.85,3.92-9.85,9.35s4.41,9,9.85,8.86l43.33-1,78.43,250.59a10.35,10.35,0,0,0,9.76,7.18l259.27,3.48c6.09.08,11-3.74,11-9.49s-4.94-9.69-11-9.76l-251.7-2.71-20.2-65.07,276.6.42a12.81,12.81,0,0,0,12.24-8.83l43.66-141.16A11.11,11.11,0,0,0,1792.25,1049.72Z" transform="translate(-453.1 -455)"/><path class="cls-9" d="M1512.39,1308.76c-21.33-.33-38.59,16.28-38.59,37s17.26,38.07,38.59,38.63,39-16,39-37S1533.85,1309.1,1512.39,1308.76Zm0,55.47c-10-.24-18.06-8.32-18.06-18a17.46,17.46,0,0,1,18.06-17.27c10,.19,18.16,8.27,18.16,18A17.46,17.46,0,0,1,1512.39,1364.23Z" transform="translate(-453.1 -455)"/><path class="cls-9" d="M1685.22,1311.45c-22.39-.35-40.5,16.65-40.5,37.9s18.11,39,40.5,39.59,41-16.41,41-37.89S1707.75,1311.8,1685.22,1311.45Zm0,56.82c-10.46-.24-19-8.53-19-18.47s8.49-17.88,19-17.69,19.06,8.49,19.06,18.48S1695.72,1368.52,1685.22,1368.27Z" transform="translate(-453.1 -455)"/></g><path class="cls-10" d="M1580.71,1482.92c-178,0-322.9-144.86-322.9-322.9s144.86-322.9,322.9-322.9S1903.61,982,1903.61,1160,1758.76,1482.92,1580.71,1482.92Zm0-618.57C1417.68,864.35,1285,997,1285,1160s132.64,295.67,295.67,295.67,295.67-132.64,295.67-295.67S1743.75,864.35,1580.71,864.35Z" transform="translate(-453.1 -455)"/><g class="cls-11"><path class="cls-4" d="M988,742.16a9.1,9.1,0,0,1-12,4.62c-8.93-4-18.16-7.62-27.45-10.83a9.11,9.11,0,0,1-5.68-11.42l.06-.17a9.11,9.11,0,0,1,11.59-5.63c9.77,3.39,19.49,7.22,28.89,11.41a9.1,9.1,0,0,1,5,11.13A7.4,7.4,0,0,1,988,742.16ZM902.3,723.4c-9.64-1.92-19.44-3.45-29.16-4.53a9.11,9.11,0,0,1,2-18.11c10.22,1.15,20.54,2.75,30.67,4.77A9.11,9.11,0,0,1,913,716.24a9,9,0,0,1-.28,1A9.1,9.1,0,0,1,902.3,723.4Zm-77-6.55c-9.79.28-19.68,1-29.42,2.09a9.11,9.11,0,0,1-2.07-18.1c10.25-1.17,20.68-1.91,31-2.2a9.11,9.11,0,1,1,.5,18.21ZM748.72,727.7c-9.49,2.46-19,5.36-28.23,8.61a9.11,9.11,0,1,1-6-17.18c9.72-3.43,19.72-6.48,29.71-9.07a9.11,9.11,0,0,1,4.57,17.64Zm-72.23,27.63c-8.68,4.49-17.31,9.42-25.62,14.65a9.1,9.1,0,1,1-9.7-15.41c8.74-5.51,17.81-10.69,27-15.42a9.11,9.11,0,1,1,8.36,16.18Zm-64.31,42.92c-7.49,6.32-14.8,13-21.74,20a9.11,9.11,0,0,1-12.88-12.89c7.3-7.29,15-14.36,22.88-21a9.11,9.11,0,1,1,11.74,13.93ZM483.49,1111.09a9.12,9.12,0,0,1-10.07-8c-1.15-10.24-1.87-20.67-2.14-31a9.11,9.11,0,0,1,18.21-.48c.26,9.81.94,19.71,2,29.44a9.11,9.11,0,0,1-8,10.07ZM559,854.33c-5.9,7.82-11.53,16-16.74,24.28a9.11,9.11,0,0,1-15.43-9.69c5.48-8.73,11.41-17.33,17.62-25.56a9.11,9.11,0,0,1,14.55,11Zm-77.51,177.39a9.11,9.11,0,0,1-8-10.08c1.17-10.24,2.79-20.56,4.83-30.69a9.11,9.11,0,0,1,17.86,3.6c-1.94,9.62-3.48,19.43-4.59,29.16a9.49,9.49,0,0,1-.39,1.79A9.12,9.12,0,0,1,481.51,1031.72Zm38.21-110.85c-4,8.94-7.66,18.16-10.89,27.42a9.11,9.11,0,0,1-17.26-5.81l.06-.18c3.4-9.75,7.25-19.47,11.46-28.87a9.11,9.11,0,0,1,17,6.53C520,920.26,519.85,920.57,519.72,920.87Z" transform="translate(-453.1 -455)"/><path class="cls-4" d="M504,1167.51a9.08,9.08,0,0,0,.05-5.44c-1.36-4.5-2.64-9.1-3.83-13.68a9.11,9.11,0,0,0-17.64,4.56c1.25,4.81,2.6,9.65,4,14.38a9.11,9.11,0,0,0,17.39.18Z" transform="translate(-453.1 -455)"/></g><g class="cls-11"><path class="cls-4" d="M681.77,1380.9a9.11,9.11,0,0,0-4.52-10.91c-4.18-2.14-8.38-4.41-12.5-6.73a9.11,9.11,0,0,0-9,15.86c4.33,2.45,8.76,4.83,13.16,7.08a9.11,9.11,0,0,0,12.26-4A8.75,8.75,0,0,0,681.77,1380.9Z" transform="translate(-453.1 -455)"/><path class="cls-4" d="M1175,1192.18a9.11,9.11,0,0,1-17-6.48c3.4-9,6.48-18.19,9.18-27.56a9.11,9.11,0,0,1,17.51,5q-1.77,6.09-3.7,12.07C1179.14,1181,1177.13,1186.64,1175,1192.18Zm9.81-69.82a9.1,9.1,0,0,1-7.69-10.33c1.39-9.55,2.4-19.27,3-28.88a9.11,9.11,0,1,1,18.18,1.11c-.62,10.12-1.68,20.35-3.15,30.41a10.7,10.7,0,0,1-.35,1.51A9.11,9.11,0,0,1,1184.84,1122.36Zm-30.59,114.9c-4.86,8.89-10.17,17.69-15.79,26.17a9.11,9.11,0,0,1-15.19-10.06c5.33-8,10.38-16.41,15-24.85a9.11,9.11,0,0,1,16.66,7.17A8.93,8.93,0,0,1,1154.25,1237.26Zm35.3-192.88a9.11,9.11,0,0,1-9.77-8.39c-.74-9.61-1.9-19.31-3.44-28.82a9.11,9.11,0,0,1,18-2.92c1.63,10,2.85,20.23,3.62,30.35a9.29,9.29,0,0,1-.41,3.51A9.11,9.11,0,0,1,1189.55,1044.38Zm-81.26,258.42c-6.69,7.6-13.81,15-21.15,22a9.1,9.1,0,1,1-12.6-13.14c7-6.69,13.73-13.73,20.08-21a9.11,9.11,0,0,1,15.5,8.84A9,9,0,0,1,1108.29,1302.8Zm-59.21,53.88c-8.22,6-16.78,11.66-25.45,16.91a9.11,9.11,0,1,1-9.44-15.58c8.24-5,16.37-10.4,24.18-16.07a9.11,9.11,0,0,1,10.71,14.74Zm-69.56,39.7c-9.32,4-18.92,7.72-28.52,11a9.11,9.11,0,1,1-5.82-17.26c9.12-3.08,18.24-6.58,27.1-10.42a9.11,9.11,0,1,1,7.24,16.72ZM903,1420c-10,1.9-20.16,3.4-30.25,4.45a9.11,9.11,0,1,1-1.89-18.12c9.58-1,19.25-2.42,28.73-4.23a9.11,9.11,0,0,1,10.65,7.25A9.1,9.1,0,0,1,903,1420Zm-79.91,6.18c-10.13-.34-20.38-1.12-30.46-2.32a9.11,9.11,0,0,1,2.14-18.09c9.59,1.14,19.32,1.88,28.94,2.21a9.11,9.11,0,1,1-.62,18.2Zm-79.23-11.5c-7.23-1.87-14.49-4-21.58-6.3q-3.86-1.24-7.66-2.58a9,9,0,0,1-5.59-11.6,9.12,9.12,0,0,1,11.61-5.6c2.41.84,4.83,1.67,7.27,2.46,6.74,2.19,13.64,4.2,20.52,6a9.11,9.11,0,0,1,6.53,11.1c0,.19-.1.37-.16.55A9.1,9.1,0,0,1,743.83,1414.63Z" transform="translate(-453.1 -455)"/><path class="cls-4" d="M1182.91,961.16a9.09,9.09,0,0,0,0-5.49c-1.45-4.71-3-9.48-4.68-14.18a9.11,9.11,0,1,0-17.18,6.06c1.57,4.47,3.07,9,4.45,13.48a9.11,9.11,0,0,0,17.37.13Z" transform="translate(-453.1 -455)"/></g><path class="cls-4" d="M1045,887.92a4.25,4.25,0,0,0-4.59-1.83L990.06,898.4A225.68,225.68,0,0,0,930,856.73l-6.13-51.43a4.24,4.24,0,0,0-3.32-3.65l-60.75-13.16a4.25,4.25,0,0,0-4.54,2l-26.87,44.27a225.66,225.66,0,0,0-72,13.07l-40.72-32a4.27,4.27,0,0,0-4.94-.23l-52.26,33.65a4.25,4.25,0,0,0-1.83,4.59L669,904.07a225.43,225.43,0,0,0-41.68,60.09l-51.42,6.13a4.25,4.25,0,0,0-3.66,3.33l-13.16,60.75a4.26,4.26,0,0,0,2,4.54l44.27,26.86a225.72,225.72,0,0,0,13.07,72l-32.05,40.72a4.27,4.27,0,0,0-.23,4.94l33.65,52.26a4.26,4.26,0,0,0,4.59,1.83l50.33-12.32a225.43,225.43,0,0,0,60.09,41.68l6.13,51.42a4.26,4.26,0,0,0,3.33,3.66l60.75,13.16a4.26,4.26,0,0,0,4.54-1.95l26.86-44.27a226,226,0,0,0,72-13.07l40.72,32a4.26,4.26,0,0,0,4.94.24l52.26-33.65a4.27,4.27,0,0,0,1.83-4.59l-12.32-50.33a225.49,225.49,0,0,0,41.68-60.1l51.42-6.13a4.27,4.27,0,0,0,3.66-3.32l13.16-60.75a4.27,4.27,0,0,0-2-4.54l-44.27-26.87a225.94,225.94,0,0,0-13.07-71.95l32-40.72a4.26,4.26,0,0,0,.24-4.94Z" transform="translate(-453.1 -455)"/><path class="cls-12" d="M888.31,1089.56a62.45,62.45,0,1,1,3.47-8.5A64.29,64.29,0,0,1,888.31,1089.56Zm-101.37-12.49a47.91,47.91,0,1,0,2.49-36.58,49.07,49.07,0,0,0-2.68,6.58A47.59,47.59,0,0,0,786.94,1077.07Z" transform="translate(-453.1 -455)"/><path class="cls-13" d="M977.2,1110.18q2.43-7.47,4.12-15.24h0c.35-1.63.68-3.27,1-4.91a155.34,155.34,0,0,0,2.5-24.48v-.33c0-.32,0-.64,0-1,0-.62,0-1.24,0-1.85a3.65,3.65,0,0,0-2.51-3.47,3.56,3.56,0,0,0-1.13-.18,3.66,3.66,0,0,0-3.65,3.64,146.35,146.35,0,1,1-289.38-31c17.1-78.89,95.15-129.12,174-112a146.35,146.35,0,0,1,69.05,36.18,3.56,3.56,0,0,0,1.37.81,3.65,3.65,0,0,0,3.61-6.13,153,153,0,0,0-57.42-33.91,151.25,151.25,0,0,0-15.06-4.07C780.92,894.33,699,947.11,681,1029.87a153.65,153.65,0,0,0,102.34,178.55,155.81,155.81,0,0,0,15.26,4.12A153.66,153.66,0,0,0,977.2,1110.18Z" transform="translate(-453.1 -455)"/><g class="cls-11"><path class="cls-4" d="M1312.79,519.86a5.62,5.62,0,0,0-2.18-6.38c-3.94-2.7-8-5.31-12.12-7.77a5.62,5.62,0,1,0-5.78,9.65c3.91,2.34,7.79,4.84,11.55,7.41a5.61,5.61,0,0,0,8.53-2.91Z" transform="translate(-453.1 -455)"/><path class="cls-4" d="M1274.77,499.35a5.63,5.63,0,0,1-7.42,2.87,236,236,0,0,0-22-8.43q-2.37-.77-4.75-1.48a5.63,5.63,0,0,1-3.76-7,5.83,5.83,0,0,1,7-3.76q2.49.77,5,1.56a246.64,246.64,0,0,1,23.12,8.84,5.62,5.62,0,0,1,3.07,6.88A3.93,3.93,0,0,1,1274.77,499.35Zm-62-13.63a233.84,233.84,0,0,0-28.39-3.13,5.63,5.63,0,1,1,.54-11.24,242.43,242.43,0,0,1,29.77,3.29,5.64,5.64,0,0,1,4.59,6.5,6.52,6.52,0,0,1-.2.79A5.61,5.61,0,0,1,1212.74,485.72Zm-57-2.73a230.65,230.65,0,0,0-28.3,3.93,5.63,5.63,0,1,1-2.24-11,243.5,243.5,0,0,1,29.68-4.13,5.64,5.64,0,0,1,6,5.19,5.76,5.76,0,0,1-.26,2.16A5.62,5.62,0,0,1,1155.78,483Zm-55.9,11.34a230.49,230.49,0,0,0-26.47,10.74,5.63,5.63,0,1,1-4.87-10.15,243.17,243.17,0,0,1,27.76-11.26,5.63,5.63,0,0,1,3.58,10.67ZM1048.44,519a235.15,235.15,0,0,0-23.07,16.85,5.63,5.63,0,0,1-7.17-8.67,247.93,247.93,0,0,1,24.17-17.66,5.63,5.63,0,1,1,6.07,9.48Zm-43.89,36.39a230.08,230.08,0,0,0-18.24,21.94,5.63,5.63,0,0,1-9.09-6.64,241.78,241.78,0,0,1,19.14-23,5.63,5.63,0,0,1,9.45,5.6A5.72,5.72,0,0,1,1004.55,555.36Zm-33.65,46a232.44,232.44,0,0,0-12.31,25.77,5.62,5.62,0,0,1-10.43-4.21,242.7,242.7,0,0,1,12.91-27,5.63,5.63,0,0,1,10.27,4.47A5.85,5.85,0,0,1,970.9,601.35ZM937.52,687a5.63,5.63,0,0,1-4.79-6.35,244.88,244.88,0,0,1,5-25.54c.31-1.28.64-2.55,1-3.82a5.63,5.63,0,1,1,10.87,2.92c-.32,1.19-.63,2.38-.93,3.61a234.61,234.61,0,0,0-4.75,24.38,5.07,5.07,0,0,1-.22,1A5.63,5.63,0,0,1,937.52,687Z" transform="translate(-453.1 -455)"/></g><g class="cls-11"><path class="cls-4" d="M1403.46,792.46a247,247,0,0,1-11.14,27.27,5.63,5.63,0,0,1-10.14-4.88,233.57,233.57,0,0,0,10.62-26,5.63,5.63,0,0,1,10.68,3.55Zm1.11-24.08a5.61,5.61,0,0,1-4.34-6.66,235.13,235.13,0,0,0,4.12-27.81,5.63,5.63,0,0,1,11.21,1,247.12,247.12,0,0,1-4.32,29.15c0,.2-.1.39-.16.59A5.63,5.63,0,0,1,1404.57,768.38Zm-26.63,77.08a243.36,243.36,0,0,1-17.4,23.77,5.62,5.62,0,1,1-8.66-7.18,235.81,235.81,0,0,0,16.6-22.68,5.62,5.62,0,0,1,10.08,4.78A5.4,5.4,0,0,1,1377.94,845.46Zm33-134.21a5.62,5.62,0,0,1-5.82-5.43,233.91,233.91,0,0,0-2.71-28,5.63,5.63,0,1,1,11.11-1.77,240.39,240.39,0,0,1,2.84,29.34,5.63,5.63,0,0,1-5.42,5.83ZM1340.39,890.7a244.53,244.53,0,0,1-22.61,18.89,5.63,5.63,0,0,1-6.68-9.06,229.12,229.12,0,0,0,21.56-18,5.63,5.63,0,0,1,9.21,5.84A5.55,5.55,0,0,1,1340.39,890.7Zm-47.32,34.92a243.34,243.34,0,0,1-26.47,12.93,5.62,5.62,0,1,1-4.32-10.38,234.77,234.77,0,0,0,25.25-12.35,5.63,5.63,0,0,1,5.54,9.8Zm-54.32,22.58a242,242,0,0,1-28.81,6.21,5.62,5.62,0,1,1-1.7-11.12,230.86,230.86,0,0,0,27.47-5.92,5.62,5.62,0,1,1,3,10.83Z" transform="translate(-453.1 -455)"/><path class="cls-4" d="M1407,650.34a5.58,5.58,0,0,0,.06-3.29c-1.33-4.63-2.81-9.24-4.39-13.7A5.63,5.63,0,1,0,1392,637.1c1.51,4.25,2.91,8.65,4.19,13.07a5.62,5.62,0,0,0,10.75.17Z" transform="translate(-453.1 -455)"/></g><path class="cls-4" d="M1313.88,597.35a2.85,2.85,0,0,0-3.07-1.23l-33.68,8.24a151.48,151.48,0,0,0-40.21-27.89l-4.1-34.4a2.86,2.86,0,0,0-2.23-2.45l-40.65-8.81a2.85,2.85,0,0,0-3,1.31l-18,29.62a151,151,0,0,0-48.15,8.75L1093.53,549a2.86,2.86,0,0,0-3.31-.15l-35,22.51a2.85,2.85,0,0,0-1.22,3.08l8.24,33.68a150.7,150.7,0,0,0-27.89,40.21l-34.41,4.1a2.85,2.85,0,0,0-2.45,2.22l-8.8,40.65a2.84,2.84,0,0,0,1.3,3l29.63,18a151.12,151.12,0,0,0,8.74,48.15L1007,791.76a2.84,2.84,0,0,0-.16,3.3l22.52,35a2.87,2.87,0,0,0,3.07,1.23l33.68-8.25a151.28,151.28,0,0,0,40.21,27.9l4.1,34.4a2.86,2.86,0,0,0,2.23,2.45l40.65,8.81a2.85,2.85,0,0,0,3-1.31l18-29.62a151,151,0,0,0,48.15-8.75l27.25,21.45a2.86,2.86,0,0,0,3.31.15l35-22.51a2.85,2.85,0,0,0,1.22-3.08l-8.24-33.68A150.86,150.86,0,0,0,1308.81,779l34.41-4.1a2.85,2.85,0,0,0,2.45-2.23l8.8-40.64a2.84,2.84,0,0,0-1.3-3l-29.63-18a151.12,151.12,0,0,0-8.74-48.15l21.44-27.25a2.84,2.84,0,0,0,.16-3.3Z" transform="translate(-453.1 -455)"/><path class="cls-14" d="M1209.72,732.6a42.48,42.48,0,1,1,2.38-5.84A42.22,42.22,0,0,1,1209.72,732.6Zm-52,9.13a31.3,31.3,0,0,0,42-14.12h0a31.31,31.31,0,1,0-42,14.12Z" transform="translate(-453.1 -455)"/><path class="cls-15" d="M1271.59,747q1.65-5.07,2.81-10.4a106.27,106.27,0,0,0,2.41-21.46v-1a5.63,5.63,0,0,0-11.25,0,95.35,95.35,0,0,1-2.17,20h0c-.08.36-.16.73-.25,1.09a93.8,93.8,0,0,1-21.06,41.33,95.44,95.44,0,0,1-19.27,16.71l-.18.12-.54.35a94.16,94.16,0,0,1-71.35,12.93,95.11,95.11,0,0,1-9.41-2.54,94.74,94.74,0,0,1,49.54-182.63,95.7,95.7,0,0,1,9.29,2.51,94.52,94.52,0,0,1,35.4,20.91,5.79,5.79,0,0,0,2.11,1.25,5.63,5.63,0,0,0,5.59-9.46,105.86,105.86,0,0,0-39.61-23.4q-5.12-1.67-10.4-2.81a106,106,0,0,0-55.42,204.32,108,108,0,0,0,10.53,2.85A106.15,106.15,0,0,0,1271.59,747Z" transform="translate(-453.1 -455)"/><circle class="cls-16" cx="1230.93" cy="1501.07" r="378.24"/><circle class="cls-17" cx="1230.29" cy="1502.73" r="366.4"/><path class="cls-9" d="M1851.82,2200.59a46.17,46.17,0,0,1-35.49-16.54l-326.95-390a46.27,46.27,0,0,1,70.92-59.45l327,389.95a46.26,46.26,0,0,1-35.43,76Z" transform="translate(-453.1 -455)"/><path class="cls-9" d="M1484,2197.75a46.27,46.27,0,0,1-32.07-79.62l385.77-370.93a46.27,46.27,0,0,1,64.14,66.7L1516,2184.83A46.13,46.13,0,0,1,1484,2197.75Z" transform="translate(-453.1 -455)"/><path class="cls-18" d="M1894.67,3058.17c.54-.2,287-501.8,325.67-549a30,30,0,0,1,26.78-10.77l80,9.53L2421,2711.1,2264.52,2620c15.48,107.08-185.52,266.21-254.46,324.28a15.84,15.84,0,0,0-1.25,23.06l27.52,28.81c-45.18,45.8-97.32,75.2-156.16,88.8Z" transform="translate(-453.1 -455)"/><path class="cls-19" d="M2020.41,2980.58s17.57,5.67,23.51,21.32c2.85,7.48-.22,16-6.73,20.62-28.92,20.72-124.32,87.62-168.35,100.72a5,5,0,0,1-6.23-5.86c2.26-10.23,9.57-30.65,33.11-60.55l-2.11,4.27a6.12,6.12,0,0,0,8.47,8.07C1931.52,3052.55,1991.5,3016.17,2020.41,2980.58Z" transform="translate(-453.1 -455)"/><path class="cls-20" d="M2006.24,3181.28c.48-.31,43.45-103.84,43.93-104.15,39.4-239.89,135.54-445.35,163.89-499.41a30,30,0,0,1,24.05-16l80.22-6.85,133.09,180-171.67-57.57c36.84,101.73-127.8,298.25-183.56,369.06a15.83,15.83,0,0,0,3.44,22.84l32.78,22.64c-35,54-80.09,93.35-135,118.58Z" transform="translate(-453.1 -455)"/><path class="cls-21" d="M2113.67,3079.85s18.35,2,27.34,16.12c4.3,6.75,3,15.67-2.41,21.56-24.14,26.14-104,111-144.49,132.7a5,5,0,0,1-7.29-4.48c.14-10.47,3.17-31.95,20.17-66l-1.2,4.61a6.12,6.12,0,0,0,9.93,6.19C2041.19,3168.32,2092.56,3120.55,2113.67,3079.85Z" transform="translate(-453.1 -455)"/><path class="cls-22" d="M2693.83,2517s72.57,107.93,78.52,157.17-20.06,66.26-96,72.54c-226,18.69-337.46-49-337.46-49-15.46-98.59-26.46-123.67-155.6-177.27,0,0,163.34,13,196.21.21S2693.83,2517,2693.83,2517Z" transform="translate(-453.1 -455)"/><path class="cls-23" d="M2404.45,1912.27s50.54-59.8,104.28,13.57c9.73,13.29,47.11,2.33,60.81,30.14,7.08,14.36,22.36,22.52,38.1,19.62,39.21-7.24,103.31-7.84,135,53.6,24.15,46.9,5.5,74.35-18.64,90-17.73,11.5-24.06,34.83-13.34,53,10.29,17.46,12.22,41.12-14.34,69.58-59.51,63.79-177.33-40.48-177.33-40.48l-93.54-221Z" transform="translate(-453.1 -455)"/><path class="cls-24" d="M2497.57,2502.72s-84.51-80.47-126.1-133.77a113.07,113.07,0,0,1-19.15-101.77c19-64,52.74-130.26,55.82-140.57,4.72-15.81,99.47-15.15,99.47-15.15s186.46,121,259.72,326l-82.27,25.61s-48.69-81.67-96.79-133.6c0,0,83.23,110,86.16,155Z" transform="translate(-453.1 -455)"/><path class="cls-25" d="M2336.56,2534.47l63.5-69.09,73.33,19.75s85.5,13.25,134.43,0l48.93-13.24,110.58-34.43,17.37,49.08a29.54,29.54,0,0,1-10.8,33.95c-9.56,6.8-20.78,14.27-27.93,17.4-14.56,6.37-335.45,2-335.45,2Z" transform="translate(-453.1 -455)"/><path class="cls-26" d="M2442.49,1997.53,2506.17,2116c-4.2,25.85-69.31,26.58-79.37,11.15a15.39,15.39,0,0,1-2-5.23l-38.09-79.12c-1.64-7.72,19.52-33.72,26.48-37.42l25.31-13.48C2448.25,1986.66,2407.58,1986.26,2442.49,1997.53Z" transform="translate(-453.1 -455)"/><path class="cls-27" d="M2313.6,1969.74s-7.19,40,24.26,90.88,62.76,48.57,78.67,30.43,35-48.36,26.3-99.1S2324.46,1918.71,2313.6,1969.74Z" transform="translate(-453.1 -455)"/><path class="cls-28" d="M2404.76,1997.47s-50.92-66.89-90-8.58l.66,20.14s-50.84-2.38-45.32-49.23,47-78.87,104.55-62.86,91.16,34.24,97.66,74.19-26.12,33.42-26.12,33.42-12.46-27.56-27.51-29.45-9.61,19.92-9.61,19.92Z" transform="translate(-453.1 -455)"/><path class="cls-29" d="M2416.44,1995.68s-26.37-34.23-2.36-41.33,23.11,33.54,21.55,48.66Z" transform="translate(-453.1 -455)"/><path class="cls-30" d="M2546.75,2561.82h-.67l-292.07-.32a13.07,13.07,0,1,1,0-26.14l292.07.32a13.07,13.07,0,0,1,.64,26.13Z" transform="translate(-453.1 -455)"/><path class="cls-31" d="M1991.45,2296.64h243.24a46.36,46.36,0,0,1,41.93,26.58l112.45,238.44H2086.79a28.17,28.17,0,0,1-26.2-17.82l-87.2-220.64A19.42,19.42,0,0,1,1991.45,2296.64Z" transform="translate(-453.1 -455)"/><path class="cls-32" d="M2162.81,2418.89c5.28,16.38,1.38,32.28-8.69,35.52s-22.52-7.4-27.79-23.78-1.38-32.28,8.7-35.52S2157.54,2402.51,2162.81,2418.89Z" transform="translate(-453.1 -455)"/></svg>