<svg xmlns="http://www.w3.org/2000/svg" xmlns:xlink="http://www.w3.org/1999/xlink" viewBox="0 0 438.73 362.95"><defs><style>.cls-1,.cls-10,.cls-23,.cls-24,.cls-57,.cls-76,.cls-77,.cls-78,.cls-79,.cls-82{fill:none;}.cls-2{isolation:isolate;}.cls-3{fill:#e1faff;}.cls-4{fill:url(#linear-gradient);}.cls-5{clip-path:url(#clip-path);}.cls-6{fill:#5a915a;}.cls-7{fill:#297f58;}.cls-41,.cls-42,.cls-43,.cls-8{opacity:0.13;}.cls-12,.cls-13,.cls-14,.cls-15,.cls-39,.cls-40,.cls-8{mix-blend-mode:overlay;}.cls-9{fill:#6eaa50;}.cls-10{stroke:#5a915a;stroke-width:0.9px;}.cls-10,.cls-23,.cls-24,.cls-57,.cls-76,.cls-77,.cls-78,.cls-79,.cls-82{stroke-miterlimit:10;}.cls-11{opacity:0.08;}.cls-12,.cls-13,.cls-14,.cls-15{opacity:0.5;}.cls-12{fill:url(#linear-gradient-2);}.cls-13{fill:url(#linear-gradient-3);}.cls-14{fill:url(#linear-gradient-4);}.cls-15{fill:url(#linear-gradient-5);}.cls-16{fill:#54b5b7;}.cls-17{fill:#49999d;}.cls-18{opacity:0.14;}.cls-19{fill:#f5f0f0;}.cls-20,.cls-43,.cls-45,.cls-51{fill:#fff;}.cls-21{fill:#87a0af;}.cls-22{fill:#738c96;}.cls-23,.cls-77{stroke:#738c96;}.cls-23,.cls-24{stroke-width:1.93px;}.cls-24{stroke:#415050;}.cls-25{fill:#aac85a;}.cls-26{fill:#82be50;}.cls-27{fill:#b48255;}.cls-28{fill:#0091c8;}.cls-29{fill:#41b4e6;}.cls-30{fill:#73c8f0;}.cls-31{fill:#8fad3e;}.cls-32{fill:#71ab41;}.cls-33{fill:#c8e6eb;}.cls-34{fill:#b4d7dc;}.cls-35{fill:#87afb9;}.cls-36{fill:#46738c;}.cls-37{fill:url(#linear-gradient-6);}.cls-38{clip-path:url(#clip-path-2);}.cls-39,.cls-40{fill:#1e1632;}.cls-39{opacity:0.22;}.cls-40{opacity:0.29;}.cls-41,.cls-42,.cls-43,.cls-51{mix-blend-mode:lighten;}.cls-41{fill:url(#linear-gradient-7);}.cls-42{fill:url(#linear-gradient-8);}.cls-44{fill:#55879b;}.cls-45{font-size:35.24px;font-family:Dosis-SemiBold, Dosis SemiBold;font-weight:600;}.cls-46{fill:url(#linear-gradient-9);}.cls-47{fill:url(#linear-gradient-10);}.cls-48{fill:url(#linear-gradient-11);}.cls-49{fill:url(#linear-gradient-12);}.cls-50{fill:url(#linear-gradient-13);}.cls-51{opacity:0.09;}.cls-52{fill:#ff640a;}.cls-53{fill:#fa870a;}.cls-54{fill:#fab9af;}.cls-55{fill:#ffa50a;}.cls-56{fill:#fa690f;}.cls-57{stroke:#cd5014;stroke-width:0.43px;}.cls-58{fill:#a03c19;}.cls-59{fill:#5a2d19;}.cls-60{fill:#6867cf;}.cls-61{fill:#827ddc;}.cls-62{fill:#a09cf0;}.cls-63{fill:#ffb49b;}.cls-64{fill:#cd2846;}.cls-65{fill:#00558c;}.cls-66{fill:#3c4646;}.cls-67{fill:#006096;}.cls-68{fill:#ffa587;}.cls-69{fill:#ff6473;}.cls-70{fill:#a56941;}.cls-71{fill:#39ae96;}.cls-72{fill:#7f9ba6;}.cls-73{fill:#177d74;}.cls-74{fill:#55696e;}.cls-75{fill:#4b5c61;}.cls-76{stroke:#4b5c61;}.cls-76,.cls-77,.cls-78,.cls-79{stroke-linecap:round;}.cls-76,.cls-82{stroke-width:1.95px;}.cls-77,.cls-78,.cls-79{stroke-width:3.89px;}.cls-78{stroke:#87a0af;}.cls-79{stroke:#9bb9c3;}.cls-80{fill:#c8a06e;}.cls-81{fill:#dcbe82;}.cls-82{stroke:#55879b;}.cls-83{fill:#fff6de;}.cls-84{fill:#ffe65a;}.cls-85{fill:#ffd23c;}</style><linearGradient id="linear-gradient" x1="209.11" y1="232.44" x2="207.63" y2="-30.27" gradientUnits="userSpaceOnUse"><stop offset="0" stop-color="#fff"/><stop offset="1" stop-color="#0bf"/></linearGradient><clipPath id="clip-path" transform="translate(-39.19 -51.59)"><path class="cls-1" d="M409,303.11H87.94V105.17H409Z"/></clipPath><linearGradient id="linear-gradient-2" x1="334.14" y1="48.84" x2="235.12" y2="196.17" gradientUnits="userSpaceOnUse"><stop offset="0" stop-color="#fff"/><stop offset="0.96" stop-color="#fff" stop-opacity="0"/></linearGradient><linearGradient id="linear-gradient-3" x1="356.29" y1="91.84" x2="266.4" y2="225.59" xlink:href="#linear-gradient-2"/><linearGradient id="linear-gradient-4" x1="180.29" y1="48.84" x2="81.28" y2="196.17" xlink:href="#linear-gradient-2"/><linearGradient id="linear-gradient-5" x1="202.45" y1="91.84" x2="112.56" y2="225.59" xlink:href="#linear-gradient-2"/><linearGradient id="linear-gradient-6" x1="183.01" y1="126.37" x2="256.96" y2="185.38" gradientUnits="userSpaceOnUse"><stop offset="0" stop-color="#93278f"/><stop offset="1" stop-color="#1b1464"/></linearGradient><clipPath id="clip-path-2" transform="translate(-39.19 -51.59)"><rect class="cls-1" x="209.43" y="178.27" width="123.12" height="77.24"/></clipPath><linearGradient id="linear-gradient-7" x1="228.33" y1="128.16" x2="176.37" y2="179.59" gradientUnits="userSpaceOnUse"><stop offset="0" stop-color="#fff"/><stop offset="1" stop-color="#fff" stop-opacity="0"/></linearGradient><linearGradient id="linear-gradient-8" x1="248.51" y1="148.55" x2="196.55" y2="199.98" xlink:href="#linear-gradient-7"/><linearGradient id="linear-gradient-9" x1="231.27" y1="229.83" x2="231.03" y2="215.35" gradientTransform="translate(177.83 -151.17) rotate(45)" xlink:href="#linear-gradient-7"/><linearGradient id="linear-gradient-10" x1="264.11" y1="222.29" x2="263.64" y2="194.52" gradientTransform="translate(177.83 -151.17) rotate(45)" xlink:href="#linear-gradient-7"/><linearGradient id="linear-gradient-11" x1="280.57" y1="154.89" x2="280.11" y2="127.12" gradientTransform="translate(177.83 -151.17) rotate(45)" xlink:href="#linear-gradient-7"/><linearGradient id="linear-gradient-12" x1="241.22" y1="172.21" x2="241.05" y2="162.45" gradientTransform="translate(177.83 -151.17) rotate(45)" xlink:href="#linear-gradient-7"/><linearGradient id="linear-gradient-13" x1="293.79" y1="180.56" x2="293.63" y2="170.8" gradientTransform="translate(177.83 -151.17) rotate(45)" xlink:href="#linear-gradient-7"/></defs><title>not-found</title><g class="cls-2"><g id="OBJECTS"><path class="cls-3" d="M170.56,406.05c.43.89.89,1.77,1.35,2.65H402.59a129,129,0,0,0,13.86-46.61,81.21,81.21,0,0,1,26.31-51.77A107.79,107.79,0,0,0,477.92,232c.76-58.31-45.68-107.3-104-109.49a107.89,107.89,0,0,0-23.49,1.65,82.66,82.66,0,0,1-65.31-16.41A151.65,151.65,0,0,0,193,75.6c-82.54-.76-151.26,65.18-153.73,147.69a152.39,152.39,0,0,0,91.63,144.47A79.81,79.81,0,0,1,170.56,406.05Z" transform="translate(-39.19 -51.59)"/><rect class="cls-4" x="54.93" y="60.39" width="307.48" height="185.4"/><g class="cls-5"><path class="cls-6" d="M359,267.46a12.35,12.35,0,0,0,3.82-11.58,38.08,38.08,0,0,1-.84-8c0-12.27,5.76-22.89,14.14-28a12.34,12.34,0,0,0,5.8-10.42c.15-16.73,10.76-31.42,25-31.42,13.81,0,25,14.22,25,31.78a37.51,37.51,0,0,1-5,19,19.62,19.62,0,0,0-.76,18.86c4.5,8.81,7.27,20.83,7.27,34.07,0,27-11.54,49-25.77,49a14.17,14.17,0,0,1-4.77-.83,23,23,0,0,0-17.85,1.35,22.28,22.28,0,0,1-9.88,2.35c-15.42,0-27.92-16.32-27.92-36.45C347.31,284.89,351.94,274.06,359,267.46Z" transform="translate(-39.19 -51.59)"/><path class="cls-7" d="M146.19,218.08a14.16,14.16,0,0,1-4.38-13.27,43.58,43.58,0,0,0,1-9.16c0-14.07-6.6-26.24-16.21-32.12a14.14,14.14,0,0,1-6.65-11.94c-.17-19.17-12.33-36-28.65-36-15.83,0-28.66,16.31-28.66,36.42a43,43,0,0,0,5.7,21.8,22.45,22.45,0,0,1,.88,21.61c-5.16,10.1-8.33,23.88-8.33,39.06,0,31,13.22,56.1,29.53,56.1a16.28,16.28,0,0,0,5.47-1,26.38,26.38,0,0,1,20.46,1.55,25.34,25.34,0,0,0,11.31,2.69c17.67,0,32-18.69,32-41.76C159.63,238.06,154.32,225.65,146.19,218.08Z" transform="translate(-39.19 -51.59)"/><path class="cls-8" d="M148.51,240.19a47.83,47.83,0,0,0,6.77-9.09,40,40,0,0,0-9.09-13,14.16,14.16,0,0,1-4.38-13.27,43.58,43.58,0,0,0,1-9.16,43.06,43.06,0,0,0-2-13c-6,1-13.46,8-18.61,18.22C100.62,243.49,97.41,281,97.41,281c5.89,6.33,18.27,7.58,30.17,2.43,13.93-6,21.93-18.54,17.87-27.94a13,13,0,0,0-2.38-3.64,4.89,4.89,0,0,1,.54-7.08A49.56,49.56,0,0,0,148.51,240.19Z" transform="translate(-39.19 -51.59)"/><path class="cls-9" d="M143.39,267.38a13,13,0,0,0-2.38-3.64,4.89,4.89,0,0,1,.54-7.08,49.56,49.56,0,0,0,4.9-4.57c10.4-11.06,14-24.55,8.09-30.13a8.55,8.55,0,0,0-3.24-1.88,6.8,6.8,0,0,1-4.54-7.9c1.75-8.17.55-14.91-3.66-17-6.17-3.12-16.45,4.78-23,17.66-21.57,42.59-24.78,80.09-24.78,80.09,5.89,6.33,18.27,7.57,30.17,2.42C139.46,289.28,147.45,276.78,143.39,267.38Z" transform="translate(-39.19 -51.59)"/><path class="cls-10" d="M131.13,211.68s-48.75,67.94-34.8,120" transform="translate(-39.19 -51.59)"/><path class="cls-10" d="M137.05,238.44s-19.41-1.28-29.63,16.17" transform="translate(-39.19 -51.59)"/><path class="cls-10" d="M110.62,275.69s-9.81,0-13.21,8.25" transform="translate(-39.19 -51.59)"/><path class="cls-10" d="M115.11,238.44s2.6-4.87,1.73-13.95" transform="translate(-39.19 -51.59)"/></g><rect class="cls-11" x="54.93" y="60.39" width="307.48" height="11.32"/><polygon class="cls-12" points="358.15 65.27 214.28 221.73 214.28 175.02 313.64 65.27 358.15 65.27"/><polygon class="cls-13" points="358.15 93.35 234.1 239.81 257.22 239.83 358.15 122.9 358.15 93.35"/><polygon class="cls-14" points="204.31 65.27 60.44 221.73 60.44 175.02 159.8 65.27 204.31 65.27"/><polygon class="cls-15" points="204.31 93.35 80.26 239.81 103.38 239.83 204.31 122.9 204.31 93.35"/><path class="cls-16" d="M409,303.11H87.94V105.17H409ZM99.63,291.42H397.35V116.86H99.63Z" transform="translate(-39.19 -51.59)"/><polygon class="cls-17" points="60.44 239.83 60.44 65.27 48.75 53.58 48.75 251.52 60.44 239.83"/><polygon class="cls-17" points="358.15 65.27 358.15 239.83 369.84 251.52 369.84 53.58 358.15 65.27"/><rect class="cls-16" x="204.37" y="60.64" width="11.9" height="185.4"/><rect class="cls-17" x="204.37" y="65.27" width="11.9" height="6.44"/><g class="cls-18"><polygon points="60.44 50.28 60.44 62.34 60.44 67.21 204.31 67.21 204.31 62.34 204.31 50.28 60.44 50.28"/><path d="M223.21,118.8h-2v4H119v-4h-2v4H104.36v6.79h12.72v4.24H104.36v6.79h12.72v4.25H104.36v6.79h12.72v4.87h2v-4.87H221.26v4.87h2v-4.87H238.6v-6.79H223.21v-4.25H238.6v-6.79H223.21v-4.24H238.6v-6.79H223.21Zm-2,26H119v-4.25H221.26Zm0-11H119v-4.24H221.26Z" transform="translate(-39.19 -51.59)"/></g><g class="cls-18"><polygon points="216.22 50.28 216.22 62.34 216.22 67.21 358.15 67.21 358.15 62.34 358.15 50.28 216.22 50.28"/><path d="M377.33,118.8H375.4v4H274.55v-4h-1.92v4H260.08v6.79h12.55v4.24H260.08v6.79h12.55v4.25H260.08v6.79h12.55v4.87h1.92v-4.87H375.4v4.87h1.93v-4.87h15.18v-6.79H377.33v-4.25h15.18v-6.79H377.33v-4.24h15.18v-6.79H377.33Zm-1.93,26H274.55v-4.25H375.4Zm0-11H274.55v-4.24H375.4Z" transform="translate(-39.19 -51.59)"/></g><rect class="cls-19" x="220.89" y="69.21" width="132.43" height="6.79"/><rect class="cls-20" x="220.89" y="69.21" width="132.43" height="1.63"/><rect class="cls-19" x="220.89" y="80.24" width="132.43" height="6.79"/><rect class="cls-20" x="220.89" y="80.24" width="132.43" height="1.67"/><rect class="cls-19" x="220.89" y="91.28" width="132.43" height="6.79"/><rect class="cls-20" x="220.89" y="91.28" width="132.43" height="2.07"/><rect class="cls-21" x="216.22" y="48.34" width="141.93" height="16.93"/><rect class="cls-22" x="216.22" y="60.39" width="141.93" height="4.88"/><line class="cls-23" x1="234.4" y1="65.27" x2="234.4" y2="102.94"/><line class="cls-24" x1="234.4" y1="65.27" x2="234.4" y2="70.81"/><line class="cls-23" x1="337.17" y1="65.27" x2="337.17" y2="102.94"/><line class="cls-24" x1="337.17" y1="65.27" x2="337.17" y2="70.81"/><rect class="cls-19" x="65.75" y="69.21" width="132.43" height="6.79"/><rect class="cls-20" x="65.75" y="69.21" width="132.43" height="1.63"/><rect class="cls-19" x="65.75" y="80.24" width="132.43" height="6.79"/><rect class="cls-20" x="65.75" y="80.24" width="132.43" height="1.67"/><rect class="cls-19" x="65.75" y="91.28" width="132.43" height="6.79"/><rect class="cls-20" x="65.75" y="91.28" width="132.43" height="2.07"/><rect class="cls-21" x="61.08" y="48.34" width="141.93" height="16.93"/><rect class="cls-22" x="61.08" y="60.39" width="141.93" height="4.88"/><line class="cls-23" x1="79.26" y1="65.27" x2="79.26" y2="102.94"/><line class="cls-24" x1="79.26" y1="65.27" x2="79.26" y2="70.81"/><line class="cls-23" x1="182.03" y1="65.27" x2="182.03" y2="102.94"/><line class="cls-24" x1="182.03" y1="65.27" x2="182.03" y2="70.81"/><path class="cls-25" d="M353.73,253.87c-.22,15.4-1.93,25.29-3,30h2.81c2.41-22.2,1.05-31.15.44-35.63-.45-3.37-1.16-8.7-4.46-12.83-5.13-6.46-14.4-7.62-14.4-7.62s-1,9.32,4.19,15.74c2.84,3.52,8.74,6.05,12,7.11A3.37,3.37,0,0,1,353.73,253.87Z" transform="translate(-39.19 -51.59)"/><path class="cls-25" d="M353.14,209.1s5,38.15,3.89,50.64h-1.88S354.12,217.79,353.14,209.1Z" transform="translate(-39.19 -51.59)"/><path class="cls-25" d="M370.75,231.49c-4.39,3.88-6.2,9.55-7.35,13.14-1.29,4-3.76,11.34-5.51,28.18h2.27a204.73,204.73,0,0,1,2.45-21.95,3.75,3.75,0,0,1,3.19-3.1c3.81-.51,10.74-2.13,14.51-5.42,6.9-6,7.64-16.37,7.64-16.37S377.61,225.45,370.75,231.49Z" transform="translate(-39.19 -51.59)"/><path class="cls-26" d="M389.42,203.45s-13.65.63-21.88,9.45c-5.28,5.65-6.93,13.34-8,18.19-1.23,5.68-4.48,23.83-4.67,50.78h4a412.26,412.26,0,0,1,.47-42.49,4.93,4.93,0,0,1,3.79-4.48c4.94-1.16,13.84-4.17,18.38-9C389.77,217.16,389.42,203.45,389.42,203.45Z" transform="translate(-39.19 -51.59)"/><path class="cls-27" d="M368.7,262.8c0,2.23-5.3,3.06-11.85,3.06S345,265,345,262.8s5.3-5,11.84-5S368.7,260.57,368.7,262.8Z" transform="translate(-39.19 -51.59)"/><path class="cls-28" d="M349.47,291.12a2.53,2.53,0,0,0,1.18.28h12.76a2.6,2.6,0,0,0,1.19-.28,15.86,15.86,0,0,0,8.32-13.95V264.84a2.53,2.53,0,0,0-2.53-2.53H343.68a2.53,2.53,0,0,0-2.53,2.53v12.33A15.86,15.86,0,0,0,349.47,291.12Z" transform="translate(-39.19 -51.59)"/><rect class="cls-29" x="301.96" y="217.9" width="31.77" height="7.55"/><rect class="cls-30" x="301.96" y="217.9" width="31.77" height="1.81"/><path class="cls-31" d="M368.6,242a16.73,16.73,0,0,1,9.47-5c1.37-.23,2.67-.44,4.1-.74a19.6,19.6,0,0,0-8.84,1.18,62.24,62.24,0,0,1,6.28-4.95c.83-.59,1.68-1.13,2.56-1.65a33.8,33.8,0,0,0-10.3,6.58,38.47,38.47,0,0,0-7.66,9.53l1.49-1.72a9.82,9.82,0,0,1,6.27-3.35c1.67-.2,3.33-.34,4.93-.59a15,15,0,0,0-8.34.76Z" transform="translate(-39.19 -51.59)"/><path class="cls-32" d="M368.19,224.21a21.55,21.55,0,0,1,11.48-7.58c1.73-.46,3.37-.89,5.15-1.45a25.31,25.31,0,0,0-11.15,2.6,82.16,82.16,0,0,1,7.42-7.1c1-.85,2-1.65,3.06-2.43-4.4,2.07-9,6.06-12.35,9.69a49.33,49.33,0,0,0-8.61,13.14c.57-.8,1.12-1.6,1.68-2.39a12.62,12.62,0,0,1,7.62-5.06c2.1-.46,4.21-.84,6.23-1.36a19.34,19.34,0,0,0-10.58,2Z" transform="translate(-39.19 -51.59)"/><path class="cls-31" d="M348.21,242a14.39,14.39,0,0,0-7.59-5.22c-1.15-.34-2.24-.64-3.43-1a17,17,0,0,1,7.43,1.88,54.4,54.4,0,0,0-4.87-4.85c-.65-.58-1.33-1.13-2-1.67a29.22,29.22,0,0,1,8.14,6.65,33,33,0,0,1,5.6,8.92L350.38,245a8.45,8.45,0,0,0-5-3.48c-1.4-.34-2.81-.62-4.16-1a13,13,0,0,1,7.06,1.48Z" transform="translate(-39.19 -51.59)"/><polygon class="cls-33" points="244.1 209.21 231.93 209.21 231.65 209.21 219.49 209.21 219.49 238.88 231.65 238.88 231.93 238.88 244.1 238.88 244.1 209.21"/><path class="cls-34" d="M271.13,260.8H258.68v5h11.6a6.18,6.18,0,0,1,6.19,6.18v18.49h6.82V260.8Z" transform="translate(-39.19 -51.59)"/><rect class="cls-35" x="207.8" y="231.26" width="47.27" height="8.55"/><rect class="cls-36" x="193.08" y="235.54" width="55.62" height="4.28"/><rect class="cls-35" x="166.69" y="122.9" width="130.21" height="86.75" rx="1.9"/><path class="cls-37" d="M170.38,126.68h123a0,0,0,0,1,0,0v77.24a0,0,0,0,1,0,0H170.23a0,0,0,0,1,0,0V126.82A.14.14,0,0,1,170.38,126.68Z"/><g class="cls-38"><ellipse class="cls-28" cx="231.79" cy="218.54" rx="69.88" ry="39.22"/><path class="cls-29" d="M271,230.91c-30.11,0-55.76,10.68-65.59,25.66,3.49.54,7.63,1,9.61.54,3.53-.83,8.66-7.74,12.29-7.73,3.09,0,7.35,7.09,10.41,6.66,3.62-.51,6.37-9.35,9.64-11,4.43-2.23,14.83-1.11,19.77-1.59,4.23-.42,12.28-4,16.53-4,3.62,0,14.13,3.25,14.13,3.25a9.51,9.51,0,0,0,10.9-5.59A112.22,112.22,0,0,0,271,230.91Z" transform="translate(-39.19 -51.59)"/></g><rect class="cls-39" x="170.23" y="196.53" width="123.12" height="7.38"/><rect class="cls-40" x="170.23" y="126.68" width="123.12" height="3.66"/><polygon class="cls-41" points="211.29 126.68 170.23 167.74 170.23 203.92 170.32 203.92 247.56 126.68 211.29 126.68"/><polygon class="cls-42" points="181.71 203.92 204.23 203.92 281.47 126.68 258.94 126.68 181.71 203.92"/><polygon class="cls-43" points="278.87 203.92 293.35 189.44 293.35 166.91 256.35 203.92 278.87 203.92"/><rect class="cls-35" x="168.01" y="197.79" width="127.39" height="8.29"/><path class="cls-44" d="M274.37,255.07a3.39,3.39,0,1,1-3.38-3.39A3.38,3.38,0,0,1,274.37,255.07Z" transform="translate(-39.19 -51.59)"/><text class="cls-45" transform="translate(203.41 176.46)">404</text><path class="cls-20" d="M241.31,193.16a.26.26,0,0,1,.22-.13.25.25,0,0,1,.22.13l.27.49a.77.77,0,0,0,.31.31l.49.27a.22.22,0,0,1,.12.21.23.23,0,0,1-.12.22l-.49.27a.77.77,0,0,0-.31.31l-.27.49a.25.25,0,0,1-.22.13.26.26,0,0,1-.22-.13l-.26-.49a.84.84,0,0,0-.31-.31l-.49-.27a.24.24,0,0,1-.13-.22.23.23,0,0,1,.13-.21l.49-.27a.84.84,0,0,0,.31-.31Z" transform="translate(-39.19 -51.59)"/><path class="cls-20" d="M231.52,205.81a.16.16,0,0,1,.13-.08.13.13,0,0,1,.12.08l.16.28a.39.39,0,0,0,.18.18l.28.15a.17.17,0,0,1,.07.13.14.14,0,0,1-.07.12l-.28.16a.39.39,0,0,0-.18.18l-.16.28a.12.12,0,0,1-.12.07.15.15,0,0,1-.13-.07l-.15-.28a.45.45,0,0,0-.18-.18l-.28-.16a.13.13,0,0,1-.08-.12.16.16,0,0,1,.08-.13l.28-.15a.45.45,0,0,0,.18-.18Z" transform="translate(-39.19 -51.59)"/><path class="cls-20" d="M294.91,187.31a.23.23,0,0,1,.21-.13.24.24,0,0,1,.22.13l.27.49a.77.77,0,0,0,.31.31l.49.27a.25.25,0,0,1,.13.22.26.26,0,0,1-.13.22l-.49.26a.77.77,0,0,0-.31.31l-.27.49a.24.24,0,0,1-.22.13.23.23,0,0,1-.21-.13l-.27-.49a.77.77,0,0,0-.31-.31l-.49-.26a.26.26,0,0,1-.13-.22.25.25,0,0,1,.13-.22l.49-.27a.77.77,0,0,0,.31-.31Z" transform="translate(-39.19 -51.59)"/><path class="cls-20" d="M314.37,190.33a.25.25,0,0,1,.22-.13.26.26,0,0,1,.22.13l.26.49a.77.77,0,0,0,.31.31l.49.27a.23.23,0,0,1,.13.21.25.25,0,0,1-.13.22l-.49.27a.77.77,0,0,0-.31.31l-.26.49a.26.26,0,0,1-.22.13.25.25,0,0,1-.22-.13l-.27-.49a.77.77,0,0,0-.31-.31l-.49-.27a.25.25,0,0,1-.13-.22.23.23,0,0,1,.13-.21l.49-.27a.77.77,0,0,0,.31-.31Z" transform="translate(-39.19 -51.59)"/><path class="cls-20" d="M304.58,203a.13.13,0,0,1,.12-.08.14.14,0,0,1,.13.08l.15.28a.62.62,0,0,0,.18.18l.29.15a.16.16,0,0,1,.07.13.14.14,0,0,1-.07.12l-.29.16a.52.52,0,0,0-.18.18l-.15.28a.16.16,0,0,1-.13.07.14.14,0,0,1-.12-.07l-.16-.28a.42.42,0,0,0-.17-.18l-.29-.16a.14.14,0,0,1-.07-.12.16.16,0,0,1,.07-.13l.29-.15a.49.49,0,0,0,.17-.18Z" transform="translate(-39.19 -51.59)"/><path class="cls-20" d="M316.59,201.77a.24.24,0,0,1,.22-.13.23.23,0,0,1,.21.13l.27.49a.77.77,0,0,0,.31.31l.49.27a.23.23,0,0,1,.13.21.25.25,0,0,1-.13.22l-.49.27a.77.77,0,0,0-.31.31l-.27.49a.23.23,0,0,1-.21.13.24.24,0,0,1-.22-.13l-.27-.49a.77.77,0,0,0-.31-.31l-.49-.27a.25.25,0,0,1-.13-.22.23.23,0,0,1,.13-.21l.49-.27a.77.77,0,0,0,.31-.31Z" transform="translate(-39.19 -51.59)"/><path class="cls-20" d="M321.87,209.88a.24.24,0,0,1,.22-.13.23.23,0,0,1,.21.13l.27.49a.77.77,0,0,0,.31.31l.49.27a.25.25,0,0,1,.13.22.26.26,0,0,1-.13.22l-.49.26a.77.77,0,0,0-.31.31l-.27.49a.23.23,0,0,1-.21.13.24.24,0,0,1-.22-.13l-.27-.49a.77.77,0,0,0-.31-.31l-.49-.26a.26.26,0,0,1-.13-.22.25.25,0,0,1,.13-.22l.49-.27a.77.77,0,0,0,.31-.31Z" transform="translate(-39.19 -51.59)"/><path class="cls-20" d="M312.08,222.53a.14.14,0,0,1,.12-.07.17.17,0,0,1,.13.07l.15.28a.39.39,0,0,0,.18.18l.28.16a.13.13,0,0,1,.08.12.16.16,0,0,1-.08.13l-.28.15a.45.45,0,0,0-.18.18l-.15.28a.16.16,0,0,1-.13.08.13.13,0,0,1-.12-.08l-.16-.28a.45.45,0,0,0-.18-.18l-.28-.15a.15.15,0,0,1-.07-.13.12.12,0,0,1,.07-.12l.28-.16a.39.39,0,0,0,.18-.18Z" transform="translate(-39.19 -51.59)"/><path class="cls-20" d="M220.65,210.9a.37.37,0,0,1-.37.37.38.38,0,0,1,0-.75A.37.37,0,0,1,220.65,210.9Z" transform="translate(-39.19 -51.59)"/><path class="cls-20" d="M235.45,229.13a.44.44,0,1,1-.87,0,.44.44,0,0,1,.87,0Z" transform="translate(-39.19 -51.59)"/><path class="cls-20" d="M279.13,184.88a.37.37,0,0,1-.74,0,.37.37,0,0,1,.74,0Z" transform="translate(-39.19 -51.59)"/><circle class="cls-20" cx="269.69" cy="153.14" r="0.2"/><circle class="cls-20" cx="282.43" cy="177.95" r="0.5"/><circle class="cls-20" cx="283.89" cy="135.64" r="0.42"/><path class="cls-20" d="M282.27,202.68a.37.37,0,0,1-.37.37.37.37,0,1,1,0-.73A.37.37,0,0,1,282.27,202.68Z" transform="translate(-39.19 -51.59)"/><circle class="cls-20" cx="178.9" cy="174.81" r="0.87"/><polygon class="cls-46" points="189.25 164.84 188.74 164.28 178.28 174.2 179.52 175.43 189.25 164.84"/><circle class="cls-20" cx="207.5" cy="192.65" r="0.87"/><polygon class="cls-47" points="227.16 173.28 226.65 172.73 206.88 192.04 208.12 193.27 227.16 173.28"/><circle class="cls-20" cx="266.8" cy="156.64" r="0.87"/><polygon class="cls-48" points="286.46 137.26 285.96 136.71 266.19 156.02 267.42 157.26 286.46 137.26"/><path class="cls-20" d="M266.27,193.13a.59.59,0,1,1,0-.83A.59.59,0,0,1,266.27,193.13Z" transform="translate(-39.19 -51.59)"/><polygon class="cls-49" points="233.64 134.4 233.3 134.03 226.25 140.71 227.08 141.54 233.64 134.4"/><path class="cls-20" d="M297.54,236.21a.59.59,0,1,1,0-.83A.59.59,0,0,1,297.54,236.21Z" transform="translate(-39.19 -51.59)"/><polygon class="cls-50" points="264.91 177.48 264.56 177.11 257.52 183.79 258.35 184.62 264.91 177.48"/><path class="cls-51" d="M209.43,201.64s17-29.46,28.1-16.39,18.19,16.71,27.91,7.88,21.48-9.32,28.27,2.73-3.24,10.09-7,5.78-8.36.37-16.12,7.75-22.4,13.79-35.18,5.24-26,17.75-26,17.75Z" transform="translate(-39.19 -51.59)"/><path class="cls-51" d="M332.54,227s-10.39-18.9-22.2-10.64-24.59,16.4-39.35,2.12c0,0,1.68,25.29,26.79,24.2s34.76,6.68,34.76,6.68Z" transform="translate(-39.19 -51.59)"/><path class="cls-33" d="M250.47,414.54H422.35a2.62,2.62,0,0,0,2.62-2.62h0a2.61,2.61,0,0,0-2.62-2.61H250.47a2.61,2.61,0,0,0-2.61,2.61h0A2.61,2.61,0,0,0,250.47,414.54Z" transform="translate(-39.19 -51.59)"/><path class="cls-52" d="M322.23,370.49a4.17,4.17,0,0,0-3-.85c-3.65.29-12.16,2-14.3,11.75-2.59,11.8-9.72,22.32-9.72,22.32h13.28c8.09,0,13.22-9.1,8.62-15.76-.16-.22-.32-.44-.5-.66-5.66-7-1.35-9.22,3.2-10.27C323.6,376.15,324.57,372.42,322.23,370.49Z" transform="translate(-39.19 -51.59)"/><path class="cls-53" d="M322.23,370.49a4.17,4.17,0,0,0-3-.85,19.75,19.75,0,0,0-4,.74,2.44,2.44,0,0,1,.47.32c1.1.95.72,1.94.55,3.14-.29,2.05,1.76,2,2.73,3.38h0l.85-.21C323.6,376.15,324.57,372.42,322.23,370.49Z" transform="translate(-39.19 -51.59)"/><path class="cls-53" d="M277.17,341.32s3.39-7.18,4.43-7.08c1.51.15,3.16,8.32,3.16,8.32Z" transform="translate(-39.19 -51.59)"/><path class="cls-54" d="M282.34,342.17a11.65,11.65,0,0,0-2.15-5,.48.48,0,0,0-.61-.14l-.23.13c-1.12,2-2.18,4.2-2.18,4.2Z" transform="translate(-39.19 -51.59)"/><path class="cls-53" d="M289,343s4.16-6.76,5.18-6.54c1.49.31,3.51,10.82,3.51,10.82Z" transform="translate(-39.19 -51.59)"/><path class="cls-54" d="M294.09,344.36a11.81,11.81,0,0,0-1.58-5.24.51.51,0,0,0-.6-.21l-.25.11C290.34,340.84,289,343,289,343Z" transform="translate(-39.19 -51.59)"/><path class="cls-53" d="M278.23,403.71a4.43,4.43,0,0,1-4.56-3.26c-1.67-8.8-5.24-33.05,3.51-43.08,10.79-12.38,23.11,1.28,27.61,8.34,3.36,5.28,5.4,22.27,6.3,31.64a5.81,5.81,0,0,1-5.79,6.36Z" transform="translate(-39.19 -51.59)"/><path class="cls-55" d="M278.91,403.71a2.43,2.43,0,0,1-2.23-2.29c-.82-6.2-2.57-23.26,1.72-30.33,5.28-8.71,11.3.9,13.51,5.88,1.64,3.71,2.64,15.67,3.08,22.27.16,2.4-1.16,4.47-2.83,4.47Z" transform="translate(-39.19 -51.59)"/><path class="cls-56" d="M280.2,403.71h0a2.42,2.42,0,0,1-2.42-2.27L275,374.94l-.51-.66-.25-.95a8.65,8.65,0,0,1,8.89,9l-.51,19.17A2.43,2.43,0,0,1,280.2,403.71Z" transform="translate(-39.19 -51.59)"/><path class="cls-53" d="M278.25,403.71h0a2.42,2.42,0,0,1-2.42-2.27L274,373h0a8.51,8.51,0,0,1,8.47,9.31l-1.83,19.21A2.42,2.42,0,0,1,278.25,403.71Z" transform="translate(-39.19 -51.59)"/><path class="cls-20" d="M280.11,395.29a6.07,6.07,0,0,1-2.2,1.43c-.7.25-1.83.29-2.32.93l.24,3.79a2.42,2.42,0,0,0,2.42,2.27h0a2.42,2.42,0,0,0,2.42-2.2l.75-7.88A9.12,9.12,0,0,1,280.11,395.29Z" transform="translate(-39.19 -51.59)"/><path class="cls-56" d="M290.91,403.71h0a2.42,2.42,0,0,1-2.42-2.27l-1.33-21.06a6.94,6.94,0,0,1,6.93-7.39h0l-.76,28.52A2.43,2.43,0,0,1,290.91,403.71Z" transform="translate(-39.19 -51.59)"/><path class="cls-53" d="M289,403.71h0a2.42,2.42,0,0,1-2.43-2.27l-1.21-19.11a8.79,8.79,0,0,1,8.76-9.34h0l-2.71,28.52A2.42,2.42,0,0,1,289,403.71Z" transform="translate(-39.19 -51.59)"/><path class="cls-56" d="M273.67,363.81a8.75,8.75,0,0,0,5.09,1.81l11.6-1,6.37-11.28c-5.71-3.69-12.56-4.72-18.92,2.57A21.73,21.73,0,0,0,273.67,363.81Z" transform="translate(-39.19 -51.59)"/><path class="cls-53" d="M279.94,340.68a5.26,5.26,0,0,0-5.28,2.35c-2.12,3.28-5.3,8.34-5.68,9.71-.34,1.2,1.87,4.85,3.8,7.72a8.84,8.84,0,0,0,7.1,3.91l20.09.53-2.08-16.83a6.08,6.08,0,0,0-5.05-5.26Z" transform="translate(-39.19 -51.59)"/><line class="cls-57" x1="242.5" y1="303.65" x2="241.76" y2="307.29"/><path class="cls-54" d="M280.41,354.09c-.29.44,1.17,1.76,1.17,1.76s1.79-.64,1.76-1.17C283.29,353.94,280.83,353.47,280.41,354.09Z" transform="translate(-39.19 -51.59)"/><path class="cls-58" d="M287.85,355.85a25.92,25.92,0,0,1,4.31-.54,35.25,35.25,0,0,1,4.36.08,28.44,28.44,0,0,1,4.3.75,18.17,18.17,0,0,1,4.05,1.6,34.59,34.59,0,0,0-4.16-1.12,38.12,38.12,0,0,0-4.25-.6c-1.42-.14-2.86-.19-4.29-.22S289.29,355.8,287.85,355.85Z" transform="translate(-39.19 -51.59)"/><path class="cls-58" d="M287.58,356.89a22,22,0,0,1,7.27,1.54,18,18,0,0,1,3.3,1.76,11.22,11.22,0,0,1,2.68,2.6,18.48,18.48,0,0,0-2.94-2.18,29.14,29.14,0,0,0-3.28-1.59c-1.13-.45-2.29-.83-3.46-1.19S288.79,357.16,287.58,356.89Z" transform="translate(-39.19 -51.59)"/><path class="cls-58" d="M277.34,354c-1-.75-2.08-1.46-3.16-2.12a32.09,32.09,0,0,0-3.3-1.82,24.32,24.32,0,0,0-3.48-1.4,20.85,20.85,0,0,0-3.71-.75,12.06,12.06,0,0,1,3.83.28,20.18,20.18,0,0,1,3.64,1.29,26.63,26.63,0,0,1,3.29,2A18.85,18.85,0,0,1,277.34,354Z" transform="translate(-39.19 -51.59)"/><path class="cls-58" d="M277.06,355a34.15,34.15,0,0,0-6.27-.56,25.18,25.18,0,0,0-3.13.21,28.69,28.69,0,0,0-3.11.57,12.84,12.84,0,0,1,3-1.07,16.22,16.22,0,0,1,9.48.85Z" transform="translate(-39.19 -51.59)"/><line class="cls-57" x1="240.96" y1="306.96" x2="242.56" y2="307.31"/><circle class="cls-59" cx="247.7" cy="298.93" r="1.2"/><circle class="cls-59" cx="239.09" cy="297.58" r="1.2"/><path class="cls-52" d="M304.79,365.71c-.28-.44-.59-.9-.93-1.39a1.26,1.26,0,0,1-.29.12,2.72,2.72,0,0,1-.91.08l-.59-.06a4.28,4.28,0,0,0-1.1-.11,2.89,2.89,0,0,0-2,.91,2.64,2.64,0,0,0-.7,1.75,4.05,4.05,0,0,1,1.46-.54,1.73,1.73,0,0,1,1,.16l.44.25a5.24,5.24,0,0,0,.94.36,4.21,4.21,0,0,0,2.23,0,3.71,3.71,0,0,0,1-.46A11.71,11.71,0,0,0,304.79,365.71Z" transform="translate(-39.19 -51.59)"/><path class="cls-52" d="M306.36,369.24a1.35,1.35,0,0,0-.22.14,2.56,2.56,0,0,0-.48.5l-.06.08v0l0,0-.06.06a1.71,1.71,0,0,1-.63.32,2.72,2.72,0,0,1-.91.09l-.6-.06a4.2,4.2,0,0,0-1.09-.11,2.89,2.89,0,0,0-2,.91,2.58,2.58,0,0,0-.69,1.75,4,4,0,0,1,1.45-.55,1.81,1.81,0,0,1,1,.17l.45.25a5.44,5.44,0,0,0,.93.36,4.32,4.32,0,0,0,2.23,0,3.72,3.72,0,0,0,1.59-.93C307,371.17,306.67,370.16,306.36,369.24Z" transform="translate(-39.19 -51.59)"/><path class="cls-52" d="M307.89,374.94a2.87,2.87,0,0,0-.62.38,2.67,2.67,0,0,0-.49.51l0,.08h0l0,0-.07.06a1.83,1.83,0,0,1-.62.32,3,3,0,0,1-.91.09c-.19,0-.39,0-.6-.07a4.79,4.79,0,0,0-1.1-.1,2.88,2.88,0,0,0-2,.91,2.56,2.56,0,0,0-.69,1.75,4,4,0,0,1,1.45-.55,1.73,1.73,0,0,1,1,.17l.44.25a5.52,5.52,0,0,0,.94.35,4.31,4.31,0,0,0,2.23,0,3.79,3.79,0,0,0,1.72-1.09C308.31,377,308.11,375.94,307.89,374.94Z" transform="translate(-39.19 -51.59)"/><path class="cls-52" d="M301,385.1a2.64,2.64,0,0,1,.92-1.64,2.86,2.86,0,0,1,2.1-.64,4.41,4.41,0,0,1,1.07.25c.21.05.4.11.58.14a2.93,2.93,0,0,0,.92,0,1.6,1.6,0,0,0,.66-.24l.08,0,0,0h0l.06-.07a2.65,2.65,0,0,1,.55-.44,3.11,3.11,0,0,1,1.13-.42,3,3,0,0,1,2.14.43,2.48,2.48,0,0,1,1.06,1.57,2.51,2.51,0,0,0-2.5.19,1.35,1.35,0,0,0-.29.3s0,.09,0,.09h0l0,.06-.1.13-.2.24a3.64,3.64,0,0,1-2.14,1.12,4.26,4.26,0,0,1-2.22-.3,5.54,5.54,0,0,1-.87-.47l-.41-.31a1.8,1.8,0,0,0-1-.3A4.17,4.17,0,0,0,301,385.1Z" transform="translate(-39.19 -51.59)"/><path class="cls-52" d="M300.57,391.73a2.82,2.82,0,0,1,1-1.49,2.87,2.87,0,0,1,2-.59,4.7,4.7,0,0,1,1,.23c.21.05.42.1.61.13a2.42,2.42,0,0,0,1,0,1.51,1.51,0,0,0,.61-.38l.15-.18a2.8,2.8,0,0,1,.53-.51,3.71,3.71,0,0,1,3.58-.47,3.9,3.9,0,0,1,1.75,1.38l-.28-.24a3.07,3.07,0,0,0,.8.46,3.38,3.38,0,0,0,1,.22,2.8,2.8,0,0,0,1.13-.13,5.86,5.86,0,0,0,1.23-.53,3.47,3.47,0,0,1-.73,1.27,3.54,3.54,0,0,1-1.31.91,4,4,0,0,1-1.65.29,4.48,4.48,0,0,1-1.71-.39l-.29-.24a1.48,1.48,0,0,0-1.5-.34,1,1,0,0,0-.27.15l0,0h0l-.06.06-.1.12-.22.23a3.87,3.87,0,0,1-2.21,1,4.15,4.15,0,0,1-2.14-.38,5.73,5.73,0,0,1-.84-.48c-.18-.13-.3-.23-.46-.33a1.78,1.78,0,0,0-1.11-.24A3.75,3.75,0,0,0,300.57,391.73Z" transform="translate(-39.19 -51.59)"/><path class="cls-52" d="M300.57,398.67a2.76,2.76,0,0,1,1-1.49,2.8,2.8,0,0,1,2-.59,4.57,4.57,0,0,1,1,.23c.21.05.42.1.61.13a2.42,2.42,0,0,0,1,0,1.51,1.51,0,0,0,.61-.38l.15-.18a3.15,3.15,0,0,1,.53-.51,3.85,3.85,0,0,1,1.13-.56,3.68,3.68,0,0,1,2.45.09,3.9,3.9,0,0,1,1.74,1.39l-.16-.16a5.63,5.63,0,0,0,.8.66,5.4,5.4,0,0,0,.95.5,2.54,2.54,0,0,0,1.07.18,3,3,0,0,0,1.23-.34,2.48,2.48,0,0,1-.91,1.16,3.22,3.22,0,0,1-1.52.53,4.7,4.7,0,0,1-1.59-.15,5.3,5.3,0,0,1-1.5-.62l-.16-.15a1.48,1.48,0,0,0-1.51-.34,1.3,1.3,0,0,0-.27.15l0,0h0l-.06.06-.1.13-.22.22a3.76,3.76,0,0,1-2.21,1,4.36,4.36,0,0,1-2.14-.38,5.29,5.29,0,0,1-.84-.49,4.88,4.88,0,0,0-.46-.32,1.85,1.85,0,0,0-1.11-.25A4,4,0,0,0,300.57,398.67Z" transform="translate(-39.19 -51.59)"/><path class="cls-60" d="M355.15,409.31H257.77a5.6,5.6,0,0,1,5.59-5.6h86.19a5.6,5.6,0,0,1,5.6,5.6Z" transform="translate(-39.19 -51.59)"/><path class="cls-61" d="M307.49,409.31H265a5.6,5.6,0,0,1,5.59-5.6h31.26a5.6,5.6,0,0,1,5.6,5.6Z" transform="translate(-39.19 -51.59)"/><path class="cls-62" d="M289.72,409.31H273.36a5.6,5.6,0,0,1,5.59-5.6h5.18a5.6,5.6,0,0,1,5.59,5.6Z" transform="translate(-39.19 -51.59)"/><path class="cls-63" d="M205,213.34c.64.75,3-4.1,3.87-2.44S205,223.58,205,223.58l-3.46-2.26a33.85,33.85,0,0,1-.6-8.67c.14-3.19,2.35-7.11,3.76-9.31a.7.7,0,0,1,1.29.38C206.13,209.49,204.43,212.72,205,213.34Z" transform="translate(-39.19 -51.59)"/><path class="cls-64" d="M150,243.46c-1-6.26,4.24-8.49,30.85-3,0,0,8-13.89,17-18.88a5.66,5.66,0,0,1,6.66.91h0a5.69,5.69,0,0,1,1.74,4.36c-.28,6.27-2.25,22.05-14.49,30.33C183.84,262.53,151,249.71,150,243.46Z" transform="translate(-39.19 -51.59)"/><path class="cls-63" d="M226.26,388.64l2.91,8.37a2.16,2.16,0,0,0,2.71,1.17h0a2.17,2.17,0,0,0,1.34-2.65l-2.19-8.6Z" transform="translate(-39.19 -51.59)"/><path class="cls-65" d="M167,310.13l33.76-6.37c3.37,1.1,9.19,8.15,11.16,11.25,11.85,18.67,20.62,73.85,20.62,73.85a9.81,9.81,0,0,1-7.36,2.58s-27.3-51.34-32.13-57.5C186.9,326.14,169.2,309.41,167,310.13Z" transform="translate(-39.19 -51.59)"/><path class="cls-66" d="M227.59,398.65c.07,4.45,3.11,4,8.55,3.81,6.24-.16,10.22.19,10.12-1.21s-3.41-4.06-8.68-5.42C231.26,394.2,227.54,395.75,227.59,398.65Z" transform="translate(-39.19 -51.59)"/><path class="cls-66" d="M175.86,371.76c-4.35-.94-4.81,2.09-5.65,7.47s-.66,9.35.73,9.57,2.88-1.84,5.4-6.67C179.36,376.34,178.69,372.37,175.86,371.76Z" transform="translate(-39.19 -51.59)"/><path class="cls-63" d="M179.58,366.66l-5.6,6.86a2.16,2.16,0,0,0,.43,2.92h0a2.14,2.14,0,0,0,3-.25l6.17-6.38Z" transform="translate(-39.19 -51.59)"/><path class="cls-67" d="M201.62,308.88l29.69-3.33c.84,3.44,1.21,6.5.79,8.7-3.61,18.94-49.44,57.82-49.44,57.82a9.84,9.84,0,0,1-6.06-4.91s29.08-45.24,28.27-53C204.65,312.05,203.41,310.43,201.62,308.88Z" transform="translate(-39.19 -51.59)"/><path class="cls-67" d="M148.49,285.34S137,303.17,149,313.52c7.34,6.35,83.13.73,83.13.73s4-10.9-4.41-16.87C206.81,282.46,148.49,285.34,148.49,285.34Z" transform="translate(-39.19 -51.59)"/><path class="cls-63" d="M167.55,241.4h0a5.67,5.67,0,0,1-4.56-6.6l3.38-18.42,11.16,2.05-3.38,18.41A5.68,5.68,0,0,1,167.55,241.4Z" transform="translate(-39.19 -51.59)"/><path class="cls-68" d="M177.53,218.43l-11.16-2.05s4.81,6.12,4.2,8.83l3.58,11.63Z" transform="translate(-39.19 -51.59)"/><path class="cls-63" d="M175.67,232.36h0c-4.88-.89-10.35-8-9.46-12.89l1.85-10.08,17.69,3.24-1.85,10.09C183,227.6,177.81,232.75,175.67,232.36Z" transform="translate(-39.19 -51.59)"/><path class="cls-27" d="M196.81,207.79a10.72,10.72,0,0,0-6.4-9.87,10.88,10.88,0,0,0-6.43-.72,14.9,14.9,0,0,1-8.52-.59,12.19,12.19,0,0,0-1.62-.5,10.58,10.58,0,0,0-12.26,6.77,17.31,17.31,0,0,1-2.91,5.16,10.58,10.58,0,0,0-2.36,6.84c0,4,3.73,13.87,7.67,14.52,3.39.56,9.24-6.59,10.67-13,.14-.6,2.75-.6,2.78-1.19l.52-.37a10.75,10.75,0,0,0,18.86-7Z" transform="translate(-39.19 -51.59)"/><path class="cls-69" d="M146,282.3s-5.71-52.53,13-50.22,22.6,5.57,28.11,17.2c3.54,7.47-1,27.13-3.8,37.57a9.48,9.48,0,0,1-9.16,7C164,293.89,146.6,292.46,146,282.3Z" transform="translate(-39.19 -51.59)"/><path class="cls-63" d="M222.09,291.14s7.87,1.39,13-2.11c2.08-1.43,9.3.13,9.38-1.34.11-2.17-9.52-2.91-12.21-2.44s-10.17,2.22-10.17,2.22Z" transform="translate(-39.19 -51.59)"/><path class="cls-27" d="M157,167.07a5.71,5.71,0,0,1-5.65-4,13.16,13.16,0,1,0-20.42,14.41,8.41,8.41,0,0,1,3,8.5,23.84,23.84,0,1,0,23-19Z" transform="translate(-39.19 -51.59)"/><path class="cls-70" d="M171.6,219.43c-4-.37-8.38-10-8.69-13.93a.92.92,0,0,1,0-.16l-.81,0a23.91,23.91,0,0,1-23.55-27,8.39,8.39,0,0,0-3.64-8.25,13.16,13.16,0,0,1-6.09-11.73,13.15,13.15,0,0,0,2.12,19.18,8.41,8.41,0,0,1,3,8.5,23.89,23.89,0,0,0,21.53,28.66l.81,0v.16c0,4,3.73,13.87,7.67,14.52,3,.5,7.91-5,10-10.77A3.88,3.88,0,0,1,171.6,219.43Z" transform="translate(-39.19 -51.59)"/><path class="cls-71" d="M110.66,262.71h34.19a11.09,11.09,0,0,1,11.09,11.09v2.83a0,0,0,0,1,0,0H99.57a0,0,0,0,1,0,0V273.8A11.09,11.09,0,0,1,110.66,262.71Z"/><rect class="cls-22" x="123.54" y="278.83" width="8.42" height="65.05"/><rect class="cls-72" x="124.91" y="278.83" width="2.85" height="28.91"/><path class="cls-73" d="M103.38,276.63h48.47a0,0,0,0,1,0,0v1.89a2.52,2.52,0,0,1-2.52,2.52H105.9a2.52,2.52,0,0,1-2.52-2.52v-1.89A0,0,0,0,1,103.38,276.63Z"/><circle class="cls-66" cx="113.24" cy="351.66" r="6.06"/><path class="cls-74" d="M154.76,403.25a2.33,2.33,0,1,1-2.33-2.33A2.33,2.33,0,0,1,154.76,403.25Z" transform="translate(-39.19 -51.59)"/><circle class="cls-66" cx="142.02" cy="351.66" r="6.06"/><path class="cls-74" d="M183.55,403.25a2.34,2.34,0,1,1-2.34-2.33A2.33,2.33,0,0,1,183.55,403.25Z" transform="translate(-39.19 -51.59)"/><polygon class="cls-74" points="134.4 342.13 120.85 342.13 123.12 329.49 132.41 329.49 134.4 342.13"/><path class="cls-75" d="M171.6,381.08h-.78a1.59,1.59,0,0,0-1.57,1.84l.52,3.32a3.27,3.27,0,0,1-3.24,3.79H163a2.68,2.68,0,0,0-2.64,2.21l-.27,1.48H173.6Z" transform="translate(-39.19 -51.59)"/><rect class="cls-75" x="119.37" y="281.03" width="16.09" height="2.89"/><path class="cls-76" d="M162.74,334.07v2a3.47,3.47,0,0,1-3.47,3.47h-11.4" transform="translate(-39.19 -51.59)"/><path class="cls-69" d="M176.42,242.57c5.21-3.6,12.66,3.89,20.67,34.28,0,0,16,1.28,24.33,7.32a5.67,5.67,0,0,1,2,6.41h0a5.7,5.7,0,0,1-3.21,3.43c-5.78,2.41-20.89,7.37-33.61-.17C178.41,289,171.21,246.17,176.42,242.57Z" transform="translate(-39.19 -51.59)"/><path class="cls-20" d="M221.85,190.15a.25.25,0,0,1,.22-.13.26.26,0,0,1,.22.13l.26.49a.84.84,0,0,0,.31.31l.49.26a.25.25,0,0,1,0,.44l-.49.27a.71.71,0,0,0-.31.31l-.26.49a.27.27,0,0,1-.22.12.26.26,0,0,1-.22-.12l-.27-.49a.71.71,0,0,0-.31-.31l-.49-.27a.25.25,0,0,1,0-.44l.49-.26a.84.84,0,0,0,.31-.31Z" transform="translate(-39.19 -51.59)"/><path class="cls-33" d="M198.46,409.31H131.83a2.72,2.72,0,0,0-2.76,2.47,2.62,2.62,0,0,0,2.61,2.76h66.78a2.62,2.62,0,0,0,2.62-2.62h0A2.62,2.62,0,0,0,198.46,409.31Z" transform="translate(-39.19 -51.59)"/><path class="cls-77" d="M142.57,403V399.9a4.43,4.43,0,0,1,4.43-4.43h39.61A4.44,4.44,0,0,1,191,399.9V403" transform="translate(-39.19 -51.59)"/><line class="cls-78" x1="111.9" y1="343.88" x2="137.4" y2="343.88"/><line class="cls-79" x1="117.74" y1="343.88" x2="125.72" y2="343.88"/><path class="cls-68" d="M173.3,218.05a4,4,0,0,0,3.19,4.67l1.45-7.91A4,4,0,0,0,173.3,218.05Z" transform="translate(-39.19 -51.59)"/><polygon class="cls-80" points="326 324.51 320.46 322.43 301.92 245.79 317.84 245.79 329.98 321.73 326 324.51"/><polygon class="cls-27" points="319.88 258.54 317.84 245.79 301.92 245.79 305.03 258.54 319.88 258.54"/><polygon class="cls-81" points="335.74 357.72 329.98 321.73 320.46 322.43 329.24 357.72 335.74 357.72"/><rect class="cls-81" x="139.32" y="239.81" width="204.88" height="14.14"/><line class="cls-82" x1="48.75" y1="119.18" x2="48.75"/><circle class="cls-83" cx="48.75" cy="151.46" r="11.02"/><path class="cls-84" d="M98.26,206.9a11,11,0,1,0-20.63,0Z" transform="translate(-39.19 -51.59)"/><path class="cls-84" d="M87.94,164.14c-13.3,0-24.25,15.67-25.67,35.82a4.17,4.17,0,0,0,4.14,4.44h43.07a4.16,4.16,0,0,0,4.14-4.44C112.2,179.82,101.25,164.14,87.94,164.14Z" transform="translate(-39.19 -51.59)"/><path class="cls-84" d="M94.34,168.82H81.55V154.11a6.39,6.39,0,0,1,6.39-6.4h0a6.39,6.39,0,0,1,6.4,6.4Z" transform="translate(-39.19 -51.59)"/><path class="cls-85" d="M87.94,147.71a6.36,6.36,0,0,0-3.4,1,6.39,6.39,0,0,1,3,5.41l.42,10,6.4,4.68V154.11A6.39,6.39,0,0,0,87.94,147.71Z" transform="translate(-39.19 -51.59)"/><path class="cls-85" d="M87.39,164.15h.55c5,4.86,8.35,12.35,10.3,21.22a10.75,10.75,0,0,1-10.51,13H62.4c0,.51-.09,1-.12,1.53a4.15,4.15,0,0,0,4.13,4.47h43.07a4.16,4.16,0,0,0,4.14-4.45C112.18,179.53,100.94,163.71,87.39,164.15Z" transform="translate(-39.19 -51.59)"/><line class="cls-82" x1="369.09" y1="119.18" x2="369.09"/><circle class="cls-83" cx="369.09" cy="151.46" r="11.02"/><path class="cls-84" d="M418.6,206.9a11,11,0,1,0-20.63,0Z" transform="translate(-39.19 -51.59)"/><path class="cls-84" d="M408.29,164.14C395,164.14,384,179.81,382.61,200a4.17,4.17,0,0,0,4.14,4.44h43.07A4.16,4.16,0,0,0,434,200C432.54,179.82,421.59,164.14,408.29,164.14Z" transform="translate(-39.19 -51.59)"/><path class="cls-84" d="M414.68,168.82H401.89V154.11a6.39,6.39,0,0,1,6.4-6.4h0a6.39,6.39,0,0,1,6.39,6.4Z" transform="translate(-39.19 -51.59)"/><path class="cls-85" d="M408.29,147.71a6.36,6.36,0,0,0-3.41,1,6.4,6.4,0,0,1,3,5.41l.42,10,6.39,4.68V154.11A6.39,6.39,0,0,0,408.29,147.71Z" transform="translate(-39.19 -51.59)"/><path class="cls-85" d="M407.73,164.15h.56c5,4.86,8.34,12.35,10.29,21.22a10.75,10.75,0,0,1-10.51,13H382.74c0,.51-.09,1-.12,1.53a4.15,4.15,0,0,0,4.13,4.47h43.07A4.16,4.16,0,0,0,434,200C432.52,179.53,421.28,163.71,407.73,164.15Z" transform="translate(-39.19 -51.59)"/></g></g></svg>